<svg xmlns="http://www.w3.org/2000/svg" xmlns:xlink="http://www.w3.org/1999/xlink" width="82" height="82" viewBox="0 0 82 82"><defs><clipPath id="a"><circle cx="41" cy="41" r="41" transform="translate(1080 35)" fill="#8dc04e" stroke="#69adcd" stroke-width="4"/></clipPath><clipPath id="b"><rect width="167.56" height="81.622" stroke="#707070" stroke-width="0.203"/></clipPath><clipPath id="c"><rect width="177.038" height="83.385" stroke="#707070" stroke-width="0.203"/></clipPath><clipPath id="e"><rect width="160.306" height="74.684" stroke="#707070" stroke-width="0.203"/></clipPath></defs><g transform="translate(-9254 -2230)"><g transform="translate(8174 2195)" clip-path="url(#a)"><g transform="translate(987.591 30.901)"><g transform="translate(0 0)"><g transform="translate(9.478 4.081)"><g clip-path="url(#b)"><path d="M3.264-1h174.5a4.069,4.069,0,0,1,4.059,4.081V90.15a4.066,4.066,0,0,1-4.059,4.081H3.264A4.069,4.069,0,0,1-.795,90.15V3.083A4.079,4.079,0,0,1,3.264-1Z" transform="translate(-0.847 -1.01)" fill="#438ecc"/><path d="M3.264-1.1h174.5a4.176,4.176,0,0,1,4.161,4.182V90.15a4.176,4.176,0,0,1-4.161,4.182H3.264A4.176,4.176,0,0,1-.9,90.15V3.083A4.182,4.182,0,0,1,3.264-1.1Zm174.5,95.228a3.973,3.973,0,0,0,3.958-3.98V3.083A3.973,3.973,0,0,0,177.765-.9H3.264A3.979,3.979,0,0,0-.694,3.084V90.15a3.973,3.973,0,0,0,3.958,3.98Z" transform="translate(-0.847 -1.01)" fill="#707070"/></g></g><g transform="translate(2.581 4.081)"><g clip-path="url(#c)"><path d="M71.474,18.48c7.228-3.657,13.921-8.06,22.393-9.893,25.16-5.444,45.1,13.219,58.686,26.409,8.179,7.942,18.267,18.549,14.5,29.29-9.415,26.821-65.526,23.919-92.233,19.189C55.37,80.035,28.047,72.612,20.04,57.063,15.314,47.88,21.68,38.1,31.006,32.18c9.827-6.24,22.156-6.518,33.159-10.488A63.576,63.576,0,0,0,71.474,18.48Z" transform="translate(18.669 7.712)" fill="#f6f6f6"/><path d="M102.844,7.516a44.952,44.952,0,0,1,14.965,2.655,63.594,63.594,0,0,1,13.331,6.708c8.066,5.234,15.036,11.784,21.484,18.044,4.339,4.213,8.765,8.779,11.745,13.615a24.387,24.387,0,0,1,3.256,7.736,14.876,14.876,0,0,1-.48,8.045c-2.811,8.009-10,13.974-21.36,17.73a88.325,88.325,0,0,1-16.851,3.589,152.459,152.459,0,0,1-18.37,1.037,214.694,214.694,0,0,1-35.765-3.1c-12.391-2.192-23.056-5.11-31.7-8.672C31.319,70.048,23.53,64.061,19.95,57.109a14.693,14.693,0,0,1,.213-13.756A29.84,29.84,0,0,1,30.951,32.095a41.056,41.056,0,0,1,9.778-4.385c3.42-1.078,7.03-1.884,10.521-2.663A106.088,106.088,0,0,0,64.13,21.6a63.174,63.174,0,0,0,7.3-3.207c1.637-.828,3.275-1.71,4.858-2.562,5.4-2.91,10.994-5.919,17.559-7.339A42.636,42.636,0,0,1,102.844,7.516Zm7.72,78.957c14.062,0,25.891-1.553,35.157-4.616,11.3-3.735,18.443-9.658,21.233-17.6,1.675-4.772.773-9.878-2.758-15.608-2.968-4.817-7.384-9.371-11.713-13.576-10.536-10.229-28.171-27.35-49.638-27.35a42.434,42.434,0,0,0-8.956.968C87.351,10.1,81.775,13.1,76.382,16.006c-1.585.853-3.223,1.735-4.863,2.565A63.371,63.371,0,0,1,64.2,21.787a106.238,106.238,0,0,1-12.9,3.457C44.337,26.8,37.142,28.4,31.06,32.266A29.636,29.636,0,0,0,20.344,43.444a14.5,14.5,0,0,0-.214,13.572c3.557,6.908,11.312,12.863,23.047,17.7,8.629,3.556,19.28,6.47,31.657,8.66A214.483,214.483,0,0,0,110.564,86.473Z" transform="translate(18.669 7.712)" fill="#707070"/></g></g><g transform="translate(0 4.081)"><g clip-path="url(#c)"><path d="M70.1,36.222c-.265-.343-5.379-12.623-5.379-12.623s-2.392.127-3.959,4.359-7.5,22.732-7.5,22.732L59,54.269,62.563,52.8Z" transform="translate(56.373 23.893)" fill="#f18428"/><path d="M64.784,23.494l.028.066c1.417,3.4,5.144,12.3,5.366,12.6l.036.048-.024.056-7.55,16.61L58.99,54.382l-5.849-3.649.024-.075c.059-.185,5.948-18.55,7.5-22.736a7.776,7.776,0,0,1,2.6-3.814,3.034,3.034,0,0,1,1.445-.611Zm5.2,12.734c-.487-.9-4.7-11.012-5.329-12.519a3.134,3.134,0,0,0-1.283.575,7.6,7.6,0,0,0-2.516,3.709c-1.5,4.045-7.056,21.358-7.471,22.652l5.627,3.51,3.478-1.438Z" transform="translate(56.373 23.893)" fill="#707070"/><path d="M92.534,55.548H63.207S59.02,47.072,58.4,39.583c-.433-5.159,0-14.561,1.29-15.267a37.908,37.908,0,0,1,4.073-1.424c.053,3.028,2.987,7.832,6.962,9.04,3.6,1.094,10.207-4.779,13.1-7.542,2.665,1.739,5.293,3.51,5.807,4.387C90.448,30.188,92.534,55.548,92.534,55.548Z" transform="translate(61.406 23.176)" fill="#f4952d"/><path d="M92.644,55.65h-29.5l-.028-.056c-.042-.085-4.2-8.58-4.822-16a67.061,67.061,0,0,1,0-9.319c.144-2.062.51-5.59,1.343-6.046a36.5,36.5,0,0,1,4.01-1.406l.211-.067,0,.136a9.851,9.851,0,0,0,1.992,5.145,9.778,9.778,0,0,0,4.9,3.8,3.207,3.207,0,0,0,.932.13c3.532,0,9.078-4.792,12.069-7.648l.058-.056.067.044c2.545,1.66,5.3,3.508,5.84,4.421.822,1.416,2.834,25.779,2.919,26.815Zm-29.373-.2H92.423c-.151-1.82-2.111-25.29-2.883-26.62-.508-.867-3.2-2.673-5.708-4.309a53.452,53.452,0,0,1-5.623,4.741c-2.7,1.929-4.891,2.907-6.528,2.907a3.41,3.41,0,0,1-.991-.139,9.98,9.98,0,0,1-5-3.875,10.222,10.222,0,0,1-2.025-5.124A36.148,36.148,0,0,0,59.733,24.4c-.539.295-1,2.494-1.238,5.882a66.841,66.841,0,0,0,0,9.288C59.085,46.641,62.906,54.694,63.27,55.447Z" transform="translate(61.406 23.176)" fill="#707070"/><g transform="translate(125.167 36.481)"><path d="M81.043,29.216c-2.893,2.759-9.5,8.636-13.1,7.542-3.975-1.208-6.909-6.016-6.962-9.04a37.563,37.563,0,0,0,4.5-1.628h0c.167-.09.261-.171.273-.241.086-.592-.975-5.709-.975-5.709l8.648-2.012a17.294,17.294,0,0,0,.535,3.653,7.873,7.873,0,0,0,2.677,4.53C77.819,27.127,79.431,28.167,81.043,29.216Z" transform="translate(-60.98 -18.128)" fill="#f28f7c"/><path d="M68.9,36.993a3.414,3.414,0,0,1-.991-.138,9.979,9.979,0,0,1-5-3.877,10.058,10.058,0,0,1-2.029-5.258v-.075l.1-.033A37.349,37.349,0,0,0,65.428,26l.028-.013c.185-.1.2-.157.2-.157a55.55,55.55,0,0,0-.975-5.671l-.02-.1L73.527,18l0,.125a17.352,17.352,0,0,0,.531,3.629A7.581,7.581,0,0,0,76.7,26.227c1.029.712,2.372,1.585,3.793,2.508l.716.465-.093.088C77.427,32.8,72.317,36.993,68.9,36.993Zm-7.821-9.2a9.948,9.948,0,0,0,1.99,5.069,9.778,9.778,0,0,0,4.9,3.8,3.212,3.212,0,0,0,.932.13c1.594,0,3.75-.966,6.411-2.871a53.521,53.521,0,0,0,5.565-4.689l-.5-.326c-1.422-.924-2.766-1.8-3.8-2.512a7.771,7.771,0,0,1-2.718-4.588,17.818,17.818,0,0,1-.534-3.552L64.9,20.216a54.452,54.452,0,0,1,.956,5.648c-.019.107-.122.206-.326.316l-.026.012A37.81,37.81,0,0,1,61.083,27.791Z" transform="translate(-60.98 -18.128)" fill="#707070"/><path d="M63.846,25.849c.086-.592-.975-5.709-.975-5.709l8.648-2.012a17.294,17.294,0,0,0,.535,3.653C65.511,28.547,63.837,25.914,63.846,25.849Z" transform="translate(-59.067 -18.128)" fill="#ee756a"/><path d="M65.092,26.508a1.6,1.6,0,0,1-1.242-.473c-.114-.129-.107-.18-.1-.2a55.107,55.107,0,0,0-.974-5.676l-.02-.1L71.617,18l0,.126a17.352,17.352,0,0,0,.531,3.629l.014.055-.04.041C68.4,25.7,66.246,26.508,65.092,26.508Zm-1.143-.677a1.312,1.312,0,0,0,1.143.474c1.111,0,3.2-.792,6.848-4.555a17.841,17.841,0,0,1-.519-3.5L62.99,20.216C63.137,20.934,64,25.152,63.949,25.832Z" transform="translate(-59.067 -18.128)" fill="#707070"/></g><g transform="translate(114.61 5.043)"><path d="M63.41,18.743c-.5,1.343-2.6,1.8-4.685,1.033s-3.379-2.489-2.885-3.832,2.6-1.8,4.685-1.033S63.908,17.4,63.41,18.743Z" transform="translate(-55.734 9.675)" fill="#ee756a"/><path d="M60.728,20.25a5.967,5.967,0,0,1-2.039-.38c-2.137-.789-3.459-2.566-2.945-3.962a2.767,2.767,0,0,1,2.777-1.472,5.967,5.967,0,0,1,2.039.38,4.966,4.966,0,0,1,2.83,2.348,2.081,2.081,0,0,1,.116,1.615A2.767,2.767,0,0,1,60.728,20.25Zm-2.207-5.612a2.576,2.576,0,0,0-2.587,1.34c-.475,1.291.793,2.951,2.825,3.7a5.762,5.762,0,0,0,1.968.367,2.576,2.576,0,0,0,2.587-1.34,1.884,1.884,0,0,0-.11-1.459,4.762,4.762,0,0,0-2.716-2.242A5.762,5.762,0,0,0,58.521,14.639Z" transform="translate(-55.734 9.675)" fill="#707070"/><path d="M63.353,9.233l-4.824,1s-2.812,6.905-.841,11.525C59.15,25.178,63.353,9.233,63.353,9.233Z" transform="translate(-54.465 4.305)" fill="#291612"/><path d="M63.493,9.1l-.042.158c-.009.033-.87,3.291-1.933,6.507a43.768,43.768,0,0,1-1.7,4.481c-.653,1.407-1.188,2.09-1.634,2.09-.237,0-.435-.183-.589-.544-1.028-2.41-.744-5.438-.325-7.554a24.793,24.793,0,0,1,1.165-4.049l.02-.05ZM58.185,22.135c.379,0,1.291-.835,3.14-6.431.928-2.807,1.7-5.647,1.888-6.338l-4.609.952a24.923,24.923,0,0,0-1.135,3.965c-.413,2.087-.694,5.07.313,7.432C57.9,21.993,58.036,22.135,58.185,22.135Z" transform="translate(-54.465 4.305)" fill="#707070"/><path d="M82.837,23.784a16.656,16.656,0,0,1-1.077,3.489c-2.84,6.628-10.786,10.909-16.692,9.762-6.889-1.339-8.836-9.55-7.17-18.1a19.223,19.223,0,0,1,1.216-3.955c2.71-6.313,8.5-10.223,14.263-9.1C80.258,7.219,84.494,15.234,82.837,23.784Z" transform="translate(-54.111 0.717)" fill="#f28f7c"/><path d="M67.063,37.322a10.6,10.6,0,0,1-2.014-.187c-3.26-.633-5.635-2.851-6.869-6.412A23.442,23.442,0,0,1,57.8,18.916a19.355,19.355,0,0,1,1.223-3.976c2.439-5.682,7.3-9.353,12.373-9.353a10.5,10.5,0,0,1,2,.193,11.625,11.625,0,0,1,8,6.3A17.881,17.881,0,0,1,82.937,23.8a16.767,16.767,0,0,1-1.084,3.51,16.8,16.8,0,0,1-6.241,7.232A15.925,15.925,0,0,1,67.063,37.322ZM71.393,5.79c-5,0-9.779,3.623-12.186,9.231A19.151,19.151,0,0,0,58,18.955a23.239,23.239,0,0,0,.374,11.7c1.209,3.489,3.532,5.66,6.717,6.279a10.392,10.392,0,0,0,1.975.184c5.813,0,12.228-4.342,14.6-9.886a16.566,16.566,0,0,0,1.071-3.468c1.644-8.481-2.564-16.459-9.38-17.785A10.3,10.3,0,0,0,71.393,5.79Z" transform="translate(-54.111 0.717)" fill="#707070"/><g transform="translate(19.082)"><path d="M68.171,9.284s1.947-2.628,4.057-2.3S76.24,9.831,76.24,9.831s-3.285-1.673-5.077-1.437c0,0,3.032,1.037,3.579,3.922A11.392,11.392,0,0,0,68.171,9.284Z" transform="translate(-62.225 1.998)" fill="#160c0a"/><path d="M71.86,6.853a2.516,2.516,0,0,1,.384.029c2.126.329,4,2.783,4.077,2.888l-.127.151a14.186,14.186,0,0,0-4.579-1.448,6.911,6.911,0,0,1,1.194.718A5.112,5.112,0,0,1,74.841,12.3l.061.32-.232-.229a11.367,11.367,0,0,0-6.5-3l-.189-.009.113-.152C68.161,9.127,69.869,6.853,71.86,6.853Zm4.006,2.685a7.168,7.168,0,0,0-3.654-2.455,2.314,2.314,0,0,0-.353-.027c-1.6,0-3.07,1.631-3.488,2.139a10.281,10.281,0,0,1,4.522,1.588,13.29,13.29,0,0,1,1.4,1.007c.112.092.2.167.272.229A5.741,5.741,0,0,0,71.13,8.49l.02-.2a2.97,2.97,0,0,1,.387-.024A12.4,12.4,0,0,1,75.866,9.538Z" transform="translate(-62.225 1.998)" fill="#707070"/><path d="M74.607,11.494c-1.947,3.191-5.33,4.673-7.558,3.314s-2.457-5.048-.51-8.24S70.9,1.324,74.1,3.254C77.513,5.315,76.55,8.3,74.607,11.494Z" transform="translate(-65.216 -2.506)" fill="#160c0a"/><path d="M68.911,15.414A3.62,3.62,0,0,1,67,14.894a4.232,4.232,0,0,1-1.869-3.513,8.514,8.514,0,0,1,1.325-4.866C68.14,3.749,69.853,2.4,71.689,2.4a4.781,4.781,0,0,1,2.461.763,4.386,4.386,0,0,1,2.209,2.684c.459,1.871-.649,4.026-1.665,5.7C73.261,13.9,70.991,15.414,68.911,15.414ZM71.689,2.607c-1.759,0-3.416,1.313-5.063,4.014a8.311,8.311,0,0,0-1.3,4.748A4.036,4.036,0,0,0,67.1,14.721a3.42,3.42,0,0,0,1.809.49c2.011,0,4.213-1.48,5.61-3.77,1-1.636,2.082-3.744,1.641-5.542a4.2,4.2,0,0,0-2.117-2.558A4.582,4.582,0,0,0,71.689,2.607Z" transform="translate(-65.216 -2.506)" fill="#707070"/></g><g transform="translate(3.252 5.358)"><path d="M83.706,24.331A29.531,29.531,0,0,1,82.424,28a9.419,9.419,0,0,1-3.84,1.2c0-.241-2.02-11.2-2.073-11.488,0,.363-9.6-2.828-17.414-2.2-.082-.057-.159-.114-.233-.167a4.24,4.24,0,0,1-1.086-1.2v0C55.42,10.084,63.19,4.129,71.8,5.329c.151.02.3.045.457.073.306.053.616.11.922.184A15.094,15.094,0,0,1,81.1,9.843C84.518,13.491,85.212,18.8,83.706,24.331Z" transform="translate(-57.35 -5.164)" fill="#291612"/><path d="M78.482,29.311V29.2c-.016-.3-1.8-10.01-2.051-11.359a14.867,14.867,0,0,1-1.919-.393,60.454,60.454,0,0,0-13.255-1.915c-.748,0-1.473.028-2.152.083l-.036,0-.03-.021c-.06-.042-.117-.083-.172-.124l-.061-.045A4.361,4.361,0,0,1,57.691,14.2l-.014-.028a3.566,3.566,0,0,1,.187-3.692,10.225,10.225,0,0,1,4.443-3.767,16.726,16.726,0,0,1,9.509-1.48c.148.02.3.044.461.074.294.051.611.109.928.185a15.19,15.19,0,0,1,7.972,4.286,12.433,12.433,0,0,1,3.173,6.589,18.712,18.712,0,0,1-.546,7.994,29.707,29.707,0,0,1-1.286,3.687l-.011.025-.022.016A9.38,9.38,0,0,1,78.593,29.3ZM76.61,17.693c.02.106,1.881,10.2,2.061,11.4a9.117,9.117,0,0,0,3.671-1.15A29.548,29.548,0,0,0,83.608,24.3c1.582-5.814.666-10.925-2.58-14.392a14.994,14.994,0,0,0-7.87-4.227c-.312-.075-.625-.132-.917-.183-.16-.029-.308-.053-.453-.073A16.523,16.523,0,0,0,62.4,6.891a10.025,10.025,0,0,0-4.356,3.686,3.37,3.37,0,0,0-.174,3.513l.014.028a4.174,4.174,0,0,0,1.046,1.151l.059.043.14.1c.675-.054,1.392-.081,2.132-.081a60.63,60.63,0,0,1,13.3,1.92,16.112,16.112,0,0,0,1.869.388.144.144,0,0,0,.03,0,.079.079,0,0,0-.049.074Z" transform="translate(-57.35 -5.164)" fill="#707070"/><path d="M81.1,9.835c-5.873-2.534-18.532-6.2-23.323,4.3C55.42,10.08,63.19,4.125,71.8,5.325c.151.02.3.045.457.073.306.053.616.11.922.184A15.091,15.091,0,0,1,81.1,9.835Z" transform="translate(-57.35 -5.168)" fill="#44331c"/><path d="M57.789,14.357l-.1-.169a3.561,3.561,0,0,1,.173-3.716A10.225,10.225,0,0,1,62.307,6.7a16.726,16.726,0,0,1,9.509-1.48c.149.02.3.044.461.074.294.051.611.109.928.185a15.179,15.179,0,0,1,7.972,4.282l-.114.162A31.485,31.485,0,0,0,69.367,7.194c-5.515,0-9.383,2.35-11.5,6.984ZM69.532,5.27A16.376,16.376,0,0,0,62.4,6.887a10.025,10.025,0,0,0-4.356,3.686,3.411,3.411,0,0,0-.268,3.338,11.534,11.534,0,0,1,4.943-5.4,13.859,13.859,0,0,1,6.652-1.516A31.2,31.2,0,0,1,80.682,9.547a15.234,15.234,0,0,0-7.524-3.866c-.312-.075-.625-.132-.917-.183-.16-.029-.308-.053-.453-.073A16.4,16.4,0,0,0,69.532,5.27Z" transform="translate(-57.35 -5.168)" fill="#707070"/></g><path d="M75.41,17.683c.269,1.4-1.286,2.889-3.469,3.31s-4.183-.38-4.453-1.783,1.286-2.889,3.469-3.31S75.141,16.279,75.41,17.683Z" transform="translate(-43.864 10.943)" fill="#f28f7c"/><path d="M72.112,15.688c1.806,0,3.172.794,3.4,1.976.28,1.46-1.312,3-3.549,3.428a6.212,6.212,0,0,1-1.18.115,4.64,4.64,0,0,1-2.248-.531,2.155,2.155,0,0,1-1.143-1.449c-.28-1.46,1.312-3,3.549-3.428A6.3,6.3,0,0,1,72.112,15.688Zm-1.331,5.317a6.009,6.009,0,0,0,1.141-.112c2.128-.41,3.648-1.841,3.389-3.191-.2-1.067-1.52-1.812-3.2-1.812A6.1,6.1,0,0,0,70.977,16c-2.127.41-3.647,1.841-3.388,3.191C67.793,20.259,69.106,21.005,70.781,21.005Z" transform="translate(-43.864 10.943)" fill="#707070"/></g><g transform="translate(121.23 50.257)"><path d="M75.995,24.975a6.182,6.182,0,0,1,4.644,2.012,80.132,80.132,0,0,1,6.8,8.778c6.126,8.807,8.325,13.3,6.411,15.794s-24.327,1.881-24.327,1.881L67.5,47.429,78.77,45.152S72.758,36.059,72,32.313C71.375,29.187,71.934,25.085,75.995,24.975Z" transform="translate(-50.44 -24.973)" fill="#f6a13c"/><path d="M76.141,24.872a6.309,6.309,0,0,1,4.572,2.046,80.371,80.371,0,0,1,6.808,8.79,63.415,63.415,0,0,1,6.231,10.284c1.093,2.576,1.15,4.365.178,5.629-1.262,1.642-10.856,1.986-18.682,1.986-3.276,0-5.7-.065-5.728-.066l-.071,0-2.079-6.188L78.6,45.082c-.726-1.111-6-9.267-6.7-12.749-.49-2.439-.156-4.682.895-6a4.01,4.01,0,0,1,3.193-1.458ZM75.248,53.4c11,0,17.576-.677,18.522-1.907.923-1.2.858-2.924-.2-5.426a63.255,63.255,0,0,0-6.211-10.248,80.181,80.181,0,0,0-6.79-8.767,6.105,6.105,0,0,0-4.424-1.982l-.143,0a3.816,3.816,0,0,0-3.04,1.381c-1.014,1.273-1.333,3.454-.855,5.835.743,3.684,6.692,12.712,6.752,12.8l.083.125-11.3,2.284L69.6,53.341C70.018,53.352,72.286,53.4,75.248,53.4Z" transform="translate(-50.44 -24.973)" fill="#707070"/><g transform="translate(0 16.579)"><path d="M78.261,45.039a10.5,10.5,0,0,1-5.077.375c-3.4-.392-4.208-2.669-4.208-2.669s-2.4.6-3.081-.269a1.022,1.022,0,0,1-.139-1.041,1.073,1.073,0,0,1,.1-.188,1.09,1.09,0,0,1-.424.139,1.376,1.376,0,0,1-1.1-.367c-.763-.653-.078-1.734-.02-1.824h0a1.242,1.242,0,0,1-.457.086,1.157,1.157,0,0,1-1.065-.747c-.543-1.106,2.33-2.616,2.559-2.738-.282.082-4.848,1.428-5.31,1.49-.478.057-1.424.037-.82-1.073s5.477-3.685,9.427-2.828,7.44,5.7,7.44,5.7Z" transform="translate(-59.024 -33.212)" fill="#f28f7c"/><path d="M75.03,45.624a16.632,16.632,0,0,1-1.857-.109A5.681,5.681,0,0,1,69.734,44a3.837,3.837,0,0,1-.819-1.141,7.687,7.687,0,0,1-1.556.183,1.893,1.893,0,0,1-1.544-.508,1.118,1.118,0,0,1-.171-1.092,1.316,1.316,0,0,1-.2.04,1.354,1.354,0,0,1-.174.011,1.526,1.526,0,0,1-1-.4,1.387,1.387,0,0,1-.163-1.738,1.385,1.385,0,0,1-.253.024,1.258,1.258,0,0,1-1.156-.8c-.41-.836.842-1.819,1.858-2.446-2.728.8-4.243,1.218-4.5,1.253a2.473,2.473,0,0,1-.293.018.824.824,0,0,1-.765-.307c-.129-.217-.084-.532.135-.934.548-1.018,4.322-3.053,7.837-3.053a8.048,8.048,0,0,1,1.7.174,11.969,11.969,0,0,1,5.249,3.2,21.375,21.375,0,0,1,2.252,2.539l.008.011,2.212,6.06-.086.039A8.581,8.581,0,0,1,75.03,45.624Zm-5.989-3,.031.087a3.486,3.486,0,0,0,.813,1.157A5.487,5.487,0,0,0,73.2,45.313a16.426,16.426,0,0,0,1.834.108,9.214,9.214,0,0,0,3.1-.44L76,39.128c-.19-.259-3.6-4.823-7.371-5.646a7.844,7.844,0,0,0-1.658-.169A12.9,12.9,0,0,0,62,34.447a6.442,6.442,0,0,0-2.691,1.812c-.18.331-.228.584-.139.734.1.172.378.208.591.208a2.267,2.267,0,0,0,.267-.017c.185-.025,1.219-.292,5.09-1.427l.2-.059.076.187-.014.007c-1.447.772-2.863,1.86-2.5,2.6a1.068,1.068,0,0,0,.974.69,1.132,1.132,0,0,0,.416-.077l.02-.009H64.5l-.1.156c-.116.183-.664,1.124,0,1.693a1.33,1.33,0,0,0,.87.353,1.153,1.153,0,0,0,.149-.01,1.009,1.009,0,0,0,.383-.123l.137.145a.992.992,0,0,0-.091.168.919.919,0,0,0,.126.938,1.743,1.743,0,0,0,1.384.43,7.666,7.666,0,0,0,1.593-.2Z" transform="translate(-59.024 -33.212)" fill="#707070"/><g transform="translate(4.831 2.404)"><path d="M61.885,37.989h0A11.675,11.675,0,0,1,67,34.712a.157.157,0,0,0-.082-.3,9.253,9.253,0,0,0-5.493,3.669Z" transform="translate(-61.424 -34.406)" fill="#ee756a"/><path d="M61.194,38.227l.147-.207a9.412,9.412,0,0,1,5.556-3.71.288.288,0,0,1,.058-.006.258.258,0,0,1,.076.5,11.5,11.5,0,0,0-5.067,3.249l-.03.034H61.9Zm5.761-3.72-.018,0a9.186,9.186,0,0,0-5.278,3.42l.178-.035a11.7,11.7,0,0,1,5.128-3.279.052.052,0,0,0,.042-.061A.053.053,0,0,0,66.956,34.507Z" transform="translate(-61.424 -34.406)" fill="#707070"/><path d="M67.168,35.753a10.538,10.538,0,0,0-4.632,3.383,1.073,1.073,0,0,1,.1-.188,1.09,1.09,0,0,1-.424.139,7.7,7.7,0,0,1,4.848-3.6C67.2,35.46,67.323,35.68,67.168,35.753Z" transform="translate(-60.626 -33.313)" fill="#ee756a"/><path d="M67.087,35.384a.265.265,0,0,1,.249.208.219.219,0,0,1-.125.253A10.312,10.312,0,0,0,62.617,39.2l-.124-.071a1.31,1.31,0,0,1-.268.062l-.211.026.112-.18a7.772,7.772,0,0,1,4.916-3.646A.229.229,0,0,1,67.087,35.384Zm-4.486,3.5a10.658,10.658,0,0,1,4.527-3.223c.013-.006.013-.011.011-.023-.006-.028-.034-.054-.057-.049a7.5,7.5,0,0,0-4.648,3.344.815.815,0,0,0,.149-.068Z" transform="translate(-60.626 -33.313)" fill="#707070"/></g></g></g><g transform="translate(63.947 49.512)"><rect width="97.465" height="3.746" transform="translate(4.265 28.645)" fill="#d88149"/><path d="M-.1-.1H97.566V3.848H-.1ZM97.363.1H.1V3.645H97.363Z" transform="translate(4.265 28.645)" fill="#707070"/><g transform="translate(10.195 25.699)"><rect width="58.972" height="2.951" fill="#3c303b"/><path d="M-.1-.1H59.073V3.052H-.1ZM58.87.1H.1V2.849H58.87Z" fill="#707070"/><rect width="18.744" height="2.951" transform="translate(40.231)" fill="#50414e"/><path d="M-.1-.1H18.846V3.052H-.1ZM18.643.1H.1V2.849H18.643Z" transform="translate(40.231)" fill="#707070"/><g transform="translate(42.26 0.873)"><rect width="4.677" height="1.2" transform="translate(1.93)" fill="#3c303b"/><path d="M-.1-.1h4.88V1.3H-.1ZM4.576.1H.1v1H4.576Z" transform="translate(1.93)" fill="#707070"/><rect width="4.677" height="1.2" transform="translate(10.068)" fill="#3c303b"/><path d="M-.1-.1h4.88V1.3H-.1ZM4.576.1H.1v1H4.576Z" transform="translate(10.068)" fill="#707070"/><path d="M57.751,38.374a.564.564,0,1,1-.563-.535A.551.551,0,0,1,57.751,38.374Z" transform="translate(-56.624 -37.774)" fill="#3c303b"/><path d="M57.187,37.738a.637.637,0,1,1-.665.636A.652.652,0,0,1,57.187,37.738Zm0,1.069a.434.434,0,1,0-.462-.433A.449.449,0,0,0,57.187,38.807Z" transform="translate(-56.624 -37.774)" fill="#707070"/></g></g><path d="M80.985,49.947l-1.608,1.241H36.493L30.559,26.268,32.118,24.6H76.063Z" transform="translate(-30.559 -24.603)" fill="#60515f"/><path d="M79.412,51.289h-43l-5.965-25.05L32.074,24.5H76.147L81.1,49.989Zm-42.839-.2h42.77L80.874,49.9,75.98,24.7H32.162L30.67,26.3Z" transform="translate(-30.559 -24.603)" fill="#707070"/><path d="M79.377,50.35H36.493L30.559,25.43H74.272Z" transform="translate(-30.559 -23.765)" fill="#50414e"/><path d="M79.5,50.451H36.413L30.431,25.329H74.354Zm-42.928-.2h42.68L74.189,25.532h-43.5Z" transform="translate(-30.559 -23.765)" fill="#707070"/><path d="M53.356,32.7c0,1.383-3.028,2.506-6.762,2.506s-6.762-1.122-6.762-2.506S42.859,30.2,46.593,30.2,53.356,31.32,53.356,32.7Z" transform="translate(-21.172 -18.938)" fill="#60515f"/><path d="M46.593,35.311a14.369,14.369,0,0,1-4.817-.74c-1.32-.489-2.047-1.152-2.047-1.867s.727-1.378,2.047-1.867a14.368,14.368,0,0,1,4.817-.74h.02a14.277,14.277,0,0,1,4.8.741c1.316.489,2.04,1.152,2.04,1.866s-.727,1.378-2.047,1.867A14.368,14.368,0,0,1,46.593,35.311Zm.02-5.012h-.02a14.164,14.164,0,0,0-4.746.728c-1.217.451-1.915,1.062-1.915,1.677s.7,1.226,1.915,1.677a14.164,14.164,0,0,0,4.746.728,14.164,14.164,0,0,0,4.746-.728c1.217-.451,1.915-1.062,1.915-1.677s-.7-1.225-1.908-1.676A14.073,14.073,0,0,0,46.613,30.3Z" transform="translate(-21.172 -18.938)" fill="#707070"/></g></g></g><g transform="translate(11.152 4.081)"><g transform="translate(0)" clip-path="url(#e)"><g transform="translate(138.247 24.283)"><path d="M79.377,20c-.322.947-1.963,1.249-3.665.677s-2.816-1.8-2.494-2.743,1.963-1.249,3.665-.677S79.7,19.057,79.377,20Z" transform="translate(-72.745 -7.103)" fill="#3f3744"/><path d="M77.388,21.067a5.453,5.453,0,0,1-1.709-.294,4.244,4.244,0,0,1-2.45-1.837,1.337,1.337,0,0,1-.107-1.035c.221-.648,1-1.035,2.084-1.035a5.453,5.453,0,0,1,1.709.294A4.24,4.24,0,0,1,79.365,19a1.34,1.34,0,0,1,.108,1.037C79.252,20.68,78.473,21.067,77.388,21.067Zm-2.181-4c-.979,0-1.7.344-1.893.9a1.141,1.141,0,0,0,.1.879,4.042,4.042,0,0,0,2.333,1.734,5.248,5.248,0,0,0,1.644.284c.979,0,1.7-.344,1.893-.9a1.143,1.143,0,0,0-.1-.882,4.037,4.037,0,0,0-2.332-1.732A5.248,5.248,0,0,0,75.207,17.07Z" transform="translate(-72.745 -7.103)" fill="#707070"/><path d="M84.672,15.27l-1.514,3.244-.216.465-.412.877-.212.461L81.9,21.2l-.212.461-.412.877L81.064,23l-.412.877-.216.465-.367.784-7.113-2.383.171-.853.1-.5.192-.955.1-.5.192-.959.1-.494.192-.959.1-.494.2-.955.1-.5.714-3.518Z" transform="translate(-72.955 -12.066)" fill="#605362"/><path d="M75.042,11.934l9.77,3.276L82.621,19.9l-.212.46-.417.882-.212.46-.412.878-.212.464-1.035,2.209-7.284-2.44.777-3.85.1-.494.192-.958.3-1.449.1-.5Zm9.49,3.4L75.195,12.2,74.5,15.6l-.1.5-.3,1.45-.192.958-.1.494-.741,3.675,6.943,2.326.957-2.045.212-.464.413-.878.212-.46.417-.882.212-.46.629-1.343Z" transform="translate(-72.955 -12.066)" fill="#707070"/><g transform="translate(0.171 3.518)"><path d="M82.478,16.745l-.216.465-8.636-2.9.1-.5Z" transform="translate(-72.447 -13.814)" fill="#3f3744"/><path d="M82.316,17.335,73.51,14.38l.137-.7,8.971,3Zm-8.573-3.09,8.465,2.84.13-.28L73.8,13.947Z" transform="translate(-72.447 -13.814)" fill="#707070"/><path d="M73.58,14.536,82,17.356l-.212.461L73.478,15.03Z" transform="translate(-72.597 -13.083)" fill="#3f3744"/><path d="M73.5,14.4,82.139,17.3l-.3.647L73.361,15.1Zm8.356,3.013-8.2-2.748-.061.294,8.138,2.73Z" transform="translate(-72.597 -13.083)" fill="#707070"/><path d="M81.519,17.968l-.212.461-7.974-2.677.1-.494Z" transform="translate(-72.745 -12.352)" fill="#3f3744"/><path d="M81.361,18.554,73.215,15.82l.143-.694,8.3,2.782Zm-7.911-2.87,7.8,2.62.127-.276-7.869-2.638Z" transform="translate(-72.745 -12.352)" fill="#707070"/><path d="M81.042,18.576l-.212.465-7.644-2.563.1-.5Z" transform="translate(-72.893 -11.622)" fill="#3f3744"/><path d="M80.885,19.166l-7.816-2.621.143-.7,7.969,2.668ZM73.3,16.41l7.472,2.505.128-.28-7.539-2.523Z" transform="translate(-72.893 -11.622)" fill="#707070"/><path d="M80.566,19.188l-.216.465L73.04,17.2l.1-.5Z" transform="translate(-73.04 -10.891)" fill="#3f3744"/><path d="M80.4,19.778l-7.48-2.51.143-.7,7.64,2.558Zm-7.246-2.645,7.138,2.4.13-.28-7.207-2.413Z" transform="translate(-73.04 -10.891)" fill="#707070"/></g></g><g transform="translate(138.447 13.449)"><path d="M89.252,17.578c-1.318,3.836-5.048,5.3-8.921,4.538-.163-.029-.326-.061-.49-.1-.314-.078-.629-.167-.943-.278a10.351,10.351,0,0,1-1.31-.535c-.155-.073-.31-.155-.457-.237-3.236-1.771-4.918-5-3.657-8.685A8.348,8.348,0,0,1,84.037,7.122,8.229,8.229,0,0,1,89.252,17.578Z" transform="translate(-73.055 -6.683)" fill="#f8ac50"/><path d="M82.286,22.413a10.245,10.245,0,0,1-1.975-.2c-.183-.032-.346-.066-.495-.1-.347-.086-.658-.177-.952-.28a10.411,10.411,0,0,1-1.321-.539c-.14-.066-.3-.147-.461-.239-3.488-1.909-4.907-5.283-3.7-8.806a8.462,8.462,0,0,1,15.564-.97,8.21,8.21,0,0,1,.406,6.333,6.809,6.809,0,0,1-2.765,3.613A7.88,7.88,0,0,1,82.286,22.413ZM81.361,6.784a8.216,8.216,0,0,0-7.79,5.529c-1.17,3.423.213,6.7,3.609,8.563.162.09.314.169.452.234a10.224,10.224,0,0,0,1.3.53c.289.1.594.191.935.275.144.036.3.069.483.1a10.05,10.05,0,0,0,1.938.194,6.9,6.9,0,0,0,6.87-4.665,8.009,8.009,0,0,0-.4-6.178A8.165,8.165,0,0,0,84,7.218,8.3,8.3,0,0,0,81.361,6.784Z" transform="translate(-73.055 -6.683)" fill="#707070"/><g transform="translate(3.378 5.739)"><path d="M84.018,13.65c-.449,1.351-2.33,2.726-4.412,3.236l-.979,2.338c-.163-.029-.326-.061-.49-.1l1.118-2.657.127-.029C81.317,16,83.149,14.7,83.557,13.5a1.366,1.366,0,0,0-.278-1.4,1.308,1.308,0,0,0-.943-.457c-1.4-.065-3.216,1.616-3.232,1.632l-.367.347-.049-.5c0-.02-.229-2.285-1.306-2.93a1.518,1.518,0,0,0-2.061.82c-.514,1.547,1.126,4.265,1.147,4.289l.049.086-.62,2.942c-.155-.073-.31-.155-.457-.237L76,15.466c-.29-.5-1.677-3-1.139-4.612a2.006,2.006,0,0,1,2.787-1.081c.963.571,1.343,2.073,1.477,2.845a5.556,5.556,0,0,1,3.249-1.461,1.762,1.762,0,0,1,1.29.628A1.867,1.867,0,0,1,84.018,13.65Z" transform="translate(-74.733 -9.535)" fill="#ffe29f"/><path d="M76.789,9.434a1.743,1.743,0,0,1,.907.252,4.166,4.166,0,0,1,1.494,2.746,5.41,5.41,0,0,1,3.185-1.376,1.859,1.859,0,0,1,1.361.664,1.963,1.963,0,0,1,.378,1.963c-.459,1.38-2.319,2.758-4.434,3.291l-.991,2.366-.08-.014c-.186-.032-.348-.066-.5-.1L78,19.192l1.184-2.814.177-.04c1.9-.433,3.7-1.695,4.1-2.872a1.267,1.267,0,0,0-.258-1.3,1.2,1.2,0,0,0-.872-.422l-.074,0c-1.341,0-3.064,1.59-3.081,1.606l-.519.49-.069-.708v-.011c-.044-.375-.311-2.277-1.256-2.842a1.034,1.034,0,0,0-.545-.151,1.63,1.63,0,0,0-.613.137,1.239,1.239,0,0,0-.755.78c-.488,1.467,1.074,4.1,1.132,4.2l.006.01.068.119-.655,3.106-.116-.055c-.142-.067-.3-.148-.463-.24l-.065-.036.562-2.659c-.425-.736-1.656-3.081-1.128-4.661a1.912,1.912,0,0,1,1.148-1.2A2.351,2.351,0,0,1,76.789,9.434Zm2.262,3.372-.03-.171A4.162,4.162,0,0,0,77.592,9.86a1.9,1.9,0,0,0-2.64,1.027c-.523,1.564.85,4.047,1.13,4.528l.02.034-.548,2.589c.094.051.184.1.27.141L76.41,15.4l-.03-.052h0c-.137-.221-1.668-2.829-1.156-4.371a1.432,1.432,0,0,1,.87-.9,1.828,1.828,0,0,1,.69-.152,1.248,1.248,0,0,1,.649.179c1.026.614,1.307,2.6,1.353,2.993l0,.014.029.3.217-.2c.015-.015,1.851-1.727,3.307-1.66a1.411,1.411,0,0,1,1.014.491,1.46,1.46,0,0,1,.3,1.5c-.42,1.238-2.286,2.558-4.249,3.005l-.076.017-1.052,2.5c.09.02.185.04.288.059l.968-2.311.05-.012c2.04-.5,3.905-1.863,4.34-3.17a1.768,1.768,0,0,0-.341-1.768,1.662,1.662,0,0,0-1.218-.593l-.11,0A5.631,5.631,0,0,0,79.186,12.7Z" transform="translate(-74.733 -9.535)" fill="#707070"/></g><path d="M74.578,9.746a4.889,4.889,0,0,1,1.551-1.481,7.363,7.363,0,0,1,6.644-.759c3.3,1.29-.906.139-4.081.951C75.843,9.179,73.321,11.677,74.578,9.746Z" transform="translate(-71.848 -6.34)" fill="#fed873"/><path d="M74.316,10.565a.16.16,0,0,1-.151-.082c-.055-.1-.02-.259.328-.792a4.967,4.967,0,0,1,1.583-1.512A7.9,7.9,0,0,1,80.242,6.92a7.062,7.062,0,0,1,2.567.491c1.184.463,1.291.565,1.265.7s-.183.151-.551.151c-.165,0-.369-.005-.6-.012-.321-.009-.685-.018-1.087-.018a12.711,12.711,0,0,0-3.115.318,14,14,0,0,0-3.389,1.525A3.181,3.181,0,0,1,74.316,10.565Zm5.926-3.442a7.7,7.7,0,0,0-4.06,1.228A4.766,4.766,0,0,0,74.663,9.8a2.628,2.628,0,0,0-.308.555,5.74,5.74,0,0,0,.873-.453,14.168,14.168,0,0,1,3.439-1.545,12.9,12.9,0,0,1,3.165-.324c.405,0,.77.01,1.093.018.234.006.436.012.6.012.126,0,.21,0,.267-.008A9.917,9.917,0,0,0,82.736,7.6,6.86,6.86,0,0,0,80.242,7.123Z" transform="translate(-71.848 -6.34)" fill="#707070"/></g></g></g><g transform="translate(5.397 0)"><g clip-path="url(#c)"><path d="M12.391-.619H164.624a3.407,3.407,0,0,1,3.4,3.4V78.309a3.407,3.407,0,0,1-3.4,3.4H12.391a3.407,3.407,0,0,1-3.4-3.4V2.789a3.4,3.4,0,0,1,3.4-3.407ZM164.624,81.51a3.2,3.2,0,0,0,3.2-3.2V2.784a3.2,3.2,0,0,0-3.2-3.2H12.391a3.2,3.2,0,0,0-3.2,3.2V78.309a3.2,3.2,0,0,0,3.2,3.2Z" transform="translate(13.283 3.558)" fill="#707070"/></g></g><g transform="translate(9.478 4.081)"><g opacity="0.5" clip-path="url(#c)"><path d="M7.044,5.877c2.187,0,3.579,1.269,3.579,3.253s-1.4,3.253-3.587,3.253H3.967v4.644H3.583V5.877ZM3.967,12.019H7.011c1.971,0,3.224-1.106,3.224-2.889S8.991,6.24,7.011,6.24H3.967Z" transform="translate(3.628 5.95)" fill="#f6f6f6"/><path d="M3.482,5.776H7.044c2.236,0,3.681,1.317,3.681,3.354s-1.448,3.354-3.689,3.354H4.068v4.644H3.482Zm3.554,6.505c2.118,0,3.486-1.237,3.486-3.151,0-1.944-1.333-3.151-3.478-3.151H3.685V16.925h.181V12.281ZM3.866,6.139H7.011c2.051,0,3.325,1.146,3.325,2.991a2.835,2.835,0,0,1-.907,2.189,3.562,3.562,0,0,1-2.419.8H3.866Zm3.146,5.779c1.926,0,3.123-1.068,3.123-2.788s-1.2-2.788-3.123-2.788H4.068v5.576Z" transform="translate(3.628 5.95)" fill="#707070"/><path d="M7.743,7.348H8.1V9.074h.016a2.328,2.328,0,0,1,3.134-1.685v.4a1.991,1.991,0,0,0-.9-.2c-1.375,0-2.224,1.212-2.224,2.9v5.179h-.38l0-8.317Z" transform="translate(7.839 7.315)" fill="#f6f6f6"/><path d="M10.412,7.124a2.388,2.388,0,0,1,.876.171l.062.026v.627L11.2,7.875a1.9,1.9,0,0,0-.852-.185c-1.27,0-2.123,1.124-2.123,2.8v5.28H7.645l0-8.52H8.2V8.558A2.292,2.292,0,0,1,10.412,7.124Zm.735.334a2.246,2.246,0,0,0-.735-.131A2.2,2.2,0,0,0,8.211,9.1l-.022.072H8V7.449H7.844l0,8.114h.177V10.486c0-1.794.935-3,2.326-3a2.185,2.185,0,0,1,.8.142Z" transform="translate(7.839 7.315)" fill="#707070"/><path d="M9.945,13.451c0-1.416,1-2.212,2.938-2.367l3.008-.229v-.747a2.32,2.32,0,0,0-2.514-2.526A2.518,2.518,0,0,0,10.61,9.77h-.363a2.856,2.856,0,0,1,3.13-2.543,2.665,2.665,0,0,1,2.889,2.857v5.579h-.38V13.77h0A3.277,3.277,0,0,1,12.7,15.786,2.462,2.462,0,0,1,9.945,13.451Zm5.942-.853V11.19l-2.947.224c-1.7.135-2.612.837-2.612,2.032a2.143,2.143,0,0,0,2.387,1.979A3.019,3.019,0,0,0,15.887,12.6Z" transform="translate(10.069 7.317)" fill="#f6f6f6"/><path d="M12.7,15.887c-1.679,0-2.852-1-2.852-2.436a2.111,2.111,0,0,1,.782-1.736,4.1,4.1,0,0,1,2.25-.733l2.914-.221v-.653a2.222,2.222,0,0,0-2.413-2.425,2.43,2.43,0,0,0-2.667,2.1l-.013.086h-.563l.013-.113a2.955,2.955,0,0,1,3.231-2.633,2.76,2.76,0,0,1,2.991,2.958v5.68h-.582V14.235A3.527,3.527,0,0,1,12.7,15.887Zm.682-8.406a2.629,2.629,0,0,1,1.918.7,2.657,2.657,0,0,1,.7,1.925v.841l-3.1.236c-1.887.151-2.845.914-2.845,2.266A2.36,2.36,0,0,0,12.7,15.684a3.2,3.2,0,0,0,3.091-1.947l.023-.069h.174l0,.1v1.792h.177V10.084a2.572,2.572,0,0,0-2.788-2.755,2.769,2.769,0,0,0-3.015,2.34h.162A2.617,2.617,0,0,1,13.377,7.481Zm-.661,8.047a2.235,2.235,0,0,1-2.489-2.081c0-.875.469-1.956,2.705-2.133l3.056-.233V12.6a2.765,2.765,0,0,1-.963,2.073A3.452,3.452,0,0,1,12.716,15.528Zm3.07-4.228-2.837.216c-1.149.091-2.518.5-2.518,1.931a2.042,2.042,0,0,0,2.286,1.878,3.25,3.25,0,0,0,2.174-.805,2.565,2.565,0,0,0,.9-1.922Z" transform="translate(10.069 7.317)" fill="#707070"/><path d="M20.285,9.793A2.829,2.829,0,0,0,17.4,7.581c-2,0-3.24,1.53-3.24,3.926s1.237,3.918,3.24,3.918a2.756,2.756,0,0,0,2.877-2.134h.384A3.1,3.1,0,0,1,17.4,15.784c-2.216,0-3.624-1.653-3.624-4.281S15.188,7.221,17.4,7.221a3.206,3.206,0,0,1,3.277,2.567S20.285,9.793,20.285,9.793Z" transform="translate(13.943 7.311)" fill="#f6f6f6"/><path d="M17.4,7.12a3.313,3.313,0,0,1,3.377,2.65l0,.009v.009c0,.1-.1.1-.16.1-.11,0-.329,0-.329,0H20.2l-.017-.081A2.721,2.721,0,0,0,17.4,7.682c-1.936,0-3.139,1.466-3.139,3.825s1.2,3.816,3.139,3.816a2.65,2.65,0,0,0,2.778-2.053l.017-.081h.587l-.021.119a2.971,2.971,0,0,1-1.117,1.863,3.617,3.617,0,0,1-2.243.714,3.441,3.441,0,0,1-2.72-1.191A4.859,4.859,0,0,1,13.67,11.5C13.67,8.84,15.133,7.12,17.4,7.12Zm3.154,2.57A3.122,3.122,0,0,0,17.4,7.323c-2.14,0-3.523,1.641-3.523,4.18,0,2.578,1.35,4.18,3.523,4.18a3,3,0,0,0,3.137-2.291h-.179A2.853,2.853,0,0,1,17.4,15.526a3.057,3.057,0,0,1-2.45-1.1,4.539,4.539,0,0,1-.892-2.922,4.548,4.548,0,0,1,.895-2.926,3.053,3.053,0,0,1,2.447-1.1,2.924,2.924,0,0,1,2.971,2.212Z" transform="translate(13.943 7.311)" fill="#707070"/><path d="M19.129,6.181V8.405h1.685v.351H19.129v6.154c0,1.057.38,1.469,1.261,1.469l.571-.008v.355l-.6.008c-1.118,0-1.616-.518-1.616-1.816V8.752H17.513V8.4H18.75V6.177S19.129,6.181,19.129,6.181Z" transform="translate(17.731 6.254)" fill="#f6f6f6"/><path d="M18.762,6.077c.024,0,.205,0,.367,0h.1V8.3h1.685v.554H19.231v6.053c0,.984.325,1.368,1.16,1.368l.358-.005.214,0h.1v.558h-.1l-.25,0-.346,0c-1.188,0-1.718-.591-1.718-1.917V8.854H17.412V8.3h1.237V6.177h.1Zm.266.206h-.177V8.5H17.615v.148h1.237v6.268c0,1.218.439,1.715,1.515,1.715l.343,0,.151,0v-.152l-.109,0-.361.005c-.955,0-1.362-.47-1.362-1.571V8.655h1.685V8.507H19.028Z" transform="translate(17.731 6.254)" fill="#707070"/><path d="M19.87,6.173a.375.375,0,1,1,.38.371A.372.372,0,0,1,19.87,6.173Zm.184,2.616h.38v8.317h-.38Z" transform="translate(20.117 5.874)" fill="#f6f6f6"/><path d="M20.249,5.7a.473.473,0,0,1,.473.473.477.477,0,0,1-.954,0A.472.472,0,0,1,20.249,5.7Zm0,.743a.274.274,0,0,0,.27-.27.274.274,0,0,0-.548,0A.274.274,0,0,0,20.249,6.443Zm-.3,2.245h.582v8.52h-.582Zm.38.2h-.177v8.114h.177Z" transform="translate(20.117 5.874)" fill="#707070"/><path d="M27.413,9.793a2.829,2.829,0,0,0-2.889-2.212c-2,0-3.24,1.53-3.24,3.926s1.237,3.918,3.24,3.918A2.756,2.756,0,0,0,27.4,13.29h.384a3.1,3.1,0,0,1-3.261,2.494c-2.216,0-3.624-1.653-3.624-4.281s1.416-4.281,3.624-4.281A3.206,3.206,0,0,1,27.8,9.789S27.413,9.793,27.413,9.793Z" transform="translate(21.16 7.311)" fill="#f6f6f6"/><path d="M24.524,7.12A3.313,3.313,0,0,1,27.9,9.77l.01.052-.038.038c-.034.034-.034.034-.459.034h-.083l-.017-.081a2.721,2.721,0,0,0-2.79-2.131c-1.936,0-3.139,1.466-3.139,3.825s1.2,3.816,3.139,3.816A2.65,2.65,0,0,0,27.3,13.27l.017-.081h.587l-.021.119a2.971,2.971,0,0,1-1.117,1.863,3.617,3.617,0,0,1-2.243.714,3.441,3.441,0,0,1-2.72-1.191A4.859,4.859,0,0,1,20.8,11.5C20.8,8.84,22.261,7.12,24.524,7.12Zm3.154,2.57a3.122,3.122,0,0,0-3.154-2.367C22.384,7.323,21,8.964,21,11.5c0,2.578,1.35,4.18,3.523,4.18a3,3,0,0,0,3.138-2.291h-.179a2.853,2.853,0,0,1-2.959,2.134,3.057,3.057,0,0,1-2.45-1.1,4.539,4.539,0,0,1-.892-2.922,4.548,4.548,0,0,1,.895-2.926,3.053,3.053,0,0,1,2.447-1.1,2.924,2.924,0,0,1,2.971,2.212Z" transform="translate(21.16 7.311)" fill="#707070"/><path d="M31.864,13.353a3.165,3.165,0,0,1-3.371,2.432c-2.232,0-3.681-1.575-3.681-4.281,0-2.583,1.437-4.281,3.62-4.281,2.118,0,3.538,1.616,3.538,4v.294H25.2v.016c0,2.473,1.314,3.9,3.3,3.9a2.773,2.773,0,0,0,2.967-2.081Zm-6.656-2.179h6.375c0-2.134-1.269-3.591-3.155-3.591C26.575,7.579,25.3,9.015,25.208,11.174Z" transform="translate(25.12 7.313)" fill="#f6f6f6"/><path d="M28.493,15.887c-2.333,0-3.783-1.679-3.783-4.382A4.837,4.837,0,0,1,25.726,8.33a3.426,3.426,0,0,1,2.706-1.208c2.177,0,3.64,1.65,3.64,4.1v.4H25.3c.029,2.292,1.25,3.711,3.2,3.711a2.67,2.67,0,0,0,2.868-2l.017-.081h.6l-.024.121A3.28,3.28,0,0,1,28.493,15.887Zm-.061-8.562c-2.137,0-3.519,1.641-3.519,4.18,0,2.578,1.372,4.18,3.58,4.18a3.1,3.1,0,0,0,3.245-2.23h-.188a2.536,2.536,0,0,1-.972,1.463,3.452,3.452,0,0,1-2.076.618c-2.1,0-3.4-1.532-3.4-4V11.42h6.771v-.192C31.869,8.893,30.488,7.325,28.432,7.325Zm3.252,3.951H25.1l0-.106A4.217,4.217,0,0,1,26.08,8.5a3.044,3.044,0,0,1,2.34-1.021h.008a3.04,3.04,0,0,1,2.36,1.03,3.963,3.963,0,0,1,.9,2.663Zm-6.369-.2H31.48c-.039-2.031-1.256-3.389-3.052-3.389H28.42C26.652,7.684,25.442,9.01,25.315,11.073Z" transform="translate(25.12 7.313)" fill="#707070"/></g></g></g></g></g><path d="M41,1A40.011,40.011,0,0,0,25.431,77.857,40.011,40.011,0,0,0,56.569,4.143,39.749,39.749,0,0,0,41,1m0-1A41,41,0,1,1,0,41,41,41,0,0,1,41,0Z" transform="translate(9254 2230)" fill="#69adcd"/></g></svg>