<svg xmlns="http://www.w3.org/2000/svg" xmlns:xlink="http://www.w3.org/1999/xlink" width="224" height="224" viewBox="0 0 224 224"><defs><clipPath id="a"><circle cx="112" cy="112" r="112" transform="translate(0)" fill="#8dc04e" stroke="#69adcd" stroke-width="4"/></clipPath><clipPath id="b"><rect width="457.724" height="222.967" stroke="#707070" stroke-width="0.203"/></clipPath><clipPath id="c"><rect width="483.616" height="227.783" stroke="#707070" stroke-width="0.203"/></clipPath><clipPath id="e"><rect width="437.908" height="204.015" stroke="#707070" stroke-width="0.203"/></clipPath></defs><g transform="translate(-9254 -2230)"><g transform="translate(9254 2230)" clip-path="url(#a)"><g transform="translate(-252.433 -11.198)"><g transform="translate(0 0)"><g transform="translate(25.892 11.148)"><g clip-path="url(#b)"><path d="M10.293-1H486.979a11.115,11.115,0,0,1,11.089,11.148V247.99a11.107,11.107,0,0,1-11.089,11.148H10.293A11.115,11.115,0,0,1-.795,247.99V10.151A11.144,11.144,0,0,1,10.293-1Z" transform="translate(-3.691 -4.487)" fill="#438ecc"/><path d="M10.293-1.1H486.979a11.089,11.089,0,0,1,7.912,3.292,11.206,11.206,0,0,1,3.278,7.958V247.99a11.209,11.209,0,0,1-3.274,7.958,11.089,11.089,0,0,1-7.916,3.292H10.293a11.089,11.089,0,0,1-7.912-3.292A11.206,11.206,0,0,1-.9,247.99V10.151A11.247,11.247,0,0,1,10.293-1.1ZM486.979,259.037a11.03,11.03,0,0,0,10.987-11.047V10.151A11.03,11.03,0,0,0,486.979-.9H10.293A11.044,11.044,0,0,0-.694,10.151V247.99a11.03,11.03,0,0,0,10.987,11.047Z" transform="translate(-3.691 -4.487)" fill="#707070"/></g></g><g transform="translate(7.052 11.148)"><g clip-path="url(#c)"><path d="M163.313,37.291c19.744-9.989,38.027-22.018,61.171-27.024C293.214-4.6,347.685,46.377,384.8,82.408c22.341,21.695,49.9,50.669,39.6,80.012-25.719,73.267-179,65.341-251.953,52.42-53.122-9.4-127.76-29.677-149.633-72.152C9.9,117.6,27.292,90.892,52.766,74.716c26.845-17.046,60.525-17.8,90.581-28.651A173.671,173.671,0,0,0,163.313,37.291Z" transform="translate(82.932 34.26)" fill="#f6f6f6"/><path d="M249.008,7.516a116.945,116.945,0,0,1,20.953,1.918,130.334,130.334,0,0,1,19.867,5.325,156.023,156.023,0,0,1,18.757,8.091,195.365,195.365,0,0,1,17.622,10.214A286.023,286.023,0,0,1,357.951,57.3c9.852,8.552,19.06,17.407,26.917,25.036,5.223,5.072,11.336,11.122,17.066,17.533a139.8,139.8,0,0,1,14.99,19.624,80.161,80.161,0,0,1,5.454,10.4,56.131,56.131,0,0,1,3.418,10.68,42.9,42.9,0,0,1,.874,10.883,39.347,39.347,0,0,1-2.178,11,61.371,61.371,0,0,1-8.674,16.286,71.9,71.9,0,0,1-13.044,13.32,98.833,98.833,0,0,1-16.744,10.6,143.392,143.392,0,0,1-19.777,8.121,241.1,241.1,0,0,1-46,9.8,416.3,416.3,0,0,1-50.16,2.832c-17.046,0-34.842-.851-52.892-2.53-15.511-1.443-30.995-3.5-44.778-5.936-15.089-2.669-29.463-5.787-42.723-9.267A347.275,347.275,0,0,1,85.87,191.261c-15.016-6.189-27.8-13.126-37.982-20.621a100.374,100.374,0,0,1-14.622-12.975A69.393,69.393,0,0,1,22.72,142.734a38.228,38.228,0,0,1-4.359-18.978,44.578,44.578,0,0,1,4.943-18.44A68.056,68.056,0,0,1,35.45,88.563,94.684,94.684,0,0,1,52.711,74.63a96.028,96.028,0,0,1,12.959-6.862,133.333,133.333,0,0,1,13.709-5.1c9.335-2.942,19.192-5.143,28.725-7.271,11.7-2.613,23.8-5.315,35.207-9.43A172.734,172.734,0,0,0,163.267,37.2c4.475-2.264,8.949-4.672,13.275-7,7.377-3.972,15.006-8.079,22.87-11.592a126.954,126.954,0,0,1,25.051-8.439A116.294,116.294,0,0,1,249.008,7.516ZM270.1,223.2c38.432,0,70.763-4.245,96.093-12.618,30.921-10.22,50.473-26.437,58.112-48.2,4.6-13.09,2.126-27.086-7.549-42.787-8.118-13.174-20.189-25.626-32.025-37.118-28.8-27.962-77.006-74.762-135.719-74.762a116.092,116.092,0,0,0-24.5,2.647c-17.883,3.868-33.126,12.074-47.867,20.011-4.327,2.33-8.8,4.739-13.279,7A172.937,172.937,0,0,1,143.38,46.16c-11.414,4.119-23.522,6.823-35.232,9.437-19.02,4.247-38.688,8.638-55.329,19.2C39.562,83.22,29.144,94.089,23.485,105.407c-6.367,12.732-6.569,25.607-.584,37.234,9.737,18.909,30.949,35.2,63.047,48.433,23.584,9.72,52.692,17.682,86.514,23.666A586.088,586.088,0,0,0,270.1,223.2Z" transform="translate(82.932 34.26)" fill="#707070"/></g></g><g transform="translate(0 11.148)"><g clip-path="url(#c)"><path d="M99.249,58.081C98.524,57.145,84.555,23.6,84.555,23.6s-6.533.346-10.814,11.906-20.48,62.1-20.48,62.1l15.675,9.777,9.733-4.025Z" transform="translate(246.228 106.134)" fill="#f18428"/><path d="M84.621,23.494l.028.066c.14.335,13.972,33.544,14.68,34.459l.037.048L78.745,103.433l-9.818,4.06L53.141,97.646l.024-.075c.162-.505,16.248-50.67,20.481-62.1a27.772,27.772,0,0,1,3.509-6.762,15.659,15.659,0,0,1,3.54-3.574A8.1,8.1,0,0,1,84.55,23.5Zm14.512,34.6c-1.027-1.7-13.766-32.278-14.643-34.383a8.4,8.4,0,0,0-3.693,1.6c-1.962,1.39-4.763,4.294-6.961,10.231C69.681,46.762,54.1,95.334,53.383,97.558l15.563,9.708,9.647-3.989Z" transform="translate(246.228 106.134)" fill="#707070"/><path d="M151.932,112.1H71.82S60.382,88.945,58.676,68.488c-1.182-14.092,0-39.777,3.523-41.706,1.527-.836,6.265-2.341,11.126-3.891.145,8.272,8.161,21.394,19.019,24.694,9.833,2.988,27.882-13.055,35.786-20.6,7.28,4.749,14.459,9.588,15.864,11.984C146.236,42.825,151.932,112.1,151.932,112.1Z" transform="translate(268.584 102.951)" fill="#f4952d"/><path d="M152.042,112.2H71.757l-.028-.056c-.029-.058-2.9-5.889-5.937-14.145-1.785-4.849-3.279-9.573-4.441-14.042A92.916,92.916,0,0,1,58.575,68.5a183,183,0,0,1,0-25.43c.391-5.6,1.375-15.168,3.578-16.374,1.513-.828,6.083-2.285,10.922-3.828l.352-.112,0,.136c.073,4.171,2.119,9.463,5.473,14.154,3.74,5.231,8.525,8.94,13.474,10.444a8.937,8.937,0,0,0,2.6.362c4.389,0,10.315-2.648,17.612-7.871A146.183,146.183,0,0,0,128.061,26.91l.058-.056.067.044c6.934,4.524,14.454,9.556,15.9,12.018.937,1.613,2.559,14.416,4.822,38.055,1.685,17.6,3.114,34.948,3.129,35.121ZM71.883,112h79.939c-.259-3.131-5.753-69.258-7.915-72.981-1.416-2.415-8.868-7.407-15.765-11.907A146.179,146.179,0,0,1,112.7,40.144c-7.332,5.248-13.3,7.909-17.73,7.909a9.139,9.139,0,0,1-2.655-.371c-4.992-1.517-9.815-5.253-13.58-10.52-3.341-4.673-5.393-9.943-5.508-14.133l-.093.03c-4.829,1.54-9.391,2.994-10.886,3.812-1.547.847-2.813,6.755-3.473,16.21a182.777,182.777,0,0,0,0,25.4c.88,10.556,4.4,21.842,7.206,29.451C68.859,105.743,71.581,111.379,71.883,112Z" transform="translate(268.584 102.951)" fill="#707070"/><g transform="translate(341.92 99.655)"><path d="M115.786,48.418c-7.9,7.536-25.942,23.59-35.786,20.6C69.141,65.72,61.125,52.587,60.98,44.326c5.106-1.661,10.357-3.367,12.286-4.448h.011c.457-.245.713-.468.747-.658.234-1.617-2.665-15.6-2.665-15.6l23.623-5.5a47.243,47.243,0,0,0,1.46,9.978c1.2,4.593,3.367,9.621,7.313,12.375C106.978,42.71,111.382,45.553,115.786,48.418Z" transform="translate(-60.98 -18.128)" fill="#f28f7c"/><path d="M82.626,69.488a9.151,9.151,0,0,1-2.656-.371c-4.991-1.517-9.814-5.254-13.58-10.525-3.377-4.725-5.437-10.057-5.511-14.264v-.075l.156-.051c5.051-1.643,10.273-3.342,12.182-4.413l.023-.013h.012c.549-.3.657-.487.673-.574.228-1.577-2.635-15.419-2.664-15.558l-.02-.1L95.082,18l0,.126a47.573,47.573,0,0,0,1.457,9.954c1.542,5.881,3.989,10.025,7.273,12.317,2.815,1.948,6.482,4.332,10.365,6.856l1.661,1.08.107.07-.093.088a147.46,147.46,0,0,1-15.5,13.083C93.026,66.825,87.06,69.488,82.626,69.488ZM61.083,44.4c.1,4.156,2.138,9.41,5.472,14.075,3.741,5.234,8.526,8.945,13.474,10.448a8.949,8.949,0,0,0,2.6.362c4.391,0,10.317-2.65,17.614-7.875a146.924,146.924,0,0,0,15.383-12.977l-1.554-1.01c-3.884-2.525-7.553-4.909-10.37-6.859-3.325-2.32-5.8-6.5-7.354-12.432a48.186,48.186,0,0,1-1.46-9.877L71.479,23.7c.278,1.343,2.872,13.972,2.646,15.535-.04.227-.3.465-.8.733l-.022.012h-.01c-1.945,1.081-7.156,2.776-12.2,4.416Z" transform="translate(-60.98 -18.128)" fill="#707070"/><path d="M65.535,39.22c.234-1.617-2.665-15.6-2.665-15.6l23.623-5.5a47.243,47.243,0,0,0,1.46,9.978C70.083,46.59,65.512,39.4,65.535,39.22Z" transform="translate(-52.48 -18.128)" fill="#ee756a"/><path d="M68.939,40.846a4.192,4.192,0,0,1-3.261-1.232c-.043-.049-.257-.3-.244-.406.229-1.583-2.634-15.424-2.663-15.563l-.02-.1L86.593,18l0,.126a47.572,47.572,0,0,0,1.457,9.954l.014.055-.04.041C77.9,38.648,72.059,40.846,68.939,40.846Zm-3.3-1.631c.09.222,1.029,1.429,3.3,1.429,3.077,0,8.852-2.181,18.9-12.567A48.209,48.209,0,0,1,86.4,18.255L62.99,23.7C63.266,25.038,65.839,37.564,65.638,39.214Z" transform="translate(-52.48 -18.128)" fill="#707070"/></g><g transform="translate(313.082 13.775)"><path d="M76.7,26.026c-1.36,3.668-7.09,4.928-12.8,2.821s-9.231-6.8-7.882-10.468,7.09-4.928,12.8-2.821S78.062,22.358,76.7,26.026Z" transform="translate(-55.734 51.605)" fill="#ee756a"/><path d="M69.377,29.969a16.122,16.122,0,0,1-5.508-1.027c-5.748-2.122-9.311-6.876-7.942-10.6a5.422,5.422,0,0,1,2.732-2.9,10.375,10.375,0,0,1,4.688-1.008,16.122,16.122,0,0,1,5.508,1.027c3.56,1.312,6.413,3.675,7.631,6.322a5.515,5.515,0,0,1,.311,4.277,5.422,5.422,0,0,1-2.732,2.9A10.376,10.376,0,0,1,69.377,29.969Zm-6.029-15.33c-3.6,0-6.367,1.446-7.23,3.775-1.33,3.617,2.179,8.255,7.822,10.338a15.917,15.917,0,0,0,5.438,1.014c3.6,0,6.367-1.446,7.23-3.775a5.317,5.317,0,0,0-.3-4.121c-1.2-2.6-4.006-4.923-7.517-6.217A15.917,15.917,0,0,0,63.347,14.639Z" transform="translate(-55.734 51.605)" fill="#707070"/><path d="M74.377,9.233,61.2,11.953s-7.681,18.863-2.3,31.483C62.894,52.79,74.377,9.233,74.377,9.233Z" transform="translate(-50.098 27.75)" fill="#291612"/><path d="M74.516,9.1l-.042.158c-.023.089-2.375,8.984-5.278,17.766a119.4,119.4,0,0,1-4.635,12.221c-1.753,3.774-3.161,5.609-4.3,5.609-.571,0-1.058-.464-1.448-1.378a26.921,26.921,0,0,1-1.921-10.282,50.462,50.462,0,0,1,1.044-10.251,67.527,67.527,0,0,1,3.173-11.028l.02-.05ZM60.258,44.651c1.322,0,3.913-3.069,8.746-17.689,2.688-8.131,4.9-16.361,5.233-17.6L61.273,12.042A67.813,67.813,0,0,0,58.13,22.986C57,28.713,56.225,36.9,59,43.4,59.351,44.229,59.776,44.651,60.258,44.651Z" transform="translate(-50.098 27.75)" fill="#707070"/><path d="M127,55.12a45.5,45.5,0,0,1-2.943,9.532c-7.759,18.1-29.465,29.8-45.6,26.667C59.637,87.662,54.32,65.231,58.868,41.875a52.513,52.513,0,0,1,3.322-10.8c7.4-17.247,23.222-27.927,38.964-24.861C119.95,9.868,131.522,31.764,127,55.12Z" transform="translate(-48.525 11.809)" fill="#f28f7c"/><path d="M83.9,91.927a28.768,28.768,0,0,1-5.468-.509,22.69,22.69,0,0,1-11.691-6.01A28.72,28.72,0,0,1,59.8,74.017a50.487,50.487,0,0,1-2.541-15.075,78.265,78.265,0,0,1,1.507-17.087A52.7,52.7,0,0,1,62.1,31.032,45.7,45.7,0,0,1,76.165,12.576a32.345,32.345,0,0,1,19.57-6.989,28.518,28.518,0,0,1,5.439.525,28.88,28.88,0,0,1,12.648,5.921,35.36,35.36,0,0,1,9.089,11.2,44.828,44.828,0,0,1,4.7,14.894,52.013,52.013,0,0,1-.516,17.014,45.628,45.628,0,0,1-2.95,9.553,41.853,41.853,0,0,1-7.062,11.077,48.912,48.912,0,0,1-9.923,8.6,48.241,48.241,0,0,1-11.49,5.572A37.957,37.957,0,0,1,83.9,91.927ZM95.734,5.79c-13.718,0-26.848,9.94-33.451,25.323a52.494,52.494,0,0,0-3.316,10.782C56.629,53.9,56.994,65.289,60,73.951c3.324,9.594,9.715,15.565,18.48,17.268a28.565,28.565,0,0,0,5.43.5c15.945,0,33.539-11.909,40.054-27.112A45.427,45.427,0,0,0,126.9,55.1c4.508-23.262-7.049-45.149-25.762-48.789A28.315,28.315,0,0,0,95.734,5.79Z" transform="translate(-48.525 11.809)" fill="#707070"/><g transform="translate(52.126)"><path d="M68.171,13.318s5.318-7.18,11.082-6.288,10.959,7.782,10.959,7.782-8.974-4.571-13.869-3.924c0,0,8.283,2.832,9.777,10.714C86.12,21.6,78.249,13.82,68.171,13.318Z" transform="translate(-51.927 17.5)" fill="#160c0a"/><path d="M78.247,6.853a6.7,6.7,0,0,1,1.021.078c3,.465,5.841,2.568,7.693,4.25a29.292,29.292,0,0,1,3.331,3.57l-.127.151c-.078-.04-7.864-3.976-12.8-3.976-.2,0-.4.007-.587.02a18.532,18.532,0,0,1,3.956,2.261,15.5,15.5,0,0,1,3.312,3.335,12.615,12.615,0,0,1,2.173,5.026.063.063,0,0,1,0,.023l.059.31-.232-.229a32.569,32.569,0,0,0-5.191-3.948A27.369,27.369,0,0,0,68.166,13.42l-.189-.009.113-.152a22.324,22.324,0,0,1,3.043-3.2C72.832,8.6,75.446,6.853,78.247,6.853Zm11.606,7.67a30.24,30.24,0,0,0-3.03-3.194c-1.831-1.663-4.634-3.741-7.585-4.2a6.5,6.5,0,0,0-.99-.076c-2.738,0-5.309,1.717-6.982,3.158a22.638,22.638,0,0,0-2.9,3.015,23.909,23.909,0,0,1,6.894,1.5,31.882,31.882,0,0,1,5.716,2.833A36.122,36.122,0,0,1,84.8,20.3c.464.382.818.7,1.033.892l.126.115a13.669,13.669,0,0,0-5.346-7.936,17.54,17.54,0,0,0-4.3-2.386l.02-.2a7.936,7.936,0,0,1,1.033-.064C81.7,10.724,88.18,13.715,89.853,14.523Z" transform="translate(-51.927 17.5)" fill="#707070"/><path d="M90.87,27.059c-5.318,8.718-14.56,12.765-20.647,9.052S63.512,22.321,68.83,13.6,80.736-.723,89.477,4.55C98.808,10.18,96.177,18.341,90.87,27.059Z" transform="translate(-65.216 -2.506)" fill="#160c0a"/><path d="M75.31,37.591A9.525,9.525,0,0,1,66.6,32.3a13.861,13.861,0,0,1-1.451-5.56,23.082,23.082,0,0,1,3.595-13.19,32.472,32.472,0,0,1,6.414-7.966A11.935,11.935,0,0,1,82.9,2.4a12.888,12.888,0,0,1,6.632,2.059,15.21,15.21,0,0,1,4.026,3.382,9.826,9.826,0,0,1,1.929,3.84,13.24,13.24,0,0,1-.583,7.377,39.485,39.485,0,0,1-3.943,8.048C87.074,33.477,80.932,37.591,75.31,37.591ZM82.9,2.607c-4.873,0-9.446,3.614-13.981,11.049a22.879,22.879,0,0,0-3.565,13.072c.261,4.217,2.01,7.519,4.925,9.3a9.517,9.517,0,0,0,5.033,1.363c5.553,0,11.627-4.075,15.474-10.382,2.737-4.5,5.723-10.3,4.5-15.272-.69-2.812-2.607-5.134-5.862-7.1A12.69,12.69,0,0,0,82.9,2.607Z" transform="translate(-65.216 -2.506)" fill="#707070"/></g><g transform="translate(8.885 14.638)"><path d="M129.345,57.507a80.668,80.668,0,0,1-3.5,10.034c-3.6,2.642-10.491,3.266-10.491,3.266,0-.658-5.519-30.6-5.663-31.383,0,.992-26.221-7.726-47.57-6-.223-.156-.435-.312-.635-.457a11.582,11.582,0,0,1-2.965-3.289V29.67C52.076,18.588,73.3,2.323,96.825,5.6c.412.056.825.123,1.249.2.836.145,1.683.3,2.52.5,9.487,2.163,16.645,6.243,21.639,11.628C131.564,27.9,133.459,42.39,129.345,57.507Z" transform="translate(-57.35 -5.15)" fill="#291612"/><path d="M115.253,70.918v-.111c0-.613-5.075-28.2-5.634-31.216a.82.82,0,0,1-.154.014,41.872,41.872,0,0,1-5.192-1.068C96.452,36.707,81.9,33.3,68.022,33.3c-2.049,0-4.032.076-5.894.227l-.036,0-.03-.021c-.163-.114-.318-.227-.469-.337l-.167-.121a11.73,11.73,0,0,1-2.994-3.32l-.014-.024V29.7a8.541,8.541,0,0,1-1.152-4.869,11.649,11.649,0,0,1,1.64-5.083,21.425,21.425,0,0,1,4.777-5.538,34.747,34.747,0,0,1,7.283-4.682,43.783,43.783,0,0,1,9.183-3.242A46.016,46.016,0,0,1,90.627,5.071a45.17,45.17,0,0,1,6.212.429c.4.055.813.12,1.253.2.8.139,1.666.3,2.525.5,9.152,2.086,16.45,6.009,21.69,11.657a33.792,33.792,0,0,1,8.624,17.909,45.292,45.292,0,0,1,.452,10.584,58.262,58.262,0,0,1-1.94,11.179,80.964,80.964,0,0,1-3.505,10.047l-.011.025-.022.016c-3.582,2.628-10.472,3.279-10.541,3.286ZM109.79,39.406c.055.3,5.379,29.171,5.654,31.29.857-.09,7.01-.811,10.318-3.221a80.8,80.8,0,0,0,3.485-9.995c4.338-15.943,1.821-29.964-7.089-39.48-5.211-5.619-12.474-9.521-21.587-11.6-.855-.205-1.713-.362-2.514-.5-.437-.081-.844-.146-1.245-.2A45.311,45.311,0,0,0,71.055,9.708c-5.5,2.681-9.754,6.281-11.973,10.139-2,3.482-2.167,6.861-.474,9.772l.014.024v.011a11.543,11.543,0,0,0,2.926,3.236l.165.12c.141.1.286.208.436.314,1.857-.149,3.833-.225,5.874-.225,13.9,0,28.468,3.409,36.3,5.241a43.468,43.468,0,0,0,5.146,1.063h0a.335.335,0,0,0,.143-.017.05.05,0,0,0-.019.039Z" transform="translate(-57.35 -5.15)" fill="#707070"/><path d="M122.232,17.916C106.19,10.992,71.608.97,58.52,29.666,52.076,18.584,73.3,2.319,96.825,5.6c.412.056.825.123,1.249.2.836.145,1.683.3,2.52.5C110.081,8.451,117.238,12.542,122.232,17.916Z" transform="translate(-57.35 -5.168)" fill="#44331c"/><path d="M58.53,29.886l-.1-.169a8.543,8.543,0,0,1-1.166-4.893,11.649,11.649,0,0,1,1.64-5.083A21.425,21.425,0,0,1,63.683,14.2a34.747,34.747,0,0,1,7.283-4.682,43.782,43.782,0,0,1,9.183-3.242A46.015,46.015,0,0,1,90.627,5.067a45.17,45.17,0,0,1,6.212.429c.4.055.813.12,1.253.2.8.139,1.666.3,2.525.5a48.6,48.6,0,0,1,12.529,4.61,35.931,35.931,0,0,1,9.16,7.036l-.114.162c-6.475-2.794-19.244-7.482-32.016-7.482-15.139,0-25.759,6.453-31.564,19.181ZM90.627,5.27A44.912,44.912,0,0,0,71.055,9.7c-5.5,2.681-9.754,6.281-11.973,10.139-1.964,3.414-2.16,6.729-.571,9.6a34.882,34.882,0,0,1,5.938-9.055,29.336,29.336,0,0,1,7.64-5.945,37.688,37.688,0,0,1,18.089-4.119c12.52,0,25.03,4.488,31.648,7.306-5.2-5.435-12.349-9.213-21.253-11.232-.855-.205-1.714-.362-2.514-.5-.437-.081-.844-.146-1.245-.2A44.968,44.968,0,0,0,90.627,5.27Z" transform="translate(-57.35 -5.168)" fill="#707070"/></g><path d="M89.18,20.963C89.916,24.8,85.669,28.856,79.7,30s-11.427-1.037-12.163-4.872,3.512-7.893,9.476-9.041C83,14.954,88.445,17.128,89.18,20.963Z" transform="translate(-3.006 57.236)" fill="#f28f7c"/><path d="M80.169,15.688a12.58,12.58,0,0,1,6.069,1.42,5.706,5.706,0,0,1,3.042,3.836c.747,3.893-3.54,8-9.556,9.16a16.794,16.794,0,0,1-3.19.312,12.5,12.5,0,0,1-6.054-1.426,5.719,5.719,0,0,1-3.037-3.838c-.747-3.893,3.54-8,9.557-9.16A17.039,17.039,0,0,1,80.169,15.688ZM76.533,30.213a16.591,16.591,0,0,0,3.152-.308c5.907-1.137,10.122-5.14,9.4-8.923a5.511,5.511,0,0,0-2.942-3.7,12.375,12.375,0,0,0-5.969-1.394,16.835,16.835,0,0,0-3.133.3c-5.906,1.137-10.121,5.14-9.4,8.923a5.524,5.524,0,0,0,2.938,3.7A12.294,12.294,0,0,0,76.533,30.213Z" transform="translate(-3.006 57.236)" fill="#707070"/></g><g transform="translate(331.164 137.287)"><path d="M90.7,24.978a16.886,16.886,0,0,1,12.687,5.5c3.568,3.824,9.543,10.97,18.573,23.98C138.7,78.513,144.7,90.8,139.476,97.6s-66.455,5.139-66.455,5.139L67.5,86.317,98.283,80.1S81.861,55.257,79.8,45.023C78.082,36.483,79.609,25.279,90.7,24.978Z" transform="translate(-20.893 -24.973)" fill="#f6a13c"/><path d="M91.1,24.872a17.058,17.058,0,0,1,12.362,5.533c3.439,3.686,9.455,10.841,18.582,23.991,9.036,12.992,14.28,21.646,17,28.062a25.819,25.819,0,0,1,2.352,8.909,9.349,9.349,0,0,1-1.843,6.293c-1.571,2.043-8.25,3.527-19.853,4.412-10.26.782-22.544.946-31.042.946-8.946,0-15.577-.177-15.643-.179l-.071,0-5.578-16.6,30.746-6.214c-.6-.92-4.412-6.752-8.389-13.578-2.535-4.35-4.641-8.247-6.261-11.583A45.286,45.286,0,0,1,79.7,45.043a28.154,28.154,0,0,1-.441-8.641,14.718,14.718,0,0,1,2.851-7.609,10.786,10.786,0,0,1,8.59-3.916C90.832,24.874,90.967,24.872,91.1,24.872Zm-2.439,77.944c17.432,0,47.2-.686,50.734-5.279,2.563-3.334,2.394-8.1-.534-15-2.717-6.4-7.955-15.046-16.983-28.025-9.121-13.141-15.13-20.288-18.564-23.969A16.854,16.854,0,0,0,91.1,25.075c-.132,0-.265,0-.4.005a10.593,10.593,0,0,0-8.437,3.84C79.466,32.436,78.58,38.449,79.9,45c1.063,5.273,6.026,14.516,10,21.342,4.312,7.4,8.425,13.632,8.466,13.695l.083.126L67.635,86.393l5.459,16.245C73.832,102.658,80.214,102.816,88.661,102.816Z" transform="translate(-20.893 -24.973)" fill="#707070"/><g transform="translate(0 45.29)"><path d="M111.575,65.52s-4.593,2.074-13.869,1.026c-9.287-1.07-11.494-7.291-11.494-7.291s-6.566,1.628-8.417-.736a2.793,2.793,0,0,1-.379-2.843,2.931,2.931,0,0,1,.279-.513,2.978,2.978,0,0,1-1.159.379,3.759,3.759,0,0,1-3-1c-2.085-1.784-.212-4.738-.056-4.983H73.47a3.394,3.394,0,0,1-1.249.234,3.162,3.162,0,0,1-2.91-2.04c-1.483-3.021,6.366-7.146,6.99-7.481-.769.223-13.244,3.9-14.5,4.069-1.3.156-3.891.1-2.241-2.932,1.628-3.021,14.961-10.067,25.753-7.726s20.324,15.563,20.324,15.563Z" transform="translate(-59.024 -33.212)" fill="#f28f7c"/><path d="M102.749,66.942a45.255,45.255,0,0,1-5.054-.3,17.814,17.814,0,0,1-5.747-1.6,13.264,13.264,0,0,1-3.543-2.475,10,10,0,0,1-2.256-3.2,21.276,21.276,0,0,1-4.355.529c-2.02,0-3.392-.444-4.079-1.321a2.876,2.876,0,0,1-.394-2.942c.036-.085.074-.162.109-.229a3.367,3.367,0,0,1-.882.233,3.531,3.531,0,0,1-.455.03,4,4,0,0,1-2.623-1.056c-1.84-1.574-.721-4-.219-4.876a3.634,3.634,0,0,1-1.03.151,3.271,3.271,0,0,1-3-2.1c-1.244-2.535,3.725-5.752,6.221-7.168-8.3,2.43-12.883,3.713-13.631,3.812a6.573,6.573,0,0,1-.777.049,2.126,2.126,0,0,1-1.939-.752c-.319-.537-.194-1.337.373-2.378.759-1.409,3.785-3.466,7.53-5.117a35.611,35.611,0,0,1,13.723-3.13,21.808,21.808,0,0,1,4.61.471,23.713,23.713,0,0,1,7.757,3.438,44.441,44.441,0,0,1,6.5,5.252,58.19,58.19,0,0,1,6.131,6.913l.008.011L111.7,65.573l-.086.039C111.587,65.625,108.6,66.942,102.749,66.942ZM86.277,59.134l.031.087a9.664,9.664,0,0,0,2.249,3.214,15.151,15.151,0,0,0,9.162,4.01,45.05,45.05,0,0,0,5.031.3,24.471,24.471,0,0,0,8.7-1.276l-5.9-16.172a58.192,58.192,0,0,0-6.1-6.877c-3.4-3.272-8.608-7.425-14.153-8.635a21.606,21.606,0,0,0-4.567-.466A35.4,35.4,0,0,0,67.08,36.425c-3.649,1.609-6.706,3.677-7.434,5.028-.53.974-.657,1.707-.377,2.177.321.54,1.137.653,1.765.653a6.365,6.365,0,0,0,.752-.047c.512-.068,3.346-.8,13.93-3.9l.558-.163.076.187-.038.02a29.833,29.833,0,0,0-4.326,2.776,10.141,10.141,0,0,0-2.237,2.294A2.24,2.24,0,0,0,69.4,47.7a3.081,3.081,0,0,0,2.819,1.983,3.289,3.289,0,0,0,1.207-.225l.02-.009h.217l-.1.156c-.332.521-1.889,3.2.036,4.852a3.8,3.8,0,0,0,2.491,1.008,3.331,3.331,0,0,0,.429-.028,2.914,2.914,0,0,0,1.117-.364l.137.144a2.867,2.867,0,0,0-.268.493,2.681,2.681,0,0,0,.366,2.741c.646.825,1.964,1.243,3.919,1.243a21.12,21.12,0,0,0,4.394-.543Z" transform="translate(-59.024 -33.212)" fill="#707070"/><g transform="translate(13.198 6.566)"><path d="M62.684,44.194H62.7a31.894,31.894,0,0,1,13.958-8.952.428.428,0,0,0-.223-.825A25.278,25.278,0,0,0,61.424,44.44Z" transform="translate(-61.424 -34.406)" fill="#ee756a"/><path d="M61.194,44.588l.147-.207a26.315,26.315,0,0,1,6.634-6.441,23.424,23.424,0,0,1,8.435-3.622.613.613,0,0,1,.124-.013.529.529,0,0,1,.151,1.033,31.584,31.584,0,0,0-13.915,8.924l-.03.034h-.047Zm15.34-10.08a.412.412,0,0,0-.084.009,25.3,25.3,0,0,0-14.795,9.775l.989-.192a29.634,29.634,0,0,1,6.294-5.331,37.069,37.069,0,0,1,7.681-3.621.326.326,0,0,0-.085-.639Z" transform="translate(-61.424 -34.406)" fill="#707070"/><path d="M75.747,36.217c-5.184,2.219-9.42,4.861-12.653,9.242a2.932,2.932,0,0,1,.279-.513,2.977,2.977,0,0,1-1.159.379c2.943-4.738,7.748-8.8,13.244-9.833C75.848,35.415,76.171,36.017,75.747,36.217Z" transform="translate(-57.876 -29.551)" fill="#ee756a"/><path d="M75.527,35.384a.546.546,0,0,1,.51.432.423.423,0,0,1-.246.493c-5.962,2.552-9.734,5.306-12.615,9.211l-.175-.1c.036-.084.073-.16.107-.226a3.366,3.366,0,0,1-.882.233l-.211.026.112-.18c3.246-5.226,8.222-8.919,13.312-9.879A.455.455,0,0,1,75.527,35.384ZM63.374,44.921a24.14,24.14,0,0,1,5.256-4.977,38.1,38.1,0,0,1,7.077-3.82.217.217,0,0,0,.131-.263.35.35,0,0,0-.312-.274.255.255,0,0,0-.05,0c-4.974.938-9.841,4.52-13.059,9.6a2.809,2.809,0,0,0,.9-.329Z" transform="translate(-57.876 -29.551)" fill="#707070"/></g></g></g><g transform="translate(174.684 135.252)"><rect width="266.245" height="10.234" transform="translate(11.65 78.25)" fill="#d88149"/><path d="M-.1-.1H266.347V10.336H-.1ZM266.144.1H.1V10.133H266.144Z" transform="translate(11.65 78.25)" fill="#707070"/><g transform="translate(27.849 70.201)"><rect width="161.094" height="8.06" fill="#3c303b"/><path d="M-.1-.1H161.2V8.162H-.1ZM160.992.1H.1V7.959H160.992Z" fill="#707070"/><rect width="51.204" height="8.06" transform="translate(109.901)" fill="#50414e"/><path d="M-.1-.1H51.306V8.162H-.1ZM51.1.1H.1V7.959h51Z" transform="translate(109.901)" fill="#707070"/><g transform="translate(115.441 2.386)"><rect width="12.776" height="3.278" transform="translate(5.273)" fill="#3c303b"/><path d="M-.1-.1H12.877v3.48H-.1ZM12.675.1H.1V3.176H12.675Z" transform="translate(5.273)" fill="#707070"/><rect width="12.776" height="3.278" transform="translate(27.503)" fill="#3c303b"/><path d="M-.1-.1H12.877v3.48H-.1ZM12.675.1H.1V3.176H12.675Z" transform="translate(27.503)" fill="#707070"/><path d="M59.7,39.3a1.541,1.541,0,1,1-1.539-1.46A1.505,1.505,0,0,1,59.7,39.3Z" transform="translate(-56.624 -37.661)" fill="#3c303b"/><path d="M58.163,37.738a1.564,1.564,0,1,1-1.64,1.562A1.6,1.6,0,0,1,58.163,37.738Zm0,2.921A1.361,1.361,0,1,0,56.726,39.3,1.4,1.4,0,0,0,58.163,40.659Z" transform="translate(-56.624 -37.661)" fill="#707070"/></g></g><path d="M168.308,93.834l-4.392,3.389H46.769L30.559,29.152,34.818,24.6H154.863Z" transform="translate(-30.559 -24.603)" fill="#60515f"/><path d="M163.95,97.325H46.689l-.019-.078L30.448,29.122l4.326-4.62H154.947l.016.082L168.42,93.876Zm-117.1-.2H163.881l4.316-3.33L154.78,24.7H34.862L30.67,29.181Z" transform="translate(-30.559 -24.603)" fill="#707070"/><path d="M163.916,93.5H46.769L30.559,25.43h119.41Z" transform="translate(-30.559 -20.882)" fill="#50414e"/><path d="M164.04,93.6H46.689l-.019-.078-16.239-68.2H150.052l.017.081ZM46.849,93.4H163.792L149.887,25.532H30.687Z" transform="translate(-30.559 -20.882)" fill="#707070"/><path d="M76.776,37.043c0,3.779-8.272,6.845-18.473,6.845s-18.473-3.066-18.473-6.845S48.1,30.2,58.3,30.2,76.776,33.264,76.776,37.043Z" transform="translate(11.14 0.56)" fill="#60515f"/><path d="M58.3,43.99a39.074,39.074,0,0,1-13.1-2.012c-3.532-1.309-5.477-3.061-5.477-4.935s1.945-3.626,5.477-4.935A39.074,39.074,0,0,1,58.3,30.1h.055a38.824,38.824,0,0,1,13.06,2.014c3.52,1.31,5.459,3.061,5.459,4.932s-1.945,3.626-5.477,4.935A39.073,39.073,0,0,1,58.3,43.99Zm.055-13.69H58.3a38.869,38.869,0,0,0-13.027,2,12.666,12.666,0,0,0-3.928,2.157,3.511,3.511,0,0,0-1.417,2.588,3.511,3.511,0,0,0,1.417,2.588,12.666,12.666,0,0,0,3.928,2.157,38.869,38.869,0,0,0,13.026,2,38.869,38.869,0,0,0,13.026-2,12.666,12.666,0,0,0,3.928-2.157,3.511,3.511,0,0,0,1.417-2.588,3.512,3.512,0,0,0-1.412-2.585A12.623,12.623,0,0,0,71.348,32.3,38.619,38.619,0,0,0,58.359,30.3Z" transform="translate(11.14 0.56)" fill="#707070"/></g></g></g><g transform="translate(30.463 11.148)"><g transform="translate(0)" clip-path="url(#e)"><g transform="translate(377.651 66.333)"><path d="M90.137,25.249c-.881,2.586-5.362,3.411-10.011,1.851s-7.692-4.916-6.812-7.492,5.362-3.411,10.011-1.851S91.018,22.674,90.137,25.249Z" transform="translate(-72.021 9.98)" fill="#3f3744"/><path d="M84.705,27.99a14.719,14.719,0,0,1-4.612-.794c-3.076-1.035-5.6-2.924-6.591-4.929a3.483,3.483,0,0,1-.285-2.692,3.568,3.568,0,0,1,1.967-2.017,8.44,8.44,0,0,1,3.561-.692,14.718,14.718,0,0,1,4.612.794c3.075,1.032,5.6,2.919,6.59,4.922a3.49,3.49,0,0,1,.286,2.7A3.568,3.568,0,0,1,88.266,27.3,8.44,8.44,0,0,1,84.705,27.99ZM78.746,17.07a8.239,8.239,0,0,0-3.474.672,3.372,3.372,0,0,0-1.862,1.9,3.286,3.286,0,0,0,.275,2.537c.966,1.958,3.447,3.808,6.473,4.826a14.514,14.514,0,0,0,4.547.784,8.239,8.239,0,0,0,3.474-.672,3.372,3.372,0,0,0,1.862-1.9,3.293,3.293,0,0,0-.276-2.543c-.966-1.957-3.446-3.8-6.472-4.82A14.514,14.514,0,0,0,78.746,17.07Z" transform="translate(-72.021 9.98)" fill="#707070"/><path d="M104.962,20.818l-4.136,8.863-.591,1.271-1.126,2.4-.58,1.26-1.137,2.408-.58,1.26-1.126,2.4-.58,1.271-1.126,2.4-.591,1.271-1,2.14L72.955,41.242l.468-2.33.279-1.36.524-2.609.279-1.36.524-2.62.279-1.349.524-2.62.279-1.349.535-2.609.268-1.36,1.951-9.61Z" transform="translate(-72.955 -12.066)" fill="#605362"/><path d="M78.787,11.934,105.1,20.758l-4.775,10.237-1.126,2.4-.579,1.259L97.484,37.06,96.9,38.318l-1.126,2.4-.579,1.27-1.126,2.4-.591,1.271L92.44,47.877l-19.6-6.568.486-2.418.279-1.36.524-2.608.279-1.36.524-2.619.279-1.35.524-2.619.279-1.35.535-2.609.267-1.359Zm26.035,8.944L78.94,12.2l-1.928,9.5-.267,1.359-.814,3.959-.524,2.619-.279,1.35L74.6,33.6l-.279,1.361L73.8,37.571l-.279,1.36-.451,2.242,19.261,6.454.965-2.059.591-1.271,1.126-2.4.579-1.27,1.126-2.4.579-1.259,1.138-2.409.579-1.259,1.126-2.4.591-1.271Z" transform="translate(-72.955 -12.066)" fill="#707070"/><g transform="translate(0.468 9.61)"><path d="M97.807,21.819l-.591,1.271-23.59-7.915.268-1.36Z" transform="translate(-70.405 -13.814)" fill="#3f3744"/><path d="M97.27,23.215,73.51,15.242l.307-1.561,24.13,8.077ZM73.743,15.107l23.42,7.858.5-1.086-23.7-7.932Z" transform="translate(-70.405 -13.814)" fill="#707070"/><path d="M73.757,14.536l23,7.7-.58,1.26-22.7-7.614Z" transform="translate(-71.07 -10.567)" fill="#3f3744"/><path d="M73.681,14.4,96.9,22.18l-.665,1.445-22.87-7.672Zm22.936,7.9L73.833,14.669,73.6,15.818l22.527,7.557Z" transform="translate(-71.07 -10.567)" fill="#707070"/><path d="M95.7,22.661l-.58,1.26L73.332,16.607l.279-1.349Z" transform="translate(-71.727 -7.321)" fill="#3f3744"/><path d="M95.17,24.046,73.215,16.675l.32-1.549,22.3,7.475ZM73.45,16.54,95.062,23.8l.494-1.074-21.869-7.33Z" transform="translate(-71.727 -7.321)" fill="#707070"/><path d="M94.647,23.071l-.58,1.271-20.881-7,.279-1.36Z" transform="translate(-72.384 -4.074)" fill="#3f3744"/><path d="M94.122,24.467,73.069,17.408l.32-1.56,21.4,7.162ZM73.3,17.273l20.709,6.944.5-1.085L73.541,16.113Z" transform="translate(-72.384 -4.074)" fill="#707070"/><path d="M93.6,23.491l-.591,1.271-19.967-6.7.279-1.36Z" transform="translate(-73.04 -0.827)" fill="#3f3744"/><path d="M93.061,24.887,72.923,18.13l.32-1.56,20.495,6.862Zm-19.9-6.893,19.8,6.643.5-1.086L73.4,16.835Z" transform="translate(-73.04 -0.827)" fill="#707070"/></g></g><g transform="translate(378.198 36.739)"><path d="M117.3,36.444c-3.6,10.479-13.791,14.482-24.37,12.4-.446-.078-.892-.167-1.338-.279-.858-.212-1.717-.457-2.575-.758a28.277,28.277,0,0,1-3.579-1.46c-.424-.2-.847-.424-1.249-.647C75.351,40.859,70.758,32.051,74.2,21.973A22.8,22.8,0,0,1,103.054,7.882,22.479,22.479,0,0,1,117.3,36.444Z" transform="translate(-73.055 -6.683)" fill="#f8ac50"/><path d="M98.273,49.476a27.809,27.809,0,0,1-5.361-.535c-.5-.087-.94-.179-1.343-.28-.942-.232-1.787-.481-2.584-.761a28.284,28.284,0,0,1-3.59-1.465c-.382-.181-.8-.4-1.253-.649A21.656,21.656,0,0,1,74.5,35.841a17.59,17.59,0,0,1-1.532-6.586,20.312,20.312,0,0,1,1.141-7.315,22.461,22.461,0,0,1,8.46-11.215,23.033,23.033,0,0,1,28.416,1.619,22.6,22.6,0,0,1,5.316,6.966,22.316,22.316,0,0,1,1.1,17.166,19.729,19.729,0,0,1-3.052,5.718,17.909,17.909,0,0,1-4.43,4.06A21.351,21.351,0,0,1,98.273,49.476ZM95.744,6.784A22.619,22.619,0,0,0,74.3,22.006c-3.226,9.437.584,18.48,9.942,23.6.446.248.864.464,1.243.644a28.1,28.1,0,0,0,3.567,1.456c.793.278,1.632.525,2.567.756.4.1.833.19,1.331.277a27.614,27.614,0,0,0,5.324.532c9.088,0,16.166-4.808,18.933-12.862a22.051,22.051,0,0,0-1.09-17.011A22.48,22.48,0,0,0,103.022,7.978,22.839,22.839,0,0,0,95.744,6.784Z" transform="translate(-73.055 -6.683)" fill="#707070"/><g transform="translate(9.229 15.678)"><path d="M100.1,20.775c-1.226,3.69-6.366,7.447-12.051,8.841L85.37,36c-.446-.078-.892-.167-1.338-.279l3.055-7.258.346-.078c5.284-1.2,10.29-4.738,11.4-8.027a3.733,3.733,0,0,0-.758-3.824A3.573,3.573,0,0,0,95.5,15.29c-3.835-.178-8.785,4.415-8.83,4.459l-1,.948-.134-1.371c-.011-.056-.624-6.243-3.567-8a3.624,3.624,0,0,0-3.411-.056,3.654,3.654,0,0,0-2.219,2.3c-1.4,4.225,3.077,11.65,3.133,11.717l.134.234-1.695,8.038c-.424-.2-.847-.424-1.249-.647l1.516-7.168c-.792-1.36-4.582-8.194-3.11-12.6a4.96,4.96,0,0,1,2.977-3.11,4.974,4.974,0,0,1,4.638.156c2.631,1.561,3.668,5.663,4.036,7.77,1.75-1.438,5.53-4.169,8.874-3.991a4.814,4.814,0,0,1,3.523,1.717A5.1,5.1,0,0,1,100.1,20.775Z" transform="translate(-74.733 -9.535)" fill="#ffe29f"/><path d="M80.349,9.434a4.589,4.589,0,0,1,2.387.663c2.57,1.525,3.636,5.386,4.053,7.67,1.864-1.512,5.323-3.913,8.489-3.913.108,0,.216,0,.321.008a4.907,4.907,0,0,1,3.595,1.752,5.193,5.193,0,0,1,1,5.192,11.781,11.781,0,0,1-4.39,5.332A22.388,22.388,0,0,1,88.12,29.7l-2.687,6.416-.08-.014c-.5-.088-.942-.18-1.345-.28l-.115-.029,3.121-7.415.4-.09c5.246-1.2,10.223-4.692,11.331-7.96A3.628,3.628,0,0,0,98,16.6a3.49,3.49,0,0,0-2.5-1.214c-.069,0-.141,0-.214,0-3.734,0-8.492,4.391-8.538,4.435l-1.155,1.091-.154-1.577h0l0-.032c-.122-1.04-.864-6.309-3.515-7.9a3,3,0,0,0-1.579-.436,4.625,4.625,0,0,0-1.742.387,3.552,3.552,0,0,0-2.161,2.235c-1.378,4.144,3.026,11.48,3.117,11.623l.008.011.153.268-1.729,8.2-.116-.055c-.384-.182-.806-.4-1.254-.65l-.065-.036,1.524-7.2a32.45,32.45,0,0,1-2.392-5.141c-1.1-3.1-1.337-5.621-.707-7.506a5.054,5.054,0,0,1,3.035-3.172A6.249,6.249,0,0,1,80.349,9.434Zm6.3,8.71-.03-.171c-.388-2.223-1.422-6.179-3.988-7.7a4.39,4.39,0,0,0-2.283-.635,6.049,6.049,0,0,0-2.264.486,4.859,4.859,0,0,0-2.919,3.049c-.615,1.841-.378,4.322.706,7.374a32.232,32.232,0,0,0,2.4,5.14l.02.034-1.509,7.133c.376.208.732.393,1.061.552L79.5,25.53l-.114-.2a31.078,31.078,0,0,1-2.121-4.313c-.872-2.193-1.757-5.272-1.021-7.487a3.744,3.744,0,0,1,2.277-2.359,4.823,4.823,0,0,1,1.819-.4,3.237,3.237,0,0,1,1.683.465c2.732,1.635,3.488,6.989,3.612,8.045l0,.03v0h0l.114,1.165.853-.806a24.71,24.71,0,0,1,2.909-2.259c1.533-1.019,3.779-2.233,5.77-2.233.076,0,.151,0,.225.005a3.685,3.685,0,0,1,2.646,1.283,3.821,3.821,0,0,1,.778,3.923c-1.129,3.329-6.17,6.884-11.478,8.094l-.295.067-2.988,7.1c.345.083.718.16,1.136.235l2.664-6.36.05-.012a22.181,22.181,0,0,0,7.662-3.542A11.583,11.583,0,0,0,100,20.743a5,5,0,0,0-.962-5,4.711,4.711,0,0,0-3.451-1.681c-.1-.005-.206-.008-.31-.008-3.18,0-6.686,2.491-8.494,3.976Z" transform="translate(-74.733 -9.535)" fill="#707070"/></g><path d="M75.152,14.465a13.355,13.355,0,0,1,4.236-4.047c3.389-2.085,10.123-5.2,18.15-2.074,9.019,3.523-2.475.379-11.148,2.6C78.608,12.915,71.719,19.738,75.152,14.465Z" transform="translate(-67.695 -5.161)" fill="#fed873"/><path d="M74.436,16.526a.267.267,0,0,1-.257-.131c-.11-.2,0-.619.888-1.985a13.394,13.394,0,0,1,4.268-4.078A21.419,21.419,0,0,1,90.625,6.92a19.117,19.117,0,0,1,6.95,1.33c2.909,1.136,3.4,1.463,3.346,1.728-.039.2-.362.27-1.333.27-.45,0-1-.015-1.645-.032-.878-.024-1.873-.05-2.975-.05a34.89,34.89,0,0,0-8.554.874,38.39,38.39,0,0,0-9.3,4.183A9.444,9.444,0,0,1,74.436,16.526Zm16.189-9.4A21.22,21.22,0,0,0,79.442,10.5a13.193,13.193,0,0,0-4.2,4.016c-.831,1.277-.937,1.671-.879,1.778.009.017.035.025.079.025a10.36,10.36,0,0,0,2.577-1.276,38.558,38.558,0,0,1,9.351-4.2,35.085,35.085,0,0,1,8.6-.88c1.1,0,2.1.027,2.98.05.64.017,1.193.032,1.639.032.867,0,1.083-.064,1.131-.107-.017-.037-.122-.165-.754-.47-.52-.25-1.3-.578-2.463-1.031A18.915,18.915,0,0,0,90.625,7.123Z" transform="translate(-67.695 -5.161)" fill="#707070"/></g></g></g><g transform="translate(14.744 0)"><g clip-path="url(#c)"><path d="M18.108-.619H433.965a9.118,9.118,0,0,1,9.12,9.12V214.814a9.118,9.118,0,0,1-9.12,9.12H18.108a9.118,9.118,0,0,1-9.12-9.12V8.513a9.113,9.113,0,0,1,9.12-9.132Zm415.856,224.35a8.928,8.928,0,0,0,8.918-8.918V8.5a8.928,8.928,0,0,0-8.918-8.918H18.108A8.91,8.91,0,0,0,9.191,8.513v206.3a8.928,8.928,0,0,0,8.918,8.918Z" transform="translate(52.026 8.823)" fill="#707070"/></g></g><g transform="translate(25.892 11.148)"><g opacity="0.5" clip-path="url(#c)"><path d="M13.037,5.877c5.976,0,9.777,3.467,9.777,8.885s-3.824,8.885-9.8,8.885H4.631V36.334H3.583V5.877ZM4.631,22.655h8.317c5.385,0,8.807-3.021,8.807-7.893,0-4.894-3.4-7.893-8.807-7.893H4.631Z" transform="translate(16.116 26.431)" fill="#f6f6f6"/><path d="M3.482,5.776h9.555a10.471,10.471,0,0,1,7.2,2.437,8.565,8.565,0,0,1,2.681,6.549,8.552,8.552,0,0,1-2.692,6.55,10.508,10.508,0,0,1-7.209,2.437H4.733V36.436H3.482Zm9.533,17.771c5.891,0,9.7-3.448,9.7-8.784s-3.8-8.784-9.676-8.784H3.685V36.233H4.53V23.546ZM4.53,6.768h8.418c5.5,0,8.909,3.063,8.909,7.994a7.573,7.573,0,0,1-2.418,5.849,9.559,9.559,0,0,1-6.49,2.145H4.53Zm8.418,15.786c5.37,0,8.706-2.986,8.706-7.792s-3.336-7.792-8.706-7.792H4.733V22.554Z" transform="translate(16.116 26.431)" fill="#707070"/><path d="M7.743,7.56h.97v4.716h.045c.992-3.3,3.144-5.05,6.277-5.05a6.27,6.27,0,0,1,2.285.446V8.753a5.44,5.44,0,0,0-2.453-.535c-3.757,0-6.076,3.311-6.076,7.915V30.28H7.754L7.743,7.56Z" transform="translate(34.822 32.496)" fill="#f6f6f6"/><path d="M15.034,7.124a6.336,6.336,0,0,1,2.325.454l.062.026V8.917l-.147-.073a5.36,5.36,0,0,0-2.407-.524c-3.574,0-5.974,3.14-5.974,7.814V30.382H7.652L7.641,7.459H8.814v4.315C9.882,8.729,12.024,7.124,15.034,7.124Zm2.184.615a6.267,6.267,0,0,0-2.184-.412c-3.063,0-5.2,1.721-6.179,4.978l-.022.072H8.611V7.661H7.844l.011,22.518h.834V16.133a9.518,9.518,0,0,1,1.649-5.745,5.464,5.464,0,0,1,4.528-2.272,5.657,5.657,0,0,1,2.351.476Z" transform="translate(34.822 32.496)" fill="#707070"/><path d="M9.945,24.229c0-3.868,2.742-6.042,8.027-6.466l8.216-.624V15.1c0-4.3-2.575-6.9-6.867-6.9-4.236,0-6.968,2.174-7.559,5.976H10.77c.479-4.3,3.757-6.945,8.551-6.945,4.883,0,7.893,3,7.893,7.8v15.24H26.177V25.1h-.011c-1.1,3.255-4.638,5.507-8.707,5.507C13.044,30.606,9.945,27.964,9.945,24.229ZM26.177,21.9V18.053l-8.049.613c-4.638.368-7.135,2.285-7.135,5.552,0,3.133,2.765,5.407,6.522,5.407C22.3,29.625,26.177,26.146,26.177,21.9Z" transform="translate(44.727 32.505)" fill="#f6f6f6"/><path d="M17.459,30.707A8.425,8.425,0,0,1,11.981,28.9a6.023,6.023,0,0,1-2.137-4.666,5.6,5.6,0,0,1,2.07-4.6,11.02,11.02,0,0,1,6.05-1.963l8.123-.617V15.1c0-4.258-2.529-6.8-6.766-6.8-4.158,0-6.877,2.147-7.458,5.89l-.013.086H10.657l.013-.113c.483-4.34,3.8-7.036,8.652-7.036,4.931,0,7.994,3.029,7.994,7.905V30.373h-1.24V25.62a7.852,7.852,0,0,1-3.1,3.539A10.276,10.276,0,0,1,17.459,30.707ZM19.321,8.1a7.011,7.011,0,0,1,5.115,1.867A7.087,7.087,0,0,1,26.29,15.1v2.134l-8.31.631c-5.264.422-7.933,2.563-7.933,6.365a5.823,5.823,0,0,0,2.066,4.512A8.224,8.224,0,0,0,17.459,30.5c3.984,0,7.525-2.236,8.611-5.438L26.093,25h.185V30.17h.834V15.031c0-4.751-2.986-7.7-7.792-7.7-4.7,0-7.921,2.58-8.437,6.743h.792C12.3,10.273,15.084,8.1,19.321,8.1Zm-1.806,21.63a7.409,7.409,0,0,1-4.734-1.552,5.065,5.065,0,0,1-1.889-3.956,4.742,4.742,0,0,1,1.868-3.943,9.994,9.994,0,0,1,5.361-1.71l8.159-.621V21.9a7.381,7.381,0,0,1-2.572,5.531A9.255,9.255,0,0,1,17.515,29.726Zm8.561-11.564-7.94.6c-4.606.365-7.041,2.25-7.041,5.451,0,3.074,2.7,5.306,6.42,5.306a9.052,9.052,0,0,0,6.057-2.244,7.181,7.181,0,0,0,2.5-5.38Z" transform="translate(44.727 32.505)" fill="#707070"/><path d="M31.565,14.245A7.729,7.729,0,0,0,23.671,8.2c-5.452,0-8.852,4.181-8.852,10.725s3.378,10.7,8.852,10.7c4.125,0,7.157-2.386,7.86-5.831h1.048c-.714,4.036-4.181,6.812-8.908,6.812-6.054,0-9.9-4.515-9.9-11.695,0-7.157,3.868-11.695,9.9-11.695a8.759,8.759,0,0,1,8.952,7.012C32.624,14.245,31.565,14.245,31.565,14.245Z" transform="translate(61.937 32.478)" fill="#f6f6f6"/><path d="M23.671,7.12a9.5,9.5,0,0,1,6,2.015,8.438,8.438,0,0,1,3.049,5.081l0,.009v.009c0,.1-.1.1-.143.1l-.122,0-.365,0h-.613l-.017-.081A7.6,7.6,0,0,0,23.671,8.3c-5.4,0-8.75,4.071-8.75,10.623s3.353,10.6,8.75,10.6c4,0,7.048-2.257,7.76-5.749l.017-.081H32.7l-.021.119A7.944,7.944,0,0,1,29.692,28.8a9.707,9.707,0,0,1-6.021,1.914,9.23,9.23,0,0,1-7.3-3.191,13.1,13.1,0,0,1-2.7-8.605,13.084,13.084,0,0,1,2.712-8.6A9.224,9.224,0,0,1,23.671,7.12ZM32.5,14.138a8.685,8.685,0,0,0-8.831-6.815c-5.952,0-9.8,4.551-9.8,11.593,0,7.151,3.754,11.593,9.8,11.593,4.583,0,8.018-2.59,8.786-6.609h-.844a7.02,7.02,0,0,1-2.668,4.187,8.659,8.659,0,0,1-5.274,1.644A8.18,8.18,0,0,1,17.115,26.8a12.229,12.229,0,0,1-2.4-7.87,12.253,12.253,0,0,1,2.4-7.881A8.17,8.17,0,0,1,23.671,8.1a8.458,8.458,0,0,1,5.267,1.73,7.471,7.471,0,0,1,2.708,4.312C31.935,14.143,32.318,14.142,32.5,14.138Z" transform="translate(61.937 32.478)" fill="#707070"/><path d="M21.928,6.188v6.076h4.6v.959h-4.6V30.035c0,2.887,1.037,4.013,3.445,4.013l1.561-.022V35l-1.628.022c-3.055,0-4.415-1.416-4.415-4.961V13.212H17.513v-.959h3.378V6.177C20.891,6.188,21.928,6.188,21.928,6.188Z" transform="translate(78.764 27.781)" fill="#f6f6f6"/><path d="M20.909,6.078c.058.007.656.009,1.019.009h.1v6.076h4.6v1.162h-4.6v16.71a4.541,4.541,0,0,0,.794,3.023,3.155,3.155,0,0,0,2.549.889l.979-.014.582-.008h.1V35.1h-.1l-.685.009-.942.013c-3.166,0-4.516-1.514-4.516-5.062V13.313H17.412V12.152H20.79V6.177h.2A.1.1,0,0,0,20.909,6.078Zm.918.212c-.18,0-.558,0-.775,0h-.059v6.071H17.615v.756h3.378V30.057A5.454,5.454,0,0,0,22.028,33.8a4.193,4.193,0,0,0,3.278,1.118l.939-.013.587-.008v-.767l-.477.007-.982.014a3.339,3.339,0,0,1-2.7-.959,4.659,4.659,0,0,1-.844-3.156V13.121h4.6v-.756h-4.6Z" transform="translate(78.764 27.781)" fill="#707070"/><path d="M19.87,6.816a1.026,1.026,0,1,1,1.037,1.015A1.016,1.016,0,0,1,19.87,6.816Zm.5,7.146h1.037v22.72H20.371Z" transform="translate(89.362 26.094)" fill="#f6f6f6"/><path d="M20.907,5.7a1.117,1.117,0,0,1,1.116,1.116,1.127,1.127,0,0,1-2.254,0A1.115,1.115,0,0,1,20.907,5.7Zm0,2.029a.925.925,0,0,0,.913-.913.924.924,0,0,0-1.849,0A.925.925,0,0,0,20.907,7.73Zm-.637,6.132h1.24V36.784H20.27Zm1.037.2h-.834V36.582h.834Z" transform="translate(89.362 26.094)" fill="#707070"/><path d="M38.693,14.245A7.729,7.729,0,0,0,30.8,8.2c-5.452,0-8.852,4.181-8.852,10.725s3.378,10.7,8.852,10.7c4.125,0,7.157-2.386,7.86-5.831h1.048c-.714,4.036-4.181,6.812-8.908,6.812-6.054,0-9.9-4.515-9.9-11.695,0-7.157,3.868-11.695,9.9-11.695a8.759,8.759,0,0,1,8.952,7.012C39.741,14.245,38.693,14.245,38.693,14.245Z" transform="translate(93.995 32.478)" fill="#f6f6f6"/><path d="M30.8,7.12a9.5,9.5,0,0,1,6,2.015,8.438,8.438,0,0,1,3.049,5.081l.01.052-.038.038c-.039.039-.041.041-1.131.041H38.61l-.017-.081A7.6,7.6,0,0,0,30.8,8.3c-5.4,0-8.75,4.071-8.75,10.623s3.353,10.6,8.75,10.6c4,0,7.048-2.257,7.76-5.749l.017-.081h1.252l-.021.119A7.944,7.944,0,0,1,36.821,28.8,9.707,9.707,0,0,1,30.8,30.712a9.23,9.23,0,0,1-7.3-3.191,13.1,13.1,0,0,1-2.7-8.605,13.084,13.084,0,0,1,2.712-8.6A9.224,9.224,0,0,1,30.8,7.12Zm8.831,7.018A8.685,8.685,0,0,0,30.8,7.323c-5.952,0-9.8,4.551-9.8,11.593,0,7.151,3.754,11.593,9.8,11.593,4.583,0,8.018-2.59,8.786-6.609h-.844a7.02,7.02,0,0,1-2.668,4.187A8.659,8.659,0,0,1,30.8,29.731,8.18,8.18,0,0,1,24.243,26.8a12.229,12.229,0,0,1-2.4-7.87,12.253,12.253,0,0,1,2.4-7.881A8.17,8.17,0,0,1,30.8,8.1a8.458,8.458,0,0,1,5.267,1.73,7.471,7.471,0,0,1,2.708,4.312C39.063,14.143,39.446,14.142,39.631,14.138Z" transform="translate(93.995 32.478)" fill="#707070"/><path d="M44.076,23.968c-.758,3.824-4.125,6.644-9.209,6.644-6.1,0-10.056-4.3-10.056-11.695,0-7.057,3.924-11.695,9.889-11.695,5.786,0,9.666,4.415,9.666,10.937v.8h-18.5v.045c0,6.756,3.59,10.647,9.019,10.647,4.549,0,7.436-2.464,8.1-5.686ZM25.893,18.015H43.307c0-5.831-3.467-9.811-8.618-9.811C29.628,8.193,26.15,12.118,25.893,18.015Z" transform="translate(111.588 32.487)" fill="#f6f6f6"/><path d="M34.868,30.714a9.484,9.484,0,0,1-7.391-3.11c-1.81-2.066-2.766-5.069-2.766-8.686a13.041,13.041,0,0,1,2.732-8.559A9.188,9.188,0,0,1,34.7,7.122a9.142,9.142,0,0,1,7.079,3.057,11.826,11.826,0,0,1,2.688,7.981v.9h-18.5c.02,6.471,3.433,10.488,8.918,10.488,4.217,0,7.284-2.145,8-5.6.009-.088.1-.088.147-.088H44.2l-.024.121a7.85,7.85,0,0,1-3.021,4.817A10.341,10.341,0,0,1,34.868,30.714ZM34.7,7.325c-5.945,0-9.787,4.551-9.787,11.593,0,7.151,3.814,11.593,9.954,11.593,4.695,0,8.246-2.524,9.084-6.442h-.875A6.758,6.758,0,0,1,40.458,28.1a9.257,9.257,0,0,1-5.568,1.655,8.46,8.46,0,0,1-6.622-2.825,11.9,11.9,0,0,1-2.5-7.923v-.146h18.5v-.7C44.265,11.679,40.421,7.325,34.7,7.325Zm8.708,10.792H25.787l0-.106a11.347,11.347,0,0,1,2.615-7.177A8.144,8.144,0,0,1,34.668,8.1h.022a8.134,8.134,0,0,1,6.316,2.753,10.653,10.653,0,0,1,2.4,7.159ZM26,17.914H43.205c-.04-5.751-3.452-9.608-8.516-9.608h-.022C29.686,8.306,26.292,12.073,26,17.914Z" transform="translate(111.588 32.487)" fill="#707070"/></g></g></g></g></g><path d="M112,1A111.825,111.825,0,0,0,89.629,3.255a110.387,110.387,0,0,0-39.689,16.7A111.327,111.327,0,0,0,9.723,68.794,110.435,110.435,0,0,0,3.255,89.629a112.092,112.092,0,0,0,0,44.743,110.387,110.387,0,0,0,16.7,39.689,111.327,111.327,0,0,0,48.838,40.217,110.435,110.435,0,0,0,20.834,6.467,112.092,112.092,0,0,0,44.743,0,110.387,110.387,0,0,0,39.689-16.7,111.327,111.327,0,0,0,40.217-48.838,110.434,110.434,0,0,0,6.467-20.834,112.092,112.092,0,0,0,0-44.743,110.387,110.387,0,0,0-16.7-39.689A111.327,111.327,0,0,0,155.206,9.723a110.434,110.434,0,0,0-20.834-6.467A111.825,111.825,0,0,0,112,1m0-1A112,112,0,1,1,0,112,112,112,0,0,1,112,0Z" transform="translate(9254 2230)" fill="#69adcd"/></g></svg>