<svg xmlns="http://www.w3.org/2000/svg" width="248" height="249" viewBox="0 0 248 249"><g transform="translate(-7108.334 -4013.183)"><rect width="220" height="222" transform="translate(7136.334 4013.183)" fill="#c7ae78"/><path d="M4,4V218H216V4H4M0,0H220V222H0Z" transform="translate(7136.334 4013.183)" fill="#fff"/><rect width="192" height="195" transform="translate(7136.334 4040.183)" fill="#c653b3"/><path d="M4,4V191H188V4H4M0,0H192V195H0Z" transform="translate(7136.334 4040.183)" fill="#fff"/><rect width="163" height="166" transform="translate(7136.334 4069.183)" fill="#ab7dba"/><path d="M4,4V162H159V4H4M0,0H163V166H0Z" transform="translate(7136.334 4069.183)" fill="#fff"/><rect width="139" height="138" transform="translate(7136.334 4097.183)" fill="#f56073"/><path d="M4,4V134H135V4H4M0,0H139V138H0Z" transform="translate(7136.334 4097.183)" fill="#fff"/><rect width="110" height="111" transform="translate(7136.334 4124.183)" fill="#6aa495"/><path d="M4,4V107H106V4H4M0,0H110V111H0Z" transform="translate(7136.334 4124.183)" fill="#fff"/><rect width="81" height="82" transform="translate(7136.334 4153.183)" fill="#496a9d"/><path d="M4,4V78H77V4H4M0,0H81V82H0Z" transform="translate(7136.334 4153.183)" fill="#fff"/><rect width="53" height="54" transform="translate(7136.334 4181.183)" fill="#3299c2"/><path d="M4,4V50H49V4H4M0,0H53V54H0Z" transform="translate(7136.334 4181.183)" fill="#fff"/><text transform="translate(7168.334 4208.183)" fill="#fff" font-size="15" font-family="IRANSans"><tspan x="-9.783" y="0">A</tspan></text><text transform="translate(7208.334 4174.183)" fill="#fff" font-size="15" font-family="IRANSans"><tspan x="-9.339" y="0">B</tspan></text><text transform="translate(7236.334 4145.183)" fill="#fff" font-size="15" font-family="IRANSans"><tspan x="-9.763" y="0">C</tspan></text><text transform="translate(7264.334 4120.183)" fill="#fff" font-size="15" font-family="IRANSans"><tspan x="-9.835" y="0">D</tspan></text><text transform="translate(7290.334 4090.183)" fill="#fff" font-size="15" font-family="IRANSans"><tspan x="-8.524" y="0">E</tspan></text><text transform="translate(7315.334 4063.183)" fill="#fff" font-size="15" font-family="IRANSans"><tspan x="-8.289" y="0">F</tspan></text><text transform="translate(7345.334 4034.183)" fill="#fff" font-size="15" font-family="IRANSans"><tspan x="-10.22" y="0">G</tspan></text><text transform="translate(7290.334 4235.183)" fill="#707070" font-size="10" font-family="IRANSans"><tspan x="12.243" y="10">تعداد کلمه</tspan></text><text transform="translate(7108.334 4087.183) rotate(-90)" fill="#707070" font-size="10" font-family="IRANSans"><tspan x="11.191" y="10"> </tspan><tspan y="10">لغات و گرامر</tspan><tspan y="10"></tspan></text><path d="M1.5,159.293h-3V0h3Z" transform="translate(7121.36 4089.586)" fill="#c7ae78"/><path d="M1.5,159.293h-3V0h3Z" transform="translate(7280.652 4248.879) rotate(90)" fill="#c7ae78"/></g></svg>