<svg xmlns="http://www.w3.org/2000/svg" xmlns:xlink="http://www.w3.org/1999/xlink" width="232" height="231" viewBox="0 0 232 231"><defs><clipPath id="a"><ellipse cx="116" cy="115.5" rx="116" ry="115.5" transform="translate(-0.112 -0.364)" fill="#8dc04e"/></clipPath><clipPath id="b"><rect width="463.504" height="230.653"/></clipPath><clipPath id="c"><path d="M10.67-.935H513.12A10.844,10.844,0,0,1,524.036,9.828v246.03a10.844,10.844,0,0,1-10.916,10.763H10.67A10.844,10.844,0,0,1-.245,255.859V9.817A10.834,10.834,0,0,1,10.67-.935Z" transform="translate(0.245 0.935)"/></clipPath><clipPath id="e"><path d="M6.87-.935H509.32A10.844,10.844,0,0,1,520.236,9.828v246.03a10.844,10.844,0,0,1-10.916,10.763H6.87A10.844,10.844,0,0,1-4.045,255.859V9.817A10.834,10.834,0,0,1,6.87-.935Z" transform="translate(4.045 0.935)"/></clipPath><clipPath id="f"><rect width="341.788" height="200.832"/></clipPath></defs><g transform="translate(-815.888 -40.889)"><g transform="translate(816 41.253)" clip-path="url(#a)"><g transform="translate(-144.802 -0.382)"><g clip-path="url(#b)"><g transform="translate(-1.495 -5.676)"><g clip-path="url(#c)"><path d="M10.67-.935H513.12A10.844,10.844,0,0,1,524.036,9.828v246.03a10.844,10.844,0,0,1-10.916,10.763H10.67A10.844,10.844,0,0,1-.245,255.859V9.817A10.834,10.834,0,0,1,10.67-.935Z" transform="translate(0.245 0.935)" fill="#8dc04e"/></g></g><g transform="translate(-1.495 -5.676)"><g opacity="0.5" clip-path="url(#c)"><path d="M21.493,37.351H3.15V5.4H4.263V36.313H21.5v1.038Z" transform="translate(17.557 33.042)" fill="#f6f6f6"/><path d="M26.9,24.235c-.8,4.015-4.345,6.968-9.7,6.968-6.42,0-10.591-4.522-10.591-12.263,0-7.395,4.137-12.263,10.406-12.263,6.1,0,10.186,4.626,10.186,11.467v.842H7.738v.046c0,7.083,3.778,11.155,9.5,11.155,4.786,0,7.833-2.584,8.54-5.964C25.768,24.235,26.9,24.235,26.9,24.235ZM7.761,17.982H26.1c0-6.114-3.65-10.29-9.073-10.29C11.689,7.692,8.016,11.81,7.761,17.982Z" transform="translate(35.217 39.537)" fill="#f6f6f6"/><path d="M19.276,6.677c4.809,0,7.984,2.815,8.413,7.256H26.623c-.406-3.634-3.048-6.241-7.335-6.241-3.72,0-6.964,2.123-6.964,5.249,0,2.573,1.692,3.83,5.319,4.672l3.72.888c4.739,1.154,6.709,2.953,6.709,6.183,0,3.9-3.65,6.529-8.691,6.529-5.133,0-8.691-3.207-8.946-7.083h1.112c.29,3.345,3.488,6.068,7.81,6.068,4.206,0,7.6-2.169,7.6-5.445,0-2.723-1.692-4.245-5.933-5.249L17.26,18.64c-4-.946-6.026-2.607-6.026-5.676C11.234,9.238,14.861,6.677,19.276,6.677Z" transform="translate(54.699 39.537)" fill="#f6f6f6"/><path d="M22.578,6.677c4.809,0,7.984,2.815,8.413,7.256H29.925c-.406-3.634-3.048-6.241-7.335-6.241-3.72,0-6.964,2.123-6.964,5.249,0,2.573,1.692,3.83,5.319,4.672l3.72.888c4.739,1.154,6.709,2.953,6.709,6.183,0,3.9-3.65,6.529-8.691,6.529-5.133,0-8.691-3.207-8.946-7.083h1.112c.29,3.345,3.488,6.068,7.81,6.068,4.206,0,7.6-2.169,7.6-5.445,0-2.723-1.692-4.245-5.933-5.249l-3.754-.877c-4-.946-6.026-2.607-6.026-5.676C14.537,9.238,18.163,6.677,22.578,6.677Z" transform="translate(71.536 39.537)" fill="#f6f6f6"/><path d="M17.07,18.941c0-7.533,4.264-12.263,10.545-12.263s10.545,4.73,10.545,12.263S33.895,31.2,27.614,31.2C21.311,31.2,17.07,26.463,17.07,18.941Zm19.989,0c0-6.91-3.8-11.248-9.444-11.248s-9.432,4.338-9.432,11.248,3.778,11.225,9.432,11.225S37.058,25.817,37.058,18.941Z" transform="translate(88.528 39.547)" fill="#f6f6f6"/><path d="M21.2,7.044h1.031v5.618h.046a8.514,8.514,0,0,1,8.471-5.987c5.272,0,8.9,3.415,8.9,8.767V30.854H38.562V15.488c0-4.822-3.279-7.8-7.938-7.8-4.913,0-8.32,3.645-8.32,8.86v14.3H21.216L21.2,7.044Z" transform="translate(109.608 39.527)" fill="#f6f6f6"/></g></g><g transform="translate(-24.67 -5.676)"><g clip-path="url(#e)"><path d="M224.222,1.018a105.879,105.879,0,0,0-39.606,8.721c-18.54,8.1-29.039,26.614-40.719,42.061-9.884,13.082-21.6,25.875-37.254,31.147-14.832,5-31.414,2.584-46.3,7.406-27.567,8.952-41.762,42.188-35.319,70.1S54.1,210.444,79.76,223.814c53.372,27.837,121.45,22.345,172.864-8.871,28.482-17.293,52.712-42.511,64.9-73.243C340.979,82.543,310.4,13.742,243.887,2.413A103.855,103.855,0,0,0,224.222,1.018Z" transform="translate(144.402 10.68)" fill="#f6f6f6"/><g transform="translate(162.493 35.785)"><g clip-path="url(#f)"><path d="M152.667,89.668c-.707,4.361-7.694,5.63-13.256,11.894-5.585,6.264,7.034,7.579,7.81,12.471s-.151,11.628-8.679,14.674-82.063,14.224-89.63,2.169,1.75-20.557,5.041-23.245-12.6-4.314-12.549-13.14c.058-7.141,15.064-8.329,12.851-12.321-2.19-3.991-13.778-2.907-12.851-8.525s19.073-8.225,19.374-11.732c.151-1.8-1.031-7.937-1.634-15.493V46.4c-.579-7.256,1.275-18.377,3.442-25.495,0-.012,8-7.418,16.408-9.506A112.483,112.483,0,0,1,101.647,8.58l25.307,16.462,2.654-7.268a.486.486,0,0,1,.023.127c.023.058.058.1.046.162.162.75.614,2.838,1.112,5.63,1.228,7.175,2.711,19.081.232,25.068-3.708,8.929,10.394,10.5,14.311,13.682s.556,8.71-6.3,12.99C132.192,79.712,154.162,80.554,152.667,89.668Z" transform="translate(73.013 13.407)" fill="#2c1b12"/><path d="M121.907,48.512,103.97,26.951,59.184,23.767,43.413,110.415l71.982.554Z" transform="translate(83.529 90.429)" fill="#605362"/><g transform="translate(126.936 11.786)"><g transform="translate(15.777 65.91)"><path d="M93.485,59.46s-27.671,34-32.654,34S46,54.258,46,54.258a13.9,13.9,0,0,0,8.749-4.43,15.134,15.134,0,0,0,2.607-6.356c1.842-8.456,1.17-20.811,1.17-20.811l28.309-4.9c-.51,0-4.6,11.928-4.067,23.222C83.126,48.893,85.756,56.507,93.485,59.46Z" transform="translate(-45.999 -17.746)" fill="#f28f7c"/><path d="M73.273,40.978c-7.636,2.134-17.671,4.1-25.412,2.492,1.842-8.456,1.17-20.811,1.17-20.811l28.308-4.9C76.818,17.755,72.74,29.684,73.273,40.978Z" transform="translate(-36.505 -17.756)" fill="#ee756a"/></g><path d="M72.935,19c.614,3.2-3.094,6.564-8.262,7.533S54.8,25.679,54.2,22.483s3.094-6.564,8.262-7.533S72.321,15.8,72.935,19Z" transform="translate(11.243 32.606)" fill="#ee756a"/><path d="M62.271,22.284c-.545,3.207-5.2,5.11-10.394,4.234s-8.957-4.165-8.413-7.372,5.2-5.11,10.394-4.234S62.816,19.089,62.271,22.284Z" transform="translate(-43.412 32.655)" fill="#ee756a"/><g transform="translate(11.123 9.448)"><path d="M107.907,46.737c-1.251,20.073-15.435,37.5-34.114,37.5-17.775,0-29.606-21.226-28.355-41.288S61.7,7.457,78.938,8.507C96.192,9.533,109.158,26.665,107.907,46.737Z" transform="translate(-44.666 -8.456)" fill="#f28f7c"/><path d="M107.237,42.978l-7.752-7.96s-21.773,2.1-32.109-12.644c0,0-2.654,10-17.5,17.385L46.031,45.2S39.983,14.542,61.246,10.031s44.554,4.038,47.671,17.593S107.237,42.978,107.237,42.978Z" transform="translate(-45.236 -6.624)" fill="#ee756a"/></g><g transform="translate(6.276)"><path d="M111.1,58.828l-4.751-16.381s-25.6.4-35.852-17.789c0,0-9.432,19.011-18.853,23.464L48.916,60.259c-.6-.231-2.769-5.757-3.766-13.174A50.032,50.032,0,0,1,45.278,32c0-.012,0-.046.012-.058,1.7-9.621,7.184-18.908,20.5-22.6,15.18-4.222,30.974-3.2,40.6,4.926A24.675,24.675,0,0,1,114.236,26.3a.489.489,0,0,1,.023.127c.023.058.058.1.046.162a29.916,29.916,0,0,1,1.112,5.63C116.183,39.367,114.966,48.192,111.1,58.828Z" transform="translate(-43.425 -6.9)" fill="#2c1b12"/><path d="M107.419,14.264C96.7,12.442,78.705,11.3,64.649,19.917c-8.274,5.064-15.191,13.5-18.471,27.168a70.514,70.514,0,0,0-1.391,7.845c-.579-7.256-.649-15.8,1.518-22.934,0-.012,0-.046.012-.058,1.7-9.621,7.184-18.908,20.5-22.6C82,5.116,97.79,6.143,107.419,14.264Z" transform="translate(-44.441 -6.9)" fill="#44331c"/></g></g><g transform="translate(78.042 112.812)"><path d="M103.206,23.539S93.878,76.79,90.737,111.56l-27.88.519L35.4,112.6s28.3-72.32,37.277-79.6a21.182,21.182,0,0,1,2.908-1.938C85.593,25.477,103.206,23.539,103.206,23.539Z" transform="translate(-35.395 -23.539)" fill="#f3e0c3"/><path d="M72.672,26.716a21.182,21.182,0,0,1,2.908-1.938,99.671,99.671,0,0,0-6.292,23c-1.379,10.913-4.82,42.88-6.431,58.015l-27.463.519C35.384,106.327,63.68,34,72.672,26.716Z" transform="translate(-35.395 -17.256)" fill="#e6ceb8"/></g><g transform="translate(23.314 92.139)"><g transform="translate(2.526)"><path d="M55.865,47.694S43.049,25.372,28.576,20.134l3.407,14.582Z" transform="translate(-17.962 -20.134)" fill="#bcb3a6"/><path d="M64.739,44.09S50.764,22.414,34.066,20.845l-7.231,8.571L58.551,54.23l4.415-2.8Z" transform="translate(-26.836 -16.53)" fill="#dddace"/><g transform="translate(36.107 4.868)"><path d="M39.545,20.936l4.577,14.4-2.283,5.237-1.46-8.41Z" transform="translate(1.858 -20.936)" fill="#dddace"/><path d="M32.756,50.953l1.8-7.325S50.659,24,74.158,20.936L75.445,33.5Z" transform="translate(-32.756 -20.936)" fill="#f2f1e7"/></g></g><path d="M65.054,45.1S47.14,21.681,26.421,22.1L49.006,82.43s13.789.831,31.657,18.308Z" transform="translate(-26.421 -10.214)" fill="#927a34"/><g transform="translate(38.645 13.786)"><path d="M48.355,99.143c-1.24,1.165-15.6-55.627-15.6-55.627S47.845,27.123,78.726,22.4L91.148,83.7C91.148,83.685,62.051,86.257,48.355,99.143Z" transform="translate(-32.758 -22.405)" fill="#ba9b4c"/><path d="M34.646,36.752c7.949-7.348,16.848-12,27.173-12.459l3.639,16.266c-10.012,1.177-18.227,6.633-25.632,12.713Z" transform="translate(-23.128 -12.827)" fill="#ddd082"/></g><g transform="translate(24.391 52.694)"><path d="M33.913,54.921s-4.1-23.741,19.942-18.908l1.1,8.733Z" transform="translate(-13.969 4.412)" fill="#d1ad94"/><path d="M61.442,87.881,54.512,76.956,53.261,75C48.742,69.4,28.475,42.244,30.572,37.376S44.663,51.058,44.663,51.058,37.212,30.6,40.248,28.9c3.024-1.73,13.291,23.88,13.291,23.88s-2.26-20.269,0-20.961,3.65,3.772,3.65,3.772,1.078-2.123,3.071-1.834c1.97.288,5.724,20.4,5.724,20.4s3.754,4.222,4.229,12.644c.058.784.07,1.6.058,2.457h.012s3.905,10.256,4.38,10.717S61.442,87.881,61.442,87.881Z" transform="translate(-30.421 -28.813)" fill="#f28f7c"/><path d="M41.3,56.166,34.371,45.241c6.756-.162,12.549-6.172,15.713-10.175.058.784.07,1.6.058,2.457h.012s3.9,10.256,4.38,10.717S41.3,56.166,41.3,56.166Z" transform="translate(-10.279 2.902)" fill="#ee756a"/><path d="M35.492,30.271a94.011,94.011,0,0,0,2.6,18.712c.139.531-.707.773-.846.231a67.8,67.8,0,0,1-2.468-19.45Z" transform="translate(-8.388 -23.992)" fill="#ee756a"/><path d="M53.633,35.378A48.7,48.7,0,0,1,33.691,54.851l9.977,9.875L69.392,52.082Z" transform="translate(-13.747 4.482)" fill="#f3e0c3"/></g></g><g transform="translate(180.315 117.391)"><path d="M117.391,107.746H86.7L52.164,108.98s.278-66.736,7.184-84.687c0,0,17.5,8.306,27.578,15.851,3.094,2.307,5.481,4.545,6.443,6.46C97.472,54.7,117.391,107.746,117.391,107.746Z" transform="translate(-52.164 -24.293)" fill="#f3e0c3"/><path d="M93.918,94.5H58.483c-2.619-20.3-2.225-59.157,1.089-64.81a4.884,4.884,0,0,1,3.87-2.78c3.094,2.307,5.481,4.545,6.443,6.46C74,41.453,93.918,94.5,93.918,94.5Z" transform="translate(-28.691 -11.044)" fill="#e6ceb8"/></g><g transform="translate(222.911 71.649)"><path d="M76.389,53.692s2.654-13.024-3.835-17.143-9.166,7.556-9.166,7.556l5.678,8.133Z" transform="translate(-37.536 79.125)" fill="#d1ad94"/><g transform="translate(20.834)"><path d="M63.891,62.6c.209-.358,2.491-13.428,9.189-18.158S88.248,28.1,89.975,28.559s-7.914,30.075-7.914,30.075Z" transform="translate(-55.803 43.013)" fill="#d84948"/><path d="M64.824,116.757s65.76-100.526,67.834-99.995c2.074.508-63.593,102.394-63.593,102.394Z" transform="translate(-51.047 -16.76)" fill="#2c1b12"/><g transform="translate(0 61.434)"><path d="M109.819,61.184c-1.136,6.31-30.533,26.152-30.533,26.152l-.556.623L71.267,96.2l-8.7-15.978,4.9-6.022-.2-.219a14.256,14.256,0,0,1,1.425-3.461C73.376,62.5,84.489,62.96,84.489,62.96s-3.731-14.639-1.761-16.831c1.309-1.465,3.407.427,3.581.6-.185-.242-2.329-3.357.44-4.9,2.607-1.442,9.351,15.055,9.791,16.127-.267-1.119-4.45-19.669-1.587-23.868,2.978-4.338,7.532,18.735,7.532,18.735s1.136-24.537,4.114-25.9C109.6,25.595,110.955,54.862,109.819,61.184Z" transform="translate(-62.565 -26.878)" fill="#f28f7c"/><path d="M78.73,51.508l-7.462,8.237-8.7-15.978,4.9-6.022-.2-.219a14.256,14.256,0,0,1,1.425-3.461C69.9,39.626,72.693,47.8,78.73,51.508Z" transform="translate(-62.565 9.574)" fill="#d84948"/><path d="M67.392,30.77h0c3.708,5.2,5.527,11.236,7.277,17.373.185.577-.765.831-.927.242-1.75-6.4-3.685-12.874-7.486-18.377Z" transform="translate(-43.742 -11)" fill="#d84948"/></g></g><path d="M59.149,56.075c.811-.023,26.35-21.792,26.35-21.792S87.55,58.117,98.014,60.805L86.878,69.111Z" transform="translate(-59.149 72.116)" fill="#f3e0c3"/></g></g></g></g></g></g></g></g><path d="M116,1A116.342,116.342,0,0,0,92.822,3.326,114.99,114.99,0,0,0,10.036,70.933a113.552,113.552,0,0,0-6.7,21.491,115.133,115.133,0,0,0,0,46.152,113.6,113.6,0,0,0,17.3,40.94,115.182,115.182,0,0,0,201.325-19.449,113.552,113.552,0,0,0,6.7-21.491,115.133,115.133,0,0,0,0-46.152,113.6,113.6,0,0,0-17.3-40.94A115,115,0,0,0,116,1m0-1c64.065,0,116,51.711,116,115.5S180.065,231,116,231,0,179.289,0,115.5,51.935,0,116,0Z" transform="translate(815.888 40.889)" fill="#8dc04e"/></g></svg>