<svg xmlns="http://www.w3.org/2000/svg" xmlns:xlink="http://www.w3.org/1999/xlink" width="82" height="82" viewBox="0 0 82 82"><defs><clipPath id="a"><circle cx="41" cy="41" r="41" transform="translate(-0.103 -0.103)" fill="#8dc04e"/></clipPath><clipPath id="b"><rect width="163.639" height="81.795"/></clipPath><clipPath id="c"><path d="M3.609-.935H181a3.837,3.837,0,0,1,3.854,3.817V90.13A3.837,3.837,0,0,1,181,93.947H3.609A3.837,3.837,0,0,1-.245,90.13V2.878A3.833,3.833,0,0,1,3.609-.935Z" transform="translate(0.245 0.935)"/></clipPath><clipPath id="e"><path d="M-.191-.935H177.2a3.837,3.837,0,0,1,3.854,3.817V90.13a3.837,3.837,0,0,1-3.854,3.817H-.191A3.837,3.837,0,0,1-4.045,90.13V2.878A3.833,3.833,0,0,1-.191-.935Z" transform="translate(4.045 0.935)"/></clipPath><clipPath id="f"><rect width="120.667" height="71.22"/></clipPath></defs><g transform="translate(-815.897 -40.897)"><g transform="translate(816 41)" clip-path="url(#a)"><g transform="translate(-51.122 0)"><g clip-path="url(#b)"><g transform="translate(-0.528 -2.013)"><g clip-path="url(#c)"><path d="M3.609-.935H181a3.837,3.837,0,0,1,3.854,3.817V90.13A3.837,3.837,0,0,1,181,93.947H3.609A3.837,3.837,0,0,1-.245,90.13V2.878A3.833,3.833,0,0,1,3.609-.935Z" transform="translate(0.245 0.935)" fill="#8dc04e"/></g></g><g transform="translate(-0.528 -2.013)"><g opacity="0.5" clip-path="url(#c)"><path d="M9.626,16.728H3.15V5.4h.393V16.36H9.63v.368Z" transform="translate(4.16 8.235)" fill="#f6f6f6"/><path d="M13.777,12.9a3.214,3.214,0,0,1-3.424,2.471c-2.266,0-3.739-1.6-3.739-4.349,0-2.622,1.46-4.349,3.674-4.349,2.152,0,3.6,1.64,3.6,4.066v.3H7.011v.016c0,2.512,1.334,3.956,3.355,3.956A2.82,2.82,0,0,0,13.38,12.9S13.777,12.9,13.777,12.9ZM7.019,10.686h6.476c0-2.168-1.289-3.649-3.2-3.649C8.406,7.037,7.109,8.5,7.019,10.686Z" transform="translate(8.155 9.712)" fill="#f6f6f6"/><path d="M13.556,6.677a2.749,2.749,0,0,1,2.97,2.573H16.15a2.416,2.416,0,0,0-2.59-2.213c-1.313,0-2.459.753-2.459,1.861,0,.912.6,1.358,1.878,1.657l1.313.315c1.673.409,2.369,1.047,2.369,2.193,0,1.383-1.289,2.315-3.068,2.315a2.915,2.915,0,0,1-3.158-2.512h.393a2.579,2.579,0,0,0,2.757,2.152c1.485,0,2.684-.769,2.684-1.931,0-.965-.6-1.505-2.095-1.861l-1.33-.307c-1.411-.335-2.127-.925-2.127-2.013C10.717,7.585,12,6.677,13.556,6.677Z" transform="translate(12.561 9.712)" fill="#f6f6f6"/><path d="M16.858,6.677a2.749,2.749,0,0,1,2.97,2.573h-.376a2.416,2.416,0,0,0-2.59-2.213c-1.313,0-2.459.753-2.459,1.861,0,.912.6,1.358,1.878,1.657l1.313.315c1.673.409,2.369,1.047,2.369,2.193,0,1.383-1.289,2.315-3.068,2.315a2.915,2.915,0,0,1-3.158-2.512h.393a2.579,2.579,0,0,0,2.757,2.152c1.485,0,2.684-.769,2.684-1.931,0-.965-.6-1.505-2.095-1.861l-1.325-.311c-1.411-.335-2.127-.925-2.127-2.013C14.019,7.585,15.3,6.677,16.858,6.677Z" transform="translate(16.368 9.712)" fill="#f6f6f6"/><path d="M17.07,11.027c0-2.671,1.505-4.349,3.723-4.349s3.723,1.677,3.723,4.349-1.505,4.349-3.723,4.349S17.07,13.695,17.07,11.027Zm7.057,0c0-2.45-1.342-3.989-3.334-3.989s-3.33,1.538-3.33,3.989,1.334,3.981,3.33,3.981S24.127,13.465,24.127,11.027Z" transform="translate(20.211 9.714)" fill="#f6f6f6"/><path d="M21.2,6.806h.364V8.8h.016a3.007,3.007,0,0,1,2.991-2.123,2.948,2.948,0,0,1,3.142,3.109v5.466h-.385V9.8a2.623,2.623,0,0,0-2.8-2.765,2.91,2.91,0,0,0-2.937,3.142v5.073h-.385l0-8.444Z" transform="translate(24.979 9.71)" fill="#f6f6f6"/></g></g><g transform="translate(-8.71 -2.013)"><g clip-path="url(#e)"><path d="M94.353,1A37.24,37.24,0,0,0,80.37,4.09c-6.546,2.872-10.252,9.438-14.376,14.916-3.49,4.639-7.626,9.176-13.152,11.046-5.236,1.771-11.091.916-16.348,2.626-9.732,3.175-14.744,14.961-12.469,24.861S34.294,75.265,43.351,80.007c18.843,9.872,42.877,7.924,61.029-3.146,10.056-6.132,18.61-15.075,22.914-25.974,8.28-20.979-2.516-45.377-26-49.394A36.506,36.506,0,0,0,94.353,1Z" transform="translate(35.789 3.151)" fill="#f6f6f6"/><g transform="translate(57.368 12.69)"><g clip-path="url(#f)"><path d="M80.651,37.336c-.25,1.546-2.716,2-4.68,4.218s2.483,2.688,2.757,4.422a4.384,4.384,0,0,1-3.064,5.2c-3.007,1.084-28.972,5.044-31.644.769s.618-7.29,1.78-8.243-4.447-1.53-4.431-4.66c.02-2.532,5.318-2.954,4.537-4.369s-4.864-1.031-4.537-3.023,6.734-2.917,6.84-4.161c.053-.638-.364-2.815-.577-5.494v-.008a28.852,28.852,0,0,1,1.215-9.041A15.777,15.777,0,0,1,54.64,9.579a39.543,39.543,0,0,1,8-1l8.935,5.838.937-2.577a.173.173,0,0,1,.008.045c.008.02.02.037.016.057.057.266.217,1.006.393,2,.434,2.545.957,6.766.082,8.89C71.7,26,76.678,26.552,78.061,27.681s.2,3.089-2.225,4.606S81.178,34.1,80.651,37.336Z" transform="translate(-0.975 -0.783)" fill="#2c1b12"/><path d="M71.125,32.542,64.793,24.9,48.981,23.767,43.413,54.494l25.413.2Z" transform="translate(1.404 16.729)" fill="#605362"/><g transform="translate(44.814 4.179)"><g transform="translate(5.57 23.373)"><path d="M62.764,32.546S52.995,44.6,51.235,44.6,46,30.7,46,30.7a4.9,4.9,0,0,0,3.089-1.571,5.379,5.379,0,0,0,.92-2.254,34.335,34.335,0,0,0,.413-7.38l9.994-1.739a19.731,19.731,0,0,0-1.436,8.235C59.106,28.8,60.035,31.5,62.764,32.546Z" transform="translate(-45.999 -17.753)" fill="#f28f7c"/><path d="M56.832,25.991c-2.7.757-6.239,1.452-8.972.884a34.335,34.335,0,0,0,.413-7.38l9.994-1.739A19.658,19.658,0,0,0,56.832,25.991Z" transform="translate(-43.852 -17.756)" fill="#ee756a"/></g><path d="M60.77,16.218c.217,1.133-1.092,2.328-2.917,2.671s-3.486-.3-3.7-1.436,1.092-2.328,2.917-2.671S60.553,15.085,60.77,16.218Z" transform="translate(-31.051 2.082)" fill="#ee756a"/><path d="M50.07,17.389c-.192,1.137-1.837,1.812-3.67,1.5s-3.162-1.477-2.97-2.614,1.837-1.812,3.67-1.5S50.263,16.256,50.07,17.389Z" transform="translate(-43.412 2.094)" fill="#ee756a"/><g transform="translate(3.927 3.35)"><path d="M67.434,22.032c-.442,7.118-5.449,13.3-12.044,13.3-6.276,0-10.452-7.527-10.011-14.642S51.119,8.1,57.207,8.474,67.876,14.913,67.434,22.032Z" transform="translate(-45.107 -8.456)" fill="#f28f7c"/><path d="M67.125,20.932l-2.737-2.823s-7.687.745-11.336-4.484c0,0-.937,3.547-6.177,6.165l-1.358,1.931S43.381,10.847,50.888,9.248s15.73,1.432,16.83,6.239S67.125,20.932,67.125,20.932Z" transform="translate(-45.236 -8.04)" fill="#ee756a"/></g><g transform="translate(2.216)"><path d="M68.1,25.315l-1.677-5.809s-9.037.143-12.657-6.308c0,0-3.33,6.742-6.656,8.321l-.961,4.3a12.029,12.029,0,0,1-1.33-4.672,17.821,17.821,0,0,1,.045-5.351s0-.016,0-.02a9.517,9.517,0,0,1,7.237-8.014c5.359-1.5,10.935-1.133,14.335,1.747a8.754,8.754,0,0,1,2.77,4.267.174.174,0,0,1,.008.045c.008.02.02.037.016.057a10.651,10.651,0,0,1,.393,2A21.465,21.465,0,0,1,68.1,25.315Z" transform="translate(-44.211 -6.9)" fill="#2c1b12"/><path d="M66.675,9.512c-3.784-.646-10.137-1.051-15.1,2-2.921,1.8-5.363,4.786-6.521,9.634a25.108,25.108,0,0,0-.491,2.782A23,23,0,0,1,45.1,15.8s0-.016,0-.02a9.517,9.517,0,0,1,7.237-8.014C57.7,6.268,63.276,6.632,66.675,9.512Z" transform="translate(-44.441 -6.9)" fill="#44331c"/></g></g><g transform="translate(27.553 40.006)"><path d="M59.335,23.539s-3.293,18.884-4.4,31.214l-9.843.184-9.7.184s9.99-25.646,13.161-28.228a7.476,7.476,0,0,1,1.027-.687C53.117,24.226,59.335,23.539,59.335,23.539Z" transform="translate(-35.395 -23.539)" fill="#f3e0c3"/><path d="M48.556,25.465a7.476,7.476,0,0,1,1.027-.687,35.469,35.469,0,0,0-2.221,8.157c-.487,3.87-1.7,15.206-2.27,20.574l-9.7.184S45.381,28.047,48.556,25.465Z" transform="translate(-35.395 -22.111)" fill="#e6ceb8"/></g><g transform="translate(8.231 32.675)"><g transform="translate(0.892)"><path d="M38.21,29.908s-4.525-7.916-9.634-9.773l1.2,5.171Z" transform="translate(-24.829 -20.134)" fill="#bcb3a6"/><path d="M40.217,29.088S35.283,21.4,29.388,20.845l-2.553,3.04,11.2,8.8,1.559-.994Z" transform="translate(-26.836 -19.315)" fill="#dddace"/><g transform="translate(12.747 1.726)"><path d="M39.545,20.936l1.616,5.106L40.355,27.9l-.515-2.982Z" transform="translate(-24.928 -20.936)" fill="#dddace"/><path d="M32.756,31.581l.634-2.6s5.686-6.959,13.983-8.047l.454,4.455Z" transform="translate(-32.756 -20.936)" fill="#f2f1e7"/></g></g><path d="M40.061,30.25s-6.325-8.3-13.639-8.157l7.973,21.4s4.868.295,11.177,6.492Z" transform="translate(-26.421 -17.879)" fill="#927a34"/><g transform="translate(13.643 4.889)"><path d="M38.264,49.618c-.438.413-5.506-19.727-5.506-19.727s5.326-5.813,16.229-7.486L53.372,44.14S43.1,45.048,38.264,49.618Z" transform="translate(-32.758 -22.405)" fill="#ba9b4c"/><path d="M34.646,28.712a14.95,14.95,0,0,1,9.593-4.418l1.285,5.768c-3.535.417-6.435,2.352-9.049,4.508Z" transform="translate(-30.58 -20.227)" fill="#ddd082"/></g><g transform="translate(8.611 18.686)"><path d="M33.741,42.3s-1.448-8.419,7.041-6.705l.389,3.1Z" transform="translate(-26.7 -21.259)" fill="#d1ad94"/><path d="M41.373,49.76l-2.446-3.874-.442-.7c-1.6-1.984-8.751-11.614-8.01-13.341S35.449,36.7,35.449,36.7s-2.63-7.253-1.559-7.859,4.692,8.468,4.692,8.468-.8-7.188,0-7.433,1.289,1.338,1.289,1.338a1.161,1.161,0,0,1,1.084-.65c.7.1,2.021,7.233,2.021,7.233a7.722,7.722,0,0,1,1.493,4.484c.02.278.025.569.02.871h0s1.379,3.637,1.546,3.8S41.373,49.76,41.373,49.76Z" transform="translate(-30.421 -28.813)" fill="#f28f7c"/><path d="M36.817,42.549l-2.446-3.874c2.385-.057,4.431-2.189,5.547-3.608.02.278.025.569.02.871h0s1.379,3.637,1.546,3.8S36.817,42.549,36.817,42.549Z" transform="translate(-25.865 -21.602)" fill="#ee756a"/><path d="M35.007,29.943a33.479,33.479,0,0,0,.916,6.636c.049.188-.25.274-.3.082a24.144,24.144,0,0,1-.871-6.9Z" transform="translate(-25.438 -27.717)" fill="#ee756a"/><path d="M40.731,35.378a17.238,17.238,0,0,1-7.041,6.906l3.522,3.5L46.3,41.3Z" transform="translate(-26.65 -21.243)" fill="#f3e0c3"/></g></g><g transform="translate(63.66 41.63)"><path d="M75.193,53.887H64.356l-12.191.438s.1-23.666,2.536-30.032a71.675,71.675,0,0,1,9.737,5.621,7.88,7.88,0,0,1,2.275,2.291C68.16,35.077,75.193,53.887,75.193,53.887Z" transform="translate(-52.164 -24.293)" fill="#f3e0c3"/><path d="M69.884,50.875H57.374c-.925-7.2-.785-20.979.385-22.983a1.724,1.724,0,0,1,1.366-.986A7.88,7.88,0,0,1,61.4,29.2C62.851,32.065,69.884,50.875,69.884,50.875Z" transform="translate(-46.856 -21.281)" fill="#e6ceb8"/></g><g transform="translate(78.698 25.408)"><path d="M67.978,42.058s.937-4.619-1.354-6.079-3.236,2.68-3.236,2.68l2,2.884Z" transform="translate(-54.261 5.042)" fill="#d1ad94"/><g transform="translate(7.356)"><path d="M63.891,40.623c.074-.127.88-4.762,3.244-6.439s5.355-5.8,5.965-5.633-2.794,10.665-2.794,10.665Z" transform="translate(-61.036 -3.169)" fill="#d84948"/><path d="M64.824,52.221S88.04,16.572,88.773,16.76,66.321,53.072,66.321,53.072Z" transform="translate(-59.96 -16.76)" fill="#2c1b12"/><g transform="translate(0 21.786)"><path d="M79.248,39.043c-.4,2.238-10.78,9.274-10.78,9.274l-.2.221L65.637,51.46l-3.072-5.666,1.73-2.135-.07-.078a5.068,5.068,0,0,1,.5-1.227c1.653-2.843,5.576-2.68,5.576-2.68s-1.317-5.191-.622-5.969c.462-.52,1.2.151,1.264.213-.065-.086-.822-1.19.155-1.739.92-.511,3.3,5.339,3.457,5.719-.094-.4-1.571-6.975-.56-8.464,1.051-1.538,2.659,6.644,2.659,6.644s.4-8.7,1.452-9.184S79.649,36.8,79.248,39.043Z" transform="translate(-62.565 -26.878)" fill="#f28f7c"/><path d="M68.272,40.251l-2.635,2.921-3.072-5.666L64.3,35.37l-.07-.078a5.068,5.068,0,0,1,.5-1.227C65.155,36.037,66.141,38.937,68.272,40.251Z" transform="translate(-62.565 -18.59)" fill="#d84948"/><path d="M66.658,30.279h0a19.542,19.542,0,0,1,2.569,6.161c.065.2-.27.295-.327.086a20.991,20.991,0,0,0-2.643-6.517Z" transform="translate(-58.308 -23.268)" fill="#d84948"/></g></g><path d="M59.149,42.011c.286-.008,9.3-7.728,9.3-7.728s.724,8.452,4.418,9.405l-3.931,2.945Z" transform="translate(-59.149 3.448)" fill="#f3e0c3"/></g></g></g></g></g></g></g></g><path d="M41,1A40.011,40.011,0,0,0,25.431,77.857,40.011,40.011,0,0,0,56.569,4.143,39.749,39.749,0,0,0,41,1m0-1A41,41,0,1,1,0,41,41,41,0,0,1,41,0Z" transform="translate(815.897 40.897)" fill="#8dc04e"/></g></svg>