<svg xmlns="http://www.w3.org/2000/svg" xmlns:xlink="http://www.w3.org/1999/xlink" width="85" height="85" viewBox="0 0 85 85"><defs><clipPath id="a"><circle cx="42.5" cy="42.5" r="42.5" fill="#8dc04e"/></clipPath><clipPath id="b"><rect width="169.832" height="84.916"/></clipPath><clipPath id="c"><rect width="180.29" height="84.916"/></clipPath><clipPath id="d"><rect width="176.105" height="82.945"/></clipPath></defs><g transform="translate(-955 -41)"><g transform="translate(955 41)" clip-path="url(#a)"><g transform="translate(-103.566 0.042)"><g transform="translate(0 0)"><g transform="translate(20.794)"><g clip-path="url(#b)"><path d="M3.983.127h171.3a3.816,3.816,0,0,1,3.983,3.626V81.082a3.816,3.816,0,0,1-3.983,3.626H3.983A3.816,3.816,0,0,1,0,81.082V3.753A3.816,3.816,0,0,1,3.983.127Z" transform="translate(0 0.174)" fill="#e95328"/><path d="M-3.214-1.6H203.621c2.48,0,4.488,1.669,4.488,3.732V87.443c0,2.063-2.008,3.732-4.488,3.732H-3.214c-2.48,0-4.488-1.669-4.488-3.732V2.132C-7.706.073-5.693-1.6-3.214-1.6Z" transform="translate(-10.568 -2.196)" fill="#e95328"/></g></g><g transform="translate(6.711)"><g clip-path="url(#c)"><path d="M117.232,17.035a22.49,22.49,0,0,0-7.8-7.558c-9.821-5.825-23-6.284-32.769-.1-9.078,5.749-14.966,16.087-24.885,20.227-4.755,1.983-10.292,2.463-14.215,5.8-5.8,4.938-5.634,14.126-2.773,21.187C40.434,70.545,54.781,80.247,69.8,81.253s30.111-6.3,39.448-18.1c8.407-10.627,14-27.139,10.351-40.62A21.019,21.019,0,0,0,117.232,17.035Z" transform="translate(53.568 6.754)" fill="#f6f6f6"/></g></g><g transform="translate(0 1.971)"><g transform="translate(0)" clip-path="url(#d)"><g transform="translate(101.471 5.07)"><g transform="translate(23.332 64.053)"><g transform="translate(0 10.169)"><path d="M81.626,37.889c0,1.19-7.021,2.152-15.672,2.152s-15.672-.966-15.672-2.152a.626.626,0,0,1,.22-.4c1.182-1.194,6.942-3.011,14.034-3.247.228,0,.46-.012.693-.017.27,0,.539,0,.8,0s.539,0,.8,0c7.407.133,13.4,2.032,14.573,3.26A.633.633,0,0,1,81.626,37.889Z" transform="translate(-50.281 -34.219)" fill="#5a452d"/><path d="M81.286,37.487c-1.248.825-7.693,1.456-15.457,1.456s-14.208-.63-15.457-1.456c1.182-1.194,6.942-3.011,14.034-3.247.228,0,.46-.012.693-.017.27,0,.539,0,.8,0s.539,0,.8,0C74.119,34.356,80.112,36.26,81.286,37.487Z" transform="translate(-50.16 -34.219)" fill="#2f1b12"/></g><rect width="6.835" height="11.359" transform="translate(12.251)" fill="#2f1b12"/></g><g transform="translate(8.237 21.95)"><path d="M93.586,12.282c1.211.212,13.831,2.111,11.189,19.131-2.4,15.449-17.555,25.4-34.878,25.771-20.678.444-29.628-11.422-24.892-21.251s19.9-7.336,23-11.583S74.629,8.919,93.586,12.282Z" transform="translate(-43.766 -11.661)" fill="#907b30"/><path d="M82.5,12.865s15.216-2.186,16.465,5.8S95.236,38.594,87.916,40.05s-8.141,4.769-10.128,7.88S64.144,58.787,51.611,50.9s-5.727-21.562,2.907-22.026C65.484,28.288,69.788,22.644,82.5,12.865Z" transform="translate(-42.496 -10.435)" fill="#745b23"/></g><g transform="translate(25.377 21.075)"><path d="M55.731,21.417s-3.907-3.567-.921-7.507l4.84,1.738Z" transform="translate(-47.839 -7.822)" fill="#8a6968"/><path d="M73.513,11.627l-.722,7.4S67.686,20.614,62.767,22c-1.36.394-2.708.759-3.927,1.078-.336.091-.664.17-.975.257a27.356,27.356,0,0,1-3.542.738c-3.011.261-3.16-12.794-3.16-12.794l3.322,1s.581,5.159,1.783,5.524a4.615,4.615,0,0,0,1.862-.44c.85-.3,1.9-.738,3.044-1.232,3.625-1.551,8.1-3.666,9.348-3.973A18.215,18.215,0,0,1,73.513,11.627Z" transform="translate(-51.163 -11.283)" fill="#f28f7c"/><path d="M58.957,19.249c-1.36.394-2.708.759-3.927,1.078-.336.091-.664.17-.975.257a18.242,18.242,0,0,0,.27-5.972c.85-.3,1.9-.738,3.044-1.232,1.074.738,2.2,1.5,2.343,1.547A24.233,24.233,0,0,1,58.957,19.249Z" transform="translate(-47.353 -8.52)" fill="#ee756a"/><path d="M69.55,11.431l-.722,7.4S60.716,23.2,55.092,24.678c1.24-2.24.39-6.121-.921-7.507,3.538-1.273,10.741-4.8,12.392-5.2A17.972,17.972,0,0,1,69.55,11.431Z" transform="translate(-47.2 -11.087)" fill="#af9691"/></g><g transform="translate(0 32.058)"><path d="M64.97,22.918s-9.481-7.137-12.952-6.889c-3.7.265-5.114,2.886-4.371,5.354A42.289,42.289,0,0,0,51.26,28.43l16.6,3.874V24.9Z" transform="translate(-30.669 -16.023)" fill="#e07124"/><g transform="translate(0 6.607)"><g transform="translate(0 28.547)"><g transform="translate(0 7.141)"><path d="M55.83,39.54c-.017.668-.124,1.19-.4,1.319-.9.435-14.64-2.6-15.191-3.815-.137-.307.224-.63.888-.946a28.994,28.994,0,0,1,8.552-1.821,16.712,16.712,0,0,1,5.752,1.369A22.493,22.493,0,0,1,55.83,39.54Z" transform="translate(-40.211 -34.276)" fill="#2f1b12"/><path d="M55.83,38.5c-.017.668-.124,1.19-.4,1.319-.9.435-14.64-2.6-15.191-3.815-.137-.307.224-.63.888-.946C43.4,36.418,48.1,38.446,55.83,38.5Z" transform="translate(-40.211 -33.241)" fill="#5c442d"/></g><g transform="translate(9.472)"><path d="M52.179,33.562c0,.162-.46,1.5-.954,2.895-.564,1.593-1.174,3.251-1.174,3.251A12.7,12.7,0,0,1,44.3,38.34L45,36.005l1.447-4.811Z" transform="translate(-44.299 -31.194)" fill="#f28f7c"/><path d="M51.778,33.562c0,.162-.46,1.5-.954,2.895-1.767.224-4.487.377-6.221-.452l1.447-4.811Z" transform="translate(-43.898 -31.194)" fill="#ee756a"/></g></g><path d="M84.586,29.609s-5.611,7.838-9.995,6.71-14.466-3.372-15.017-3.3-6.847,19.231-6.847,19.231c-3.372.041-6.432-.224-8.6-1.4,0,0,6.333-27.214,9.373-28.653S68.449,23.72,68.449,23.72a4.668,4.668,0,0,1,.908-4.558C71.2,16.815,84.586,29.609,84.586,29.609Z" transform="translate(-35.051 -18.875)" fill="#f3942e"/></g><g transform="translate(16.432 0.008)"><path d="M52.522,30.542s6.536,2.8,9.273-2.273l-5.031-4.052-5.093,3.31Z" transform="translate(-41.549 -5.237)" fill="#e07124"/><g transform="translate(8.563 18.98)"><path d="M61.314,29.588a12.009,12.009,0,0,1-4.678,3.467l-2.1-2.75-2.5-3.256,5.483-2.833c.174.129,1.481,2,2.513,3.492C60.737,28.738,61.314,29.588,61.314,29.588Z" transform="translate(-49.631 -24.218)" fill="#f28f7c"/><path d="M60.032,27.71c-.987-.145-4.238-.382-5.5,2.6l-2.5-3.256,5.483-2.833C57.7,24.346,59,26.217,60.032,27.71Z" transform="translate(-49.631 -24.218)" fill="#ee756a"/><g transform="translate(0 5.236)"><path d="M64.871,31.265c-3.961,3.048-12.707,2.974-13.723,2.065-.187-.17-.191-.448-.054-.792h0c.6-1.514,3.844-4.33,5.744-5.147a16.964,16.964,0,0,1,5.856-.912,27.325,27.325,0,0,1,1.526,2.439c.153.27.29.543.415.8C64.975,30.44,65.136,31.058,64.871,31.265Z" transform="translate(-50.998 -26.477)" fill="#2f1b12"/><path d="M64.871,29.925C60.91,32.973,52.164,32.9,51.148,31.99c-.187-.17-.191-.448-.054-.792h0c2.928-1.423,9.311-4.218,13.134-3.621.153.27.29.543.415.8C64.975,29.1,65.136,29.717,64.871,29.925Z" transform="translate(-50.998 -25.137)" fill="#5c442d"/><path d="M64.556,27.918c.336.722.5,1.34.228,1.547-3.961,3.048-12.707,2.974-13.723,2.065C51.065,31.531,60.363,27.213,64.556,27.918Z" transform="translate(-50.916 -24.682)" fill="#7e6c54"/></g></g><path d="M47.733,18.741a8.56,8.56,0,0,0-.195,4.612c.46,1.348,1.555,2.882,3.16,5.761,3.322,5.968,7.577,12.218,7.577,12.218,2.667-3.757,5.976-4.55,9.273-2.273,0,0-8.635-16.369-10.389-19.239s-4.292-3.849-5.263-3.791a4.464,4.464,0,0,0-3.139,1.3A3.7,3.7,0,0,0,47.733,18.741Z" transform="translate(-47.303 -16.027)" fill="#f8ac50"/></g></g><g transform="translate(34.297 15.762)"><path d="M82.961,24.787c-.8,1.746-12.715,17.841-12.715,17.841L55.013,32.182S63.54,21.527,65.452,17.94s2.671-3.392,3.5-3.2c.6.137,2.161.7,3.181.846a1.179,1.179,0,0,0,.85-.071A.022.022,0,0,0,73,15.505a19.727,19.727,0,0,0,1.667-3.015l4.317-3.5L81.3,10.865s-.51.966-1.02,2.061c-.576,1.232-1.153,2.617-.991,2.924a1.855,1.855,0,0,0,.319.361c.929.867,3.463,2.654,3.948,3.65C84.127,21.013,83.757,23.045,82.961,24.787Z" transform="translate(-55.013 -8.99)" fill="#f28f7c"/><path d="M71.089,10.861s-.51.966-1.02,2.061c-1.688,1.377-4.89,3.55-7.3,2.6a.022.022,0,0,0,.017-.012,19.727,19.727,0,0,0,1.667-3.015l4.317-3.5Z" transform="translate(-44.796 -8.99)" fill="#ee756a"/></g><path d="M82.961,21.568c-.8,1.746-12.715,17.841-12.715,17.841L55.013,28.962S63.54,18.308,65.452,14.72s2.671-3.392,3.5-3.2c.6.137,2.161.7,3.181.846-.929,1.049-1.414,3.139-.494,3.434,1.97.63,5.5-.883,7.967-2.812.929.867,3.463,2.654,3.948,3.65C84.127,17.794,83.757,19.826,82.961,21.568Z" transform="translate(-20.715 9.991)" fill="#ccb3ab"/><g transform="translate(25.383 13.611)"><g transform="translate(3.112 0.537)"><path d="M66.108,16.282l-.572.22L52.509,15.174l.705-6.266.639-.614,13,1.327Z" transform="translate(-52.509 -8.294)" fill="#f4952c"/><path d="M65.535,16.152,52.509,14.825l.705-6.266L66.24,9.886Z" transform="translate(-52.509 -7.945)" fill="#e07124"/></g><g transform="translate(13.538 1.263)"><path d="M63.779,24.706c-1.273.581-5.561-3.322-1.675-9l4.579,2.546Z" transform="translate(-52.395 0.75)" fill="#af9691"/><g transform="translate(2.823 8.046)"><path d="M73.681,25.334c-.966.452-2.3,1.041-3.782,1.626-1.07.427-2.219.85-3.372,1.228-.4.133-.788.253-1.178.373a16.978,16.978,0,0,1-5.537.917c-3.608-.265.071-16.307.071-16.307l3.579-1.091.037,9.095s.647-.265,1.617-.68c.738-.319,1.667-.717,2.629-1.153a50.657,50.657,0,0,0,4.89-2.426,7.666,7.666,0,0,1,4.438-1.327C82.415,16.927,77.355,23.613,73.681,25.334Z" transform="translate(-58.227 -12.079)" fill="#f28f7c"/><path d="M66.7,15.439l-.722,7.39c-1.07.427-2.219.85-3.372,1.228-.4.133-.788.253-1.178.373,1.7-3.148-.228-8.062-.228-8.062.738-.319,1.667-.717,2.629-1.153Z" transform="translate(-54.308 -7.949)" fill="#ee756a"/></g><path d="M70.123,24.189A28.879,28.879,0,0,1,62.874,27.5a9.518,9.518,0,0,0-1.675-9,75.168,75.168,0,0,0,7.523-3.579A7.666,7.666,0,0,1,73.159,13.6C78.5,14.937,73.454,21.921,70.123,24.189Z" transform="translate(-51.489 -2.042)" fill="#dbc6be"/><path d="M65.063,16.649A20.777,20.777,0,0,0,63.744,19.1a13.588,13.588,0,0,1-2.26-1.364c-.863-.7-.9-2.907-.9-2.907a3.758,3.758,0,0,0-.958-.3c-.286,0-1.68.572-1.941.323-.178-.17.033-.415.178-.547.037-.033.071-.058.1-.079a.607.607,0,0,1-.336.062.392.392,0,0,1-.311-.182c-.261-.361,1.045-1.5,1.5-1.6a14.286,14.286,0,0,1,2.215,0,10.32,10.32,0,0,0-1.576-.817c-.415-.112-2.459.166-2.434-.319.029-.452,1.974-.73,2.625-.925.576-.17,1.974.514,2.314.688-.518-.3-3.513-2.04-2.965-2.443.61-.44,4.247,1.062,5.018,1.758S65.063,16.649,65.063,16.649Z" transform="translate(-57.008 -8.607)" fill="#f28f7c"/><path d="M60.564,11a3.12,3.12,0,0,0-3.048.618c.037-.033.071-.058.1-.079a.607.607,0,0,1-.336.062,3.361,3.361,0,0,1,3.372-.78C60.788,10.867,60.7,11.053,60.564,11Z" transform="translate(-56.657 -5.914)" fill="#ee756a"/></g><path d="M58.094,10.569c-.228.552-2-.033-2.368.046s-1.655.547-1.655.547,3.679.241,3.513.95a.625.625,0,0,1-.717.535.334.334,0,0,1,.187.129.327.327,0,0,1,.046.265c-.083.406-1.962.622-1.962.622A2.864,2.864,0,0,1,54.884,16c-.693,1.481-2.571.834-2.571.834l-1.145-1.3S51.1,10.5,51.724,9.8s4.06-1.949,4.8-1.7c.709.232-2.451,1.6-2.663,1.7A8.3,8.3,0,0,1,56,9.541C56.729,9.62,58.214,10.283,58.094,10.569Z" transform="translate(-51.166 -8.062)" fill="#f28f7c"/><path d="M55.3,10.315a.334.334,0,0,1,.187.129,9.034,9.034,0,0,0-1.124-.257c-.655-.1-1.3-.083-1.957-.137-.046,0-.062-.062-.012-.079a6.388,6.388,0,0,1,3.384.224A.69.69,0,0,1,55.3,10.315Z" transform="translate(-49.595 -5.726)" fill="#ee756a"/></g><g transform="translate(44.512)"><path d="M80.806,16.407s1.111,3.5-2.961,2.8L63.408,16.274s-5.387-.941-2.418-3.708a6.6,6.6,0,0,1-.85-.883c-.8-1.02-1.522-2.654,1.319-3.442,0,0-1.331-3.562,3.256-3.164,0,0,.63-4.127,4.566-1.435,0,0,2.3-3.218,4.3-.079,0,0,2.48-1.335,3.712.361a3.846,3.846,0,0,1,.639,1.866S82.021,5.3,80.4,9.12c0,0,3.438,1.033.867,3.712C81.27,12.836,83.863,14.678,80.806,16.407Z" transform="translate(-59.419 -2.188)" fill="#2f1b12"/><path d="M77.3,3.928a4.953,4.953,0,0,0-3.915.224,2.494,2.494,0,0,0-4.035.278c-2.994-2.206-4.218,1.418-4.218,1.418-3.927.037-2.712,3.069-2.712,3.069a2.666,2.666,0,0,0-2.277,2.766c-.8-1.02-1.522-2.654,1.319-3.442,0,0-1.331-3.562,3.256-3.164,0,0,.63-4.127,4.566-1.435,0,0,2.3-3.218,4.3-.079C73.588,3.571,76.064,2.236,77.3,3.928Z" transform="translate(-59.421 -2.188)" fill="#44331c"/><path d="M64.811,10.373c-.311.8-1.593,1.087-2.862.643S59.9,9.561,60.216,8.76s1.593-1.087,2.862-.643S65.127,9.573,64.811,10.373Z" transform="translate(-58.466 5.347)" fill="#ee756a"/><g transform="translate(3.731 4.656)"><path d="M75.676,11.956a11.045,11.045,0,0,1-.2,1.522c-.933,4.632-5.819,7.494-10.522,7.092-3.484-.3-4.529-4.508-3.6-9.141.062-.315.137-.614.224-.908A9.4,9.4,0,0,1,64.5,5.914a6.917,6.917,0,0,1,5.006-1.7,6.2,6.2,0,0,1,6.051,5.3A9.274,9.274,0,0,1,75.676,11.956Z" transform="translate(-61.032 -4.197)" fill="#f28f7c"/><path d="M75.881,9.75l-.514,1.228L74.18,13.8a15.651,15.651,0,0,1-2.248-3.874s-2.368.543-3.019-.763c0,0-2.306.763-3.115-.5,0,0-2.439,1.547-3.251,0a1.171,1.171,0,0,1-1.277.883,9.4,9.4,0,0,1,2.92-4.608c2.551.149,9.485.572,9.485.572l1.572,3.032Z" transform="translate(-60.718 -3.215)" fill="#ee756a"/></g><path d="M74.095,15.467a21.179,21.179,0,0,1-1.443-5.491,2.483,2.483,0,0,1-3.2-.834s-2.6,1.335-3.529-.286c0,0-2.6,1.725-3.413-.149,0,0-.265,1.165-.888,1.124s-1.165-3.339,3.1-5.035A9.188,9.188,0,0,1,73.78,5.824c1.676,1.149,2.484,4.01,2.3,5.5-.1.821-.091,3.015-.606,3.907C75.065,15.948,74.095,15.467,74.095,15.467Z" transform="translate(-57.075 0.266)" fill="#2f1b12"/><path d="M70.919,9.934c.066.85-.975,1.613-2.327,1.709s-2.5-.523-2.563-1.373S67,8.657,68.356,8.562,70.852,9.084,70.919,9.934Z" transform="translate(-50.722 6.197)" fill="#f28f7c"/></g></g><g transform="translate(132.695 45.993)"><path d="M81.652,34.393c-5.96,10.14-27.965,10.92-27.965,10.92a7.8,7.8,0,0,0,3.936-2.364c3.451-3.426,6.221-9.456,7.059-11.368,1.887-4.317,5.769-3.737,11.438-4.317,4.33-.448,7.73-4.541,9.095-6.449.419-.589.647-.966.647-.966S87.607,24.253,81.652,34.393Z" transform="translate(-53.687 -19.849)" fill="#907b30"/><path d="M82.983,20.266c-.593,2.111-3.355,6.3-7.747,7.266-6.221,1.369-9.7.921-10.9,2.634-1.045,1.51-4.156,9.746-8.95,12.234,3.451-3.426,6.221-9.456,7.059-11.368,1.887-4.317,5.769-3.737,11.438-4.317C78.218,26.263,81.619,22.174,82.983,20.266Z" transform="translate(-51.452 -19.3)" fill="#a49e50"/></g></g></g></g></g></g><path d="M42.5,1A41.511,41.511,0,0,0,26.347,80.739,41.511,41.511,0,0,0,58.653,4.261,41.239,41.239,0,0,0,42.5,1m0-1A42.5,42.5,0,1,1,0,42.5,42.5,42.5,0,0,1,42.5,0Z" transform="translate(955 41)" fill="#e95328"/></g></svg>