<svg xmlns="http://www.w3.org/2000/svg" xmlns:xlink="http://www.w3.org/1999/xlink" width="224" height="224" viewBox="0 0 224 224"><defs><clipPath id="a"><circle cx="112" cy="112" r="112" fill="#8dc04e"/></clipPath><clipPath id="b"><rect width="447.558" height="223.779"/></clipPath><clipPath id="c"><rect width="475.116" height="223.779"/></clipPath><clipPath id="d"><rect width="464.087" height="218.584"/></clipPath></defs><g transform="translate(-955 -41)"><g transform="translate(955 41)" clip-path="url(#a)"><g transform="translate(-272.927 0.11)"><g transform="translate(0 0)"><g transform="translate(54.799)"><g clip-path="url(#b)"><path d="M10.5.127H461.913c5.8,0,10.5,4.274,10.5,9.555V213.467c0,5.281-4.7,9.555-10.5,9.555H10.5c-5.8,0-10.5-4.274-10.5-9.555V9.682C0,4.4,4.7.127,10.5.127Z" transform="translate(0 0.667)" fill="#e95328"/><path d="M4.125-1.6h545.07c6.534,0,11.827,4.4,11.827,9.835v224.82c0,5.438-5.292,9.835-11.827,9.835H4.125c-6.534,0-11.827-4.4-11.827-9.835V8.235C-7.713,2.808-2.409-1.6,4.125-1.6Z" transform="translate(-40.445 -8.403)" fill="#e95328"/></g></g><g transform="translate(17.684)"><g clip-path="url(#c)"><path d="M255.224,36.843a59.267,59.267,0,0,0-20.565-19.916C208.778,1.576,174.048.367,148.3,16.67c-23.922,15.15-39.441,42.395-65.578,53.3C70.192,75.2,55.6,76.464,45.263,85.258c-15.3,13.013-14.848,37.226-7.306,55.833,14.881,36.767,52.689,62.334,92.264,64.985s79.352-16.593,103.957-47.7c22.154-28.006,36.89-71.52,27.279-107.045A55.39,55.39,0,0,0,255.224,36.843Z" transform="translate(194.885 25.848)" fill="#f6f6f6"/></g></g><g transform="translate(0 5.195)"><g clip-path="url(#d)"><g transform="translate(267.406 13.36)"><g transform="translate(61.487 168.797)"><g transform="translate(0 26.798)"><path d="M132.884,43.891c0,3.137-18.5,5.672-41.3,5.672-22.82,0-41.3-2.546-41.3-5.672a1.649,1.649,0,0,1,.579-1.06c3.115-3.148,18.3-7.935,36.984-8.558.6-.011,1.213-.033,1.825-.044.71-.011,1.421-.011,2.12-.011s1.421,0,2.12.011c19.52.35,35.323,5.355,38.405,8.59A1.668,1.668,0,0,1,132.884,43.891Z" transform="translate(-50.281 -34.219)" fill="#5a452d"/><path d="M131.838,42.831c-3.29,2.175-20.274,3.836-40.733,3.836s-37.444-1.661-40.733-3.836c3.115-3.148,18.3-7.935,36.984-8.558.6-.011,1.213-.033,1.825-.044.71-.011,1.421-.011,2.12-.011s1.421,0,2.12.011C112.953,34.58,128.745,39.6,131.838,42.831Z" transform="translate(-49.815 -34.219)" fill="#2f1b12"/></g><rect width="18.011" height="29.935" transform="translate(32.285)" fill="#2f1b12"/></g><g transform="translate(21.706 57.846)"><path d="M175.058,13.3c3.191.557,36.449,5.563,29.487,50.417-6.317,40.711-46.263,66.931-91.915,67.914-54.493,1.169-78.078-30.1-65.6-56S99.482,56.294,107.657,45.1,125.1,4.435,175.058,13.3Z" transform="translate(-43.766 -11.661)" fill="#907b30"/><path d="M144.275,13.312s40.1-5.76,43.389,15.279-9.836,52.526-29.126,56.362-21.454,12.569-26.689,20.766-35.957,28.613-68.985,7.825S47.77,56.723,70.524,55.5C99.421,53.958,110.766,39.083,144.275,13.312Z" transform="translate(-38.842 -6.91)" fill="#745b23"/></g><g transform="translate(66.875 55.538)"><path d="M59.076,33.692s-10.3-9.4-2.426-19.782L69.4,18.49Z" transform="translate(-38.277 2.134)" fill="#8a6968"/><path d="M110.061,12.19l-1.9,19.509s-13.454,4.175-26.416,7.836c-3.585,1.038-7.137,2-10.35,2.842-.885.24-1.749.448-2.568.678A72.092,72.092,0,0,1,59.491,45c-7.935.689-8.328-33.717-8.328-33.717l8.754,2.634s1.53,13.6,4.7,14.558c.667.208,2.459-.284,4.907-1.159,2.24-.8,5.017-1.945,8.022-3.246C87.1,19.983,98.88,14.409,102.181,13.6A48,48,0,0,1,110.061,12.19Z" transform="translate(-51.163 -11.283)" fill="#f28f7c"/><path d="M66.974,28.845c-3.585,1.038-7.137,2-10.35,2.842-.885.24-1.749.448-2.568.678,1.858-6.623.71-15.738.71-15.738,2.24-.8,5.017-1.945,8.022-3.246,2.831,1.945,5.8,3.945,6.175,4.077S68.132,23.523,66.974,28.845Z" transform="translate(-36.394 -0.571)" fill="#ee756a"/><path d="M94.7,11.431,92.8,30.94s-21.378,11.508-36.2,15.4c3.268-5.9,1.027-16.132-2.426-19.782C63.494,23.2,82.478,13.9,86.828,12.852A47.361,47.361,0,0,1,94.7,11.431Z" transform="translate(-35.8 -10.524)" fill="#af9691"/></g><g transform="translate(0 84.483)"><path d="M93.611,34.193S68.627,15.384,59.479,16.04c-9.749.7-13.476,7.607-11.519,14.11s9.519,18.569,9.519,18.569l43.75,10.208v-19.5Z" transform="translate(-3.216 -16.023)" fill="#e07124"/><g transform="translate(0 17.412)"><g transform="translate(0 75.23)"><g transform="translate(0 18.818)"><path d="M81.37,48.148c-.044,1.76-.328,3.137-1.049,3.475-2.372,1.148-38.58-6.842-40.034-10.055-.361-.809.59-1.661,2.339-2.492,5.213-2.481,17.487-4.732,22.536-4.8,6.754-.109,15.159,3.607,15.159,3.607A59.277,59.277,0,0,1,81.37,48.148Z" transform="translate(-40.211 -34.276)" fill="#2f1b12"/><path d="M81.37,44.133c-.044,1.76-.328,3.137-1.049,3.475-2.372,1.148-38.58-6.842-40.034-10.055-.361-.809.59-1.661,2.339-2.492C48.626,38.636,61,43.98,81.37,44.133Z" transform="translate(-40.211 -30.262)" fill="#5c442d"/></g><g transform="translate(24.962)"><path d="M65.065,37.435c0,.426-1.213,3.956-2.514,7.629-1.486,4.2-3.093,8.569-3.093,8.569C53.206,53.315,48,52.233,44.3,50.025l1.858-6.153,3.814-12.678Z" transform="translate(-44.299 -31.194)" fill="#f28f7c"/><path d="M63.511,37.435c0,.426-1.213,3.956-2.514,7.629-4.656.59-11.825.995-16.394-1.191l3.814-12.678Z" transform="translate(-42.746 -31.194)" fill="#ee756a"/></g></g><path d="M150.744,47.163S135.956,67.819,124.4,64.847,86.283,55.961,84.83,56.158s-18.044,50.679-18.044,50.679c-8.885.109-16.951-.59-22.656-3.683,0,0,16.689-71.718,24.7-75.51s39.389,4,39.389,4-2.5-5.825,2.394-12.011C115.475,13.446,150.744,47.163,150.744,47.163Z" transform="translate(-20.206 -18.875)" fill="#f3942e"/></g><g transform="translate(43.303 0.021)"><path d="M53.912,40.885S71.136,48.251,78.35,34.9L65.092,24.218,51.671,32.939Z" transform="translate(-24.996 25.801)" fill="#e07124"/><g transform="translate(22.567 50.018)"><path d="M76.485,38.371c-4.1,4.5-8.208,7.727-12.328,9.137l-5.541-7.246-6.579-8.579,14.448-7.465c.459.339,3.9,5.268,6.623,9.2C74.966,36.131,76.485,38.371,76.485,38.371Z" transform="translate(-45.698 -24.218)" fill="#f28f7c"/><path d="M73.108,33.42c-2.6-.383-11.17-1.005-14.492,6.842l-6.579-8.579,14.448-7.465C66.955,24.557,70.4,29.486,73.108,33.42Z" transform="translate(-45.698 -24.218)" fill="#ee756a"/><g transform="translate(0 13.799)"><path d="M87.556,39.095c-10.437,8.033-33.487,7.836-36.165,5.443-.492-.448-.5-1.18-.142-2.087h.011C52.834,38.461,61.392,31.04,66.4,28.887c6.142-2.634,15.432-2.4,15.432-2.4a72.011,72.011,0,0,1,4.022,6.426c.4.71.765,1.432,1.093,2.109C87.83,36.92,88.256,38.548,87.556,39.095Z" transform="translate(-50.998 -26.477)" fill="#2f1b12"/><path d="M87.556,33.9c-10.437,8.033-33.487,7.836-36.165,5.443-.492-.448-.5-1.18-.142-2.087h.011C58.977,33.5,75.8,26.138,85.873,27.712c.4.71.765,1.432,1.093,2.109C87.83,31.723,88.256,33.352,87.556,33.9Z" transform="translate(-50.998 -21.281)" fill="#5c442d"/><path d="M86.625,28.046c.885,1.9,1.312,3.53.6,4.077-10.437,8.033-33.487,7.836-36.165,5.443C51.072,37.565,75.575,26.188,86.625,28.046Z" transform="translate(-50.679 -19.516)" fill="#7e6c54"/></g></g><path d="M48.437,23.181c-1.126,3.2-1.618,8.951-.514,12.153,1.213,3.552,4.1,7.6,8.328,15.181,8.754,15.727,19.968,32.2,19.968,32.2,7.027-9.9,15.749-11.989,24.438-5.989,0,0-22.755-43.138-27.378-50.7S61.967,15.88,59.41,16.033a11.764,11.764,0,0,0-8.273,3.432C49.432,21.224,48.874,21.968,48.437,23.181Z" transform="translate(-47.303 -16.027)" fill="#f8ac50"/></g></g><g transform="translate(90.384 41.537)"><path d="M128.665,50.62c-2.1,4.6-33.509,47.017-33.509,47.017L55.013,70.106s22.47-28.077,27.509-37.531,7.038-8.94,9.224-8.426c1.574.361,5.694,1.836,8.383,2.23a3.106,3.106,0,0,0,2.24-.186.059.059,0,0,0,.044-.033c1.235-1.158,4.394-7.946,4.394-7.946L118.184,8.99l6.1,4.94s-1.344,2.547-2.689,5.432c-1.519,3.246-3.038,6.9-2.612,7.705a4.887,4.887,0,0,0,.842.951c2.448,2.284,9.126,6.995,10.4,9.618C131.736,40.674,130.763,46.029,128.665,50.62Z" transform="translate(-55.013 -8.99)" fill="#f28f7c"/><path d="M84.694,13.919s-1.344,2.547-2.689,5.432C77.557,22.98,69.12,28.706,62.77,26.193a.059.059,0,0,0,.044-.033c1.235-1.158,4.394-7.946,4.394-7.946L78.584,8.99Z" transform="translate(-15.403 -8.99)" fill="#ee756a"/></g><path d="M128.665,38.138c-2.1,4.6-33.509,47.018-33.509,47.018L55.013,57.625s22.47-28.077,27.509-37.531,7.038-8.94,9.224-8.426c1.574.361,5.694,1.836,8.383,2.23-2.448,2.765-3.727,8.273-1.3,9.049,5.191,1.661,14.5-2.328,20.995-7.41,2.448,2.284,9.126,6.995,10.4,9.618C131.736,28.193,130.763,33.548,128.665,38.138Z" transform="translate(35.371 45.029)" fill="#ccb3ab"/><g transform="translate(66.892 35.87)"><g transform="translate(8.202 1.416)"><path d="M88.346,29.344l-1.508.579-34.329-3.5L54.367,9.911,56.05,8.294l34.263,3.5Z" transform="translate(-52.509 -8.294)" fill="#f4952c"/><path d="M86.838,28.57l-34.329-3.5L54.367,8.559l34.329,3.5Z" transform="translate(-52.509 -6.941)" fill="#e07124"/></g><g transform="translate(35.678 3.327)"><path d="M69.123,39.416c-3.355,1.53-14.656-8.754-4.415-23.705l12.066,6.711Z" transform="translate(-39.122 27.668)" fill="#af9691"/><g transform="translate(7.44 21.204)"><path d="M98.952,47.009c-2.546,1.191-6.055,2.743-9.967,4.284-2.82,1.126-5.847,2.24-8.885,3.235-1.049.35-2.077.667-3.1.984-5.486,1.639-10.776,2.7-14.591,2.415-9.508-.7.186-42.974.186-42.974l9.432-2.874.1,23.968s1.7-.7,4.262-1.792c1.945-.842,4.394-1.891,6.929-3.038A133.5,133.5,0,0,0,96.2,24.823c6.667-4.066,11.694-3.5,11.694-3.5C121.969,24.856,108.636,42.473,98.952,47.009Z" transform="translate(-58.227 -12.079)" fill="#f28f7c"/><path d="M75.694,15.805l-1.9,19.476c-2.82,1.126-5.847,2.241-8.885,3.235-1.049.35-2.077.667-3.1.984,4.492-8.3-.6-21.246-.6-21.246,1.945-.842,4.394-1.891,6.929-3.038Z" transform="translate(-43.034 3.933)" fill="#ee756a"/></g><path d="M84.718,41.52c-5.344,3.628-11.847,6.361-19.1,8.732,3.508-11.006-1.355-20.623-4.415-23.705,5.607-2.394,15.257-6.634,19.826-9.432,6.667-4.066,11.694-3.5,11.694-3.5C106.8,17.137,93.494,35.542,84.718,41.52Z" transform="translate(-35.613 16.843)" fill="#dbc6be"/><path d="M78.234,29.8s-3.6,6-3.475,6.47a35.809,35.809,0,0,1-5.956-3.6c-2.273-1.836-2.383-7.661-2.383-7.661a9.9,9.9,0,0,0-2.525-.8c-.754,0-4.426,1.508-5.115.852-.47-.448.087-1.093.47-1.443.1-.087.186-.153.251-.208a1.6,1.6,0,0,1-.885.164,1.034,1.034,0,0,1-.82-.481c-.689-.951,2.754-3.956,3.945-4.23a37.648,37.648,0,0,1,5.836,0,27.2,27.2,0,0,0-4.153-2.153c-1.093-.3-6.481.437-6.415-.842.077-1.191,5.2-1.924,6.918-2.437,1.519-.448,5.2,1.355,6.1,1.814-1.366-.8-9.257-5.377-7.814-6.437,1.607-1.159,11.192,2.8,13.224,4.634S78.234,29.8,78.234,29.8Z" transform="translate(-57.008 -8.607)" fill="#f28f7c"/><path d="M65.942,11.558c-3.082-1.257-5.618.044-8.033,1.628.1-.087.186-.153.251-.208a1.6,1.6,0,0,1-.885.164,8.856,8.856,0,0,1,8.885-2.055C66.532,11.219,66.3,11.711,65.942,11.558Z" transform="translate(-55.646 1.832)" fill="#ee756a"/></g><path d="M69.423,14.669c-.6,1.454-5.279-.087-6.241.12s-4.361,1.443-4.361,1.443,9.694.634,9.257,2.5a1.647,1.647,0,0,1-1.891,1.41.88.88,0,0,1,.492.339.862.862,0,0,1,.12.7c-.219,1.071-5.17,1.639-5.17,1.639s1.126,2.339-.667,6.153c-1.825,3.9-6.776,2.2-6.776,2.2l-3.016-3.421S51,14.483,52.636,12.636c1.618-1.847,10.7-5.137,12.645-4.492,1.869.612-6.459,4.23-7.017,4.481a21.863,21.863,0,0,1,5.629-.667C65.827,12.166,69.74,13.915,69.423,14.669Z" transform="translate(-51.166 -8.062)" fill="#f28f7c"/><path d="M60.1,11.1a.88.88,0,0,1,.492.339,23.806,23.806,0,0,0-2.962-.678c-1.727-.251-3.432-.219-5.159-.361-.12-.011-.164-.164-.033-.208a16.834,16.834,0,0,1,8.918.59A1.819,1.819,0,0,1,60.1,11.1Z" transform="translate(-45.077 0.994)" fill="#ee756a"/></g><g transform="translate(117.303)"><path d="M115.773,39.66s2.929,9.224-7.8,7.366L69.925,39.31s-14.2-2.481-6.372-9.771a17.392,17.392,0,0,1-2.24-2.328c-2.12-2.689-4.011-6.995,3.475-9.071,0,0-3.508-9.388,8.579-8.339,0,0,1.661-10.875,12.033-3.782,0,0,6.055-8.481,11.323-.208,0,0,6.536-3.519,9.782.951a10.134,10.134,0,0,1,1.683,4.918s10.787-1.3,6.514,8.776c0,0,9.06,2.721,2.284,9.782C117,30.25,123.828,35.1,115.773,39.66Z" transform="translate(-59.412 -2.188)" fill="#2f1b12"/><path d="M106.526,6.774c-5.06-2.208-10.317.59-10.317.59-6.142-5.9-10.634.732-10.634.732-7.891-5.814-11.115,3.738-11.115,3.738-10.35.1-7.148,8.088-7.148,8.088-5.17,1.41-6.044,4.831-6,7.29-2.12-2.689-4.011-6.995,3.476-9.071,0,0-3.508-9.388,8.579-8.339,0,0,1.661-10.875,12.033-3.782,0,0,6.055-8.481,11.323-.208C96.755,5.834,103.279,2.315,106.526,6.774Z" transform="translate(-59.421 -2.188)" fill="#44331c"/><path d="M72.44,14.4c-.82,2.109-4.2,2.863-7.541,1.694s-5.4-3.836-4.568-5.945,4.2-2.863,7.541-1.694S73.271,12.295,72.44,14.4Z" transform="translate(-55.719 27.024)" fill="#ee756a"/><g transform="translate(9.833 12.271)"><path d="M99.625,24.644a29.106,29.106,0,0,1-.536,4.011C96.63,40.863,83.756,48.4,71.362,47.344c-9.181-.787-11.935-11.88-9.476-24.088.164-.831.361-1.618.59-2.393A24.769,24.769,0,0,1,70.171,8.72,18.229,18.229,0,0,1,83.362,4.25c9.454.787,14.569,6.448,15.946,13.968A24.439,24.439,0,0,1,99.625,24.644Z" transform="translate(-61.032 -4.197)" fill="#f28f7c"/><path d="M99.774,17.61l-1.355,3.235-3.126,7.443A41.245,41.245,0,0,1,89.369,18.08s-6.241,1.432-7.956-2.011c0,0-6.077,2.011-8.208-1.312,0,0-6.426,4.077-8.568,0,0,0-.721,2.732-3.366,2.328A24.769,24.769,0,0,1,68.964,4.943c6.721.393,25,1.508,25,1.508L98.1,14.441Z" transform="translate(-59.814 -0.388)" fill="#ee756a"/></g><path d="M95.177,34.134s-3.465-8.372-3.8-14.47a6.544,6.544,0,0,1-8.426-2.2s-6.842,3.519-9.3-.754c0,0-6.864,4.547-8.995-.393,0,0-.7,3.071-2.339,2.962s-3.071-8.8,8.175-13.268a24.213,24.213,0,0,1,23.858,2.71c4.415,3.027,6.547,10.569,6.066,14.481-.273,2.164-.24,7.946-1.6,10.3C97.735,35.4,95.177,34.134,95.177,34.134Z" transform="translate(-50.325 7.327)" fill="#2f1b12"/><path d="M78.919,12.193c.175,2.24-2.568,4.251-6.131,4.5s-6.579-1.377-6.754-3.618,2.568-4.251,6.131-4.5C75.728,8.346,78.745,9.952,78.919,12.193Z" transform="translate(-25.695 30.317)" fill="#f28f7c"/></g></g><g transform="translate(349.691 121.205)"><path d="M127.382,58.178c-15.705,26.722-73.7,28.777-73.7,28.777,3.585-.612,7.093-2.984,10.372-6.23,9.093-9.028,16.394-24.919,18.6-29.957C87.633,39.39,97.863,40.92,112.8,39.39c11.41-1.18,20.372-11.967,23.968-16.995,1.1-1.552,1.7-2.547,1.7-2.547S143.077,31.456,127.382,58.178Z" transform="translate(-53.687 -19.849)" fill="#907b30"/><path d="M128.117,20.266c-1.563,5.563-8.842,16.591-20.416,19.148-16.394,3.607-25.574,2.426-28.733,6.94C76.214,50.332,68.018,72.038,55.383,78.6c9.093-9.028,16.394-24.919,18.6-29.957,4.973-11.377,15.2-9.847,30.143-11.377C115.56,36.069,124.522,25.293,128.117,20.266Z" transform="translate(-45.022 -17.719)" fill="#a49e50"/></g></g></g></g></g></g><path d="M112,1A111.825,111.825,0,0,0,89.629,3.255a110.387,110.387,0,0,0-39.689,16.7A111.327,111.327,0,0,0,9.723,68.794,110.435,110.435,0,0,0,3.255,89.629a112.092,112.092,0,0,0,0,44.743,110.387,110.387,0,0,0,16.7,39.689,111.327,111.327,0,0,0,48.838,40.217,110.435,110.435,0,0,0,20.834,6.467,112.092,112.092,0,0,0,44.743,0,110.387,110.387,0,0,0,39.689-16.7,111.327,111.327,0,0,0,40.217-48.838,110.434,110.434,0,0,0,6.467-20.834,112.092,112.092,0,0,0,0-44.743,110.387,110.387,0,0,0-16.7-39.689A111.327,111.327,0,0,0,155.206,9.723a110.434,110.434,0,0,0-20.834-6.467A111.825,111.825,0,0,0,112,1m0-1A112,112,0,1,1,0,112,112,112,0,0,1,112,0Z" transform="translate(955 41)" fill="#e95328"/></g></svg>