<svg xmlns="http://www.w3.org/2000/svg" xmlns:xlink="http://www.w3.org/1999/xlink" width="85" height="85" viewBox="0 0 85 85"><defs><clipPath id="a"><circle cx="42.5" cy="42.5" r="42.5" transform="translate(1217 41)" fill="#8dc04e"/></clipPath><clipPath id="b"><path d="M-1.855-.47h157.3a3.241,3.241,0,0,1,3.415,3.027V71.716a3.241,3.241,0,0,1-3.415,3.027H-1.855a3.241,3.241,0,0,1-3.415-3.027V2.557A3.243,3.243,0,0,1-1.855-.47Z" transform="translate(5.271 0.47)"/></clipPath><clipPath id="c"><path d="M-1.4-.47H177.071a3.672,3.672,0,0,1,3.875,3.424V81.176a3.672,3.672,0,0,1-3.875,3.424H-1.4a3.672,3.672,0,0,1-3.875-3.424V2.954A3.675,3.675,0,0,1-1.4-.47Z" transform="translate(5.271 0.47)"/></clipPath></defs><g transform="translate(-1217 -41)" clip-path="url(#a)"><g transform="translate(1198.826 37.924)"><g transform="translate(0 0)"><g transform="translate(0 0)"><g transform="translate(17.615)"><rect width="87.349" height="88.111" fill="#e61f5b"/></g><g transform="translate(5.313 11.744)"><g transform="translate(0 0)" clip-path="url(#b)"><path d="M22.614,2.491A21.927,21.927,0,0,0,20.221,3.72C8.864,10.533,2.9,23.454,1.9,35.21a34.532,34.532,0,0,0-.121,3.636C2.036,52.978,11.551,67,26.157,72.673s33.558,1.873,42.927-9.566c4.481-5.47,6.65-12.949,3.465-19.093C68.1,35.427,56.286,32.8,50.779,24.982,45.986,18.172,50,8.457,42.162,3.072,36.659-.693,28.561-.116,22.614,2.491Z" transform="translate(13.439 1.476)" fill="#f6f6f6"/></g></g><g transform="translate(0 6.815)"><g clip-path="url(#c)"><g transform="translate(27.371 3.202)"><g transform="translate(0 25.631)"><path d="M14.461,55.214H12.99V30.839L9.655,17.921h1.47l3.335,12.85Z" transform="translate(-0.455 -1.692)" fill="#60515f"/><path d="M20.447,54.569H18.969V30.618l-3.331-12.7h1.47l3.339,12.632Z" transform="translate(8.221 -1.692)" fill="#60515f"/><rect width="1.47" height="22.815" transform="translate(23.859 30.707)" fill="#60515f"/><rect width="1.47" height="22.815" transform="translate(41.422 30.707)" fill="#60515f"/><path d="M27.556,31.011H14.412a5.648,5.648,0,0,1-5.249-3.923l-3.15-12.1c-.532-2.042.862-3.69,3.11-3.69H21.775a5.654,5.654,0,0,1,5.184,3.69l3.649,12.1A2.927,2.927,0,0,1,27.556,31.011Z" transform="translate(-5.9 -11.298)" fill="#a69547"/><path d="M26.793,31.011H14.523a5.341,5.341,0,0,1-4.9-3.923L6.68,14.987a2.844,2.844,0,0,1,2.9-3.69H21.395a5.316,5.316,0,0,1,4.838,3.69l3.408,12.1A2.882,2.882,0,0,1,26.793,31.011Z" transform="translate(-4.924 -11.298)" fill="#927a34"/><g transform="translate(11.017 28.185)"><path d="M44.37,26.176H12.278A1.791,1.791,0,0,1,10.4,24.488h0A1.791,1.791,0,0,1,12.278,22.8h32.1a1.791,1.791,0,0,1,1.881,1.688h0A1.8,1.8,0,0,1,44.37,26.176Z" transform="translate(-10.397 -22.8)" fill="#a69547"/><path d="M42.813,26.176H13.351a1.791,1.791,0,0,1-1.881-1.688h0A1.791,1.791,0,0,1,13.351,22.8H42.817A1.791,1.791,0,0,1,44.7,24.488h0A1.8,1.8,0,0,1,42.813,26.176Z" transform="translate(-8.84 -22.8)" fill="#927a34"/></g></g><g transform="translate(8.276 17.378)"><path d="M16.047,8.573s-6-2.646-6.695,2.8c-.479,3.766,1.39,18.179,4.129,18.876s4.1-6.05,4.1-6.05Z" transform="translate(-9.278 -7.929)" fill="#60515f"/><path d="M17.632,14.342s-5.511-2.522-7.96,1.724a5.135,5.135,0,0,0,1.921,4.58s4.121-2.05,5.74-2.05Z" transform="translate(-8.747 0.292)" fill="#786876"/></g><g transform="translate(10.618)"><g transform="translate(17.377 18.238)"><path d="M17.326,12.745l.544-4.226a4.7,4.7,0,0,1,3.879.435c1.635,1.2,6.489,12.358,6.489,12.358l-5.756,5.132Z" transform="translate(-17.326 -8.28)" fill="#4d404c"/><path d="M18.553,18.358c-.036-.189,2.574-6.618,8.874-5.474s3.94,3.96,3.94,3.96L21,21.879Z" transform="translate(-15.548 -1.802)" fill="#786876"/></g><g transform="translate(0 17.144)"><path d="M17.344,8.521s-4.616-.955-6.888.338c-1.019.58,1.724,5.664,3.2,11.38A109.647,109.647,0,0,1,16.2,34.994l19.142-2.6S31.116,18.3,30.963,13.182,29.48,8.324,25.839,9.1,17.344,8.521,17.344,8.521Z" transform="translate(-10.234 -7.329)" fill="#60515f"/><path d="M12.992,8.692s2.993,7.17,6.324,6.437,3.7-7.295,3.7-7.295Z" transform="translate(-6.233 -7.834)" fill="#ee756a"/></g><g transform="translate(1.212)"><path d="M22.04,6.8c.479.818-.266,2.014-1.656,2.667s-2.9.524-3.384-.3.266-2.014,1.656-2.667S21.565,5.981,22.04,6.8Z" transform="translate(-1.843 6.78)" fill="#ee756a"/><path d="M26.611,11.364c.318,4.632-2.284,8.5-6.3,8.725s-7.923-3.275-8.246-7.907a8.022,8.022,0,0,1,6.691-8.8C26.639,2.268,26.293,6.731,26.611,11.364Z" transform="translate(-8.823 2.602)" fill="#f28f7c"/><g transform="translate(1.326)"><path d="M29.352,10.758c-.564.443-1.011.749-1.011.749l-.584,3.968a14.592,14.592,0,0,0-.87-4.455s-9.841.516-10.679.58c0,0-.427,3.126-1.579,4.6H12.711s-1.788-4.7-1.382-7.09,1.978-4.975,2.739-4.689.407,1.9.407,1.9,1.023-.769,2.433-1.732a.018.018,0,0,0,.012,0c2.606-1.772,6.514-4.2,7.7-3.678,1.764.777-.117,3.19-.242,3.347.254-.085,5.551-1.869,6.389-.64.85,1.249-2.792,4.367-2.792,4.367s3.323-.689,3.73.081C31.982,8.579,30.443,9.908,29.352,10.758Z" transform="translate(-11.27 -0.837)" fill="#291612"/><path d="M26,10.753a3.284,3.284,0,0,0,.6-1.853c-.209-.858-3.843.189-3.843.189S26.4,5.408,25.833,4.522,19.408,5.6,19.408,5.6s1.382-2.473.318-3.053c-.685-.371-3.94,1.023-6.147,2.042,2.606-1.772,6.514-4.2,7.7-3.678,1.764.777-.117,3.19-.242,3.347.254-.085,5.551-1.869,6.389-.64.85,1.249-2.792,4.367-2.792,4.367s3.323-.689,3.73.081C28.633,8.574,27.094,9.9,26,10.753Z" transform="translate(-7.92 -0.832)" fill="#5a3b2f"/></g><path d="M16.215,9.007c-.31.882-1.776,1.249-3.275.826S10.479,8.35,10.785,7.468s1.776-1.249,3.275-.826S16.521,8.124,16.215,9.007Z" transform="translate(-10.729 7.327)" fill="#f28f7c"/></g><g transform="translate(0.4 14.77)"><path d="M13.849,15.845a12.61,12.61,0,0,1-1.877-4.886c-.169-2.276.665-4.326,1.313-4.072s-.016,3.561-.016,3.561.632-3.593,1.482-3.359-.185,4.306-.185,4.306.914-3,1.535-2.884-.338,4.193-.338,4.193.4-2.526,1.184-2.469-.262,3.194-.262,3.194,1.974,1.768.81,3.919Z" transform="translate(-8.146 -6.865)" fill="#f4a492"/><path d="M16.1,10.53S9.981,22.381,10.42,24.785c.246,1.333,1.772,2.03,3.037,2.087s3.021-.491,3.8-3.722c.959-3.968,2.493-11.13,2.493-11.13Z" transform="translate(-10.397 -1.55)" fill="#f4a492"/></g><g transform="translate(5.97 38.926)"><path d="M34.451,26.451l-17.22.983L31.176,19.6Z" transform="translate(-6.057 -12.548)" fill="#d9c6c0"/><g transform="translate(41.192 20.292)"><path d="M33.466,25.005c.044.35,3.694,4.709,3.694,4.709l-3.984,2.832-3.694-4.028Z" transform="translate(-29.482 -25.005)" fill="#f28f7c"/><g transform="translate(3.46 2.689)"><path d="M32.932,34.636a1.323,1.323,0,0,1-.556-.371A9.28,9.28,0,0,1,30.894,30.7l3.863-3.009s4.991-1.7,7.1-1.583a1.51,1.51,0,0,1,.693.165C43.852,27.071,34.265,35.043,32.932,34.636Z" transform="translate(-30.894 -26.102)" fill="#60515f"/><path d="M32.055,34.632a1.323,1.323,0,0,1-.556-.371c1.668-1.027,6.711-4.326,9.478-8.157a1.51,1.51,0,0,1,.693.165C42.975,27.068,33.388,35.039,32.055,34.632Z" transform="translate(-30.016 -26.099)" fill="#837a85"/><g transform="translate(3.948 0.479)"><g transform="translate(0 0.641)"><path d="M32.988,28.817s0,0-.008,0a.317.317,0,0,1-.371-.189l-.036-.109a.259.259,0,0,1-.012-.109,3.717,3.717,0,0,1,.081-1.643.307.307,0,0,1,.371-.2.276.276,0,0,1,.226.334,3.307,3.307,0,0,0-.032,1.6A.269.269,0,0,1,32.988,28.817Z" transform="translate(-32.505 -26.56)" fill="#837a85"/></g><g transform="translate(1.227 0.282)"><path d="M33.515,28.59a.321.321,0,0,1-.379-.185v0a2.828,2.828,0,0,1,.032-1.8.314.314,0,0,1,.387-.177.271.271,0,0,1,.2.346,2.337,2.337,0,0,0-.028,1.474.268.268,0,0,1-.209.342Z" transform="translate(-33.006 -26.413)" fill="#837a85"/></g><g transform="translate(2.434)"><path d="M33.916,28.3a.238.238,0,0,1-.056.008.3.3,0,0,1-.334-.25,4.5,4.5,0,0,1,.1-1.539.308.308,0,0,1,.363-.213.278.278,0,0,1,.238.326A4.147,4.147,0,0,0,34.138,28,.274.274,0,0,1,33.916,28.3Z" transform="translate(-33.498 -26.298)" fill="#837a85"/></g></g></g></g><path d="M12.67,22.607s1.954,11.206,10.61,9.14,20.668-7.21,20.668-7.21l11.17,20.149,5.893-5.027S50.768,17.894,47.139,16.975c-5.22-1.329-15.331,3.041-15.331,3.041Z" transform="translate(-12.67 -16.724)" fill="#ccb3ac"/><g transform="translate(22.533 7.058)"><g transform="translate(13.788 21.762)"><path d="M32.384,28.485c-.064.346,2.147,5.43,2.147,5.43L29.847,35.68l-2.352-4.773Z" transform="translate(-27.494 -28.485)" fill="#f28f7c"/><g transform="translate(2.15 4.541)"><path d="M29.214,36.832a1.177,1.177,0,0,1-.423-.5c-.632-1.212-.363-3.79-.363-3.79l4.616-1.966s5.313-.439,7.311.193a1.443,1.443,0,0,1,.616.326C41.992,32.188,30.374,37.549,29.214,36.832Z" transform="translate(-28.372 -30.203)" fill="#60515f"/><path d="M28.966,36.63a1.177,1.177,0,0,1-.423-.5c1.917-.584,7.762-2.542,11.569-5.563a1.443,1.443,0,0,1,.616.326C41.743,31.986,30.126,37.347,28.966,36.63Z" transform="translate(-28.123 -30.001)" fill="#837a85"/><g transform="translate(4.379)"><g transform="translate(0 0.039)"><path d="M30.469,32.558h-.008a.294.294,0,0,1-.3-.274v-.113a.24.24,0,0,1,.024-.109,4.016,4.016,0,0,1,.564-1.567.326.326,0,0,1,.419-.1.26.26,0,0,1,.117.375,3.358,3.358,0,0,0-.512,1.535A.29.29,0,0,1,30.469,32.558Z" transform="translate(-30.159 -30.355)" fill="#837a85"/></g><g transform="translate(1.333)"><path d="M31.013,32.464a.3.3,0,0,1-.31-.274v0a2.917,2.917,0,0,1,.568-1.724.339.339,0,0,1,.427-.081.262.262,0,0,1,.089.383,2.371,2.371,0,0,0-.467,1.414.29.29,0,0,1-.306.286Z" transform="translate(-30.703 -30.339)" fill="#837a85"/></g><g transform="translate(2.548 0.023)"><path d="M31.511,32.277a.266.266,0,0,1-.056,0,.28.28,0,0,1-.25-.318,4.811,4.811,0,0,1,.548-1.458.327.327,0,0,1,.415-.117.261.261,0,0,1,.129.371,4.29,4.29,0,0,0-.491,1.3A.286.286,0,0,1,31.511,32.277Z" transform="translate(-31.199 -30.348)" fill="#837a85"/></g></g></g></g><path d="M21.867,23.807l2.981,2.663L36.179,47.9l6.509-2.759S34.874,18.743,30.1,19.626A18.145,18.145,0,0,0,21.867,23.807Z" transform="translate(-21.867 -19.604)" fill="#d9c6c0"/></g></g></g><g transform="translate(4.125 25.228)"><g transform="translate(15.686)"><g transform="translate(0 13.978)"><rect width="32.588" height="0.89" fill="#bcaf8f"/><rect width="12.548" height="0.89" fill="#d3cca5"/><g transform="translate(0.838 0.226)"><path d="M19.062,17.159a.243.243,0,0,1-.254.23.25.25,0,0,1-.258-.23.245.245,0,0,1,.258-.23A.241.241,0,0,1,19.062,17.159Z" transform="translate(-8.202 -16.93)" fill="#bcaf8f"/><rect width="1.877" height="0.29" transform="translate(7.923 0.105)" fill="#bcaf8f"/><rect width="1.881" height="0.29" transform="translate(4.673 0.077)" fill="#bcaf8f"/><rect width="1.881" height="0.29" transform="translate(0 0.077)" fill="#bcaf8f"/></g></g><g transform="translate(12.334)"><path d="M41.069,25.256l-22.05-.024,4.83-14.09,22.09-.008Z" transform="translate(-19.019 -11.133)" fill="#e4e6bd"/><path d="M40.719,24.984l-21.458-.02,4.673-13.631,21.5-.012Z" transform="translate(-18.669 -10.861)" fill="#d3cca5"/></g></g><g transform="translate(0 14.864)"><path d="M19.489,56.965h0a.756.756,0,0,1-.794-.717V18.408a.758.758,0,0,1,.794-.717h0a.756.756,0,0,1,.794.717v37.84A.756.756,0,0,1,19.489,56.965Z" transform="translate(8.531 -16.487)" fill="#4d404c"/><path d="M9.8,56.965h0a.756.756,0,0,1-.794-.717V18.408a.759.759,0,0,1,.794-.717h0a.756.756,0,0,1,.794.717v37.84A.756.756,0,0,1,9.8,56.965Z" transform="translate(-5.519 -16.487)" fill="#4d404c"/><path d="M32.066,56.965h0a.756.756,0,0,1-.794-.717V18.408a.759.759,0,0,1,.794-.717h0a.756.756,0,0,1,.794.717v37.84A.758.758,0,0,1,32.066,56.965Z" transform="translate(26.77 -16.487)" fill="#4d404c"/><rect width="61.441" height="2.421" fill="#d38348"/></g></g></g></g></g></g></g></g></g></svg>