<svg xmlns="http://www.w3.org/2000/svg" xmlns:xlink="http://www.w3.org/1999/xlink" width="223" height="223" viewBox="0 0 223 223"><defs><clipPath id="a"><circle cx="111.5" cy="111.5" r="111.5" transform="translate(1217 41)" fill="#8dc04e"/></clipPath><clipPath id="b"><path d="M3.69-.47H416.364c4.946,0,8.96,3.56,8.96,7.942V188.913c0,4.382-4.014,7.942-8.96,7.942H3.69c-4.946,0-8.96-3.56-8.96-7.942V7.472C-5.261,3.09-1.256-.47,3.69-.47Z" transform="translate(5.271 0.47)"/></clipPath><clipPath id="c"><path d="M4.9-.47H473.109c5.612,0,10.166,4.026,10.166,8.983V213.732c0,4.956-4.555,8.983-10.166,8.983H4.9c-5.612,0-10.166-4.026-10.166-8.983V8.513C-5.26,3.556-.716-.47,4.9-.47Z" transform="translate(5.271 0.47)"/></clipPath></defs><g transform="translate(-1217 -41)" clip-path="url(#a)"><g transform="translate(1169.319 32.931)"><g transform="translate(0 0)"><g transform="translate(0 0)"><g transform="translate(46.214)"><rect width="229.162" height="231.161" fill="#e61f5b"/></g><g transform="translate(13.938 30.81)"><g transform="translate(0 0)" clip-path="url(#b)"><path d="M56.449,5.9a57.527,57.527,0,0,0-6.278,3.224C20.374,27,4.726,60.9,2.109,91.738a90.6,90.6,0,0,0-.317,9.54c.671,37.075,25.633,73.86,63.953,88.745s88.04,4.915,112.62-25.1c11.755-14.352,17.446-33.973,9.091-50.091C175.776,92.308,144.787,85.412,130.34,64.9,117.766,47.039,128.3,21.55,107.734,7.422,93.3-2.454,72.051-.94,56.449,5.9Z" transform="translate(38.139 4.51)" fill="#f6f6f6"/></g></g><g transform="translate(0 17.88)"><g clip-path="url(#c)"><g transform="translate(71.808 8.402)"><g transform="translate(0 67.244)"><path d="M22.263,115.759H18.405V51.813L9.655,17.921h3.857l8.75,33.712Z" transform="translate(14.483 24.657)" fill="#60515f"/><path d="M28.256,114.068H24.377V51.231l-8.74-33.31h3.857l8.761,33.141Z" transform="translate(46.957 24.657)" fill="#60515f"/><rect width="3.857" height="59.857" transform="translate(62.595 80.559)" fill="#60515f"/><rect width="3.857" height="59.857" transform="translate(108.671 80.559)" fill="#60515f"/><path d="M62.714,63.017H28.231c-6.129,0-12.3-4.629-13.77-10.293L6.2,20.978C4.8,15.62,8.458,11.3,14.355,11.3H47.549c5.9,0,11.984,4.312,13.6,9.68l9.575,31.746C72.426,58.4,68.844,63.017,62.714,63.017Z" transform="translate(-5.9 -11.298)" fill="#a69547"/><path d="M59.619,63.017H27.429c-5.728,0-11.477-4.629-12.861-10.293L6.853,20.978c-1.31-5.358,2.114-9.68,7.619-9.68H45.458a13.948,13.948,0,0,1,12.692,9.68l8.94,31.746C68.676,58.4,65.347,63.017,59.619,63.017Z" transform="translate(-2.245 -11.298)" fill="#927a34"/><g transform="translate(28.904 73.944)"><path d="M99.527,31.656H15.332A4.7,4.7,0,0,1,10.4,27.228h0A4.7,4.7,0,0,1,15.332,22.8H99.537a4.7,4.7,0,0,1,4.935,4.428h0A4.721,4.721,0,0,1,99.527,31.656Z" transform="translate(-10.397 -22.8)" fill="#a69547"/><path d="M93.7,31.656H16.405a4.7,4.7,0,0,1-4.935-4.428h0A4.7,4.7,0,0,1,16.405,22.8h77.3a4.7,4.7,0,0,1,4.935,4.428h0A4.721,4.721,0,0,1,93.7,31.656Z" transform="translate(-4.569 -22.8)" fill="#927a34"/></g></g><g transform="translate(21.711 45.593)"><path d="M27.038,9.617S11.292,2.674,9.475,16.952C8.217,26.833,13.12,64.645,20.307,66.473S31.065,50.6,31.065,50.6Z" transform="translate(-9.278 -7.929)" fill="#60515f"/><path d="M30.6,15.548S16.144,8.933,9.718,20.071c-.507,4.238,1.606,9.955,5.041,12.016,0,0,10.811-5.379,15.059-5.379Z" transform="translate(-7.292 22.842)" fill="#786876"/></g><g transform="translate(27.858)"><g transform="translate(45.59 47.849)"><path d="M17.326,19.992,18.753,8.907s5.876-2,10.177,1.141S45.955,42.471,45.955,42.471l-15.1,13.464Z" transform="translate(-17.326 -8.28)" fill="#4d404c"/><path d="M18.553,27.467c-.1-.5,6.753-17.363,23.281-14.362S52.17,23.494,52.17,23.494L24.979,36.7Z" transform="translate(-10.67 15.97)" fill="#786876"/></g><g transform="translate(0 44.977)"><path d="M28.886,9.072s-12.111-2.5-18.071.888c-2.674,1.522,4.523,14.859,8.391,29.854a287.662,287.662,0,0,1,6.69,38.71l50.219-6.816s-11.1-36.977-11.5-50.409S60.728,8.554,51.174,10.583C41.621,12.633,28.886,9.072,28.886,9.072Z" transform="translate(-10.234 -5.944)" fill="#60515f"/><path d="M12.992,10.085S20.844,28.9,29.584,26.972,39.3,7.834,39.3,7.834Z" transform="translate(4.741 -7.834)" fill="#ee756a"/></g><g transform="translate(3.18)"><path d="M30.458,7.961c1.258,2.145-.7,5.284-4.343,7s-7.619,1.374-8.877-.782.7-5.284,4.343-7S29.211,5.805,30.458,7.961Z" transform="translate(22.531 27.674)" fill="#ee756a"/><path d="M50.264,24.605C51.1,36.758,44.272,46.9,33.735,47.5S12.948,38.9,12.1,26.75,19.226,5.139,29.656,3.659C50.338.743,49.429,12.452,50.264,24.605Z" transform="translate(-3.595 12.034)" fill="#f28f7c"/><g transform="translate(3.478)"><path d="M58.709,26.865c-1.48,1.162-2.653,1.966-2.653,1.966L54.524,39.241c-.518-4.787-1.036-9.5-2.283-11.688,0,0-25.818,1.353-28.016,1.522,0,0-1.12,8.2-4.143,12.079h-5.03s-4.692-12.333-3.625-18.6,5.189-13.051,7.186-12.3c2.018.74,1.067,4.978,1.067,4.978s2.684-2.018,6.383-4.544a.046.046,0,0,0,.032-.011c6.837-4.65,17.088-11.022,20.2-9.649,4.629,2.04-.306,8.37-.634,8.782.666-.222,14.563-4.9,16.761-1.68,2.23,3.276-7.324,11.456-7.324,11.456s8.719-1.807,9.786.211C65.609,21.148,61.573,24.636,58.709,26.865Z" transform="translate(-11.27 -0.837)" fill="#291612"/><path d="M46.171,26.848c.962-1.712,1.881-3.73,1.585-4.861-.55-2.251-10.082.5-10.082.5s9.532-9.659,8.053-11.984-16.856,2.832-16.856,2.832,3.625-6.489.835-8.011C27.91,4.348,19.371,8,13.579,10.679c6.837-4.65,17.088-11.022,20.2-9.649,4.629,2.04-.306,8.37-.634,8.782.666-.222,14.563-4.9,16.761-1.68,2.23,3.276-7.324,11.456-7.324,11.456s8.719-1.807,9.786.211C53.072,21.13,49.035,24.618,46.171,26.848Z" transform="translate(1.268 -0.819)" fill="#5a3b2f"/></g><path d="M25.123,13.131c-.814,2.314-4.66,3.276-8.592,2.166s-6.457-3.889-5.654-6.2,4.66-3.276,8.592-2.166S25.926,10.816,25.123,13.131Z" transform="translate(-10.729 29.722)" fill="#f28f7c"/></g><g transform="translate(1.051 38.749)"><path d="M16.932,30.424c-.211-.444-4.481-6.848-4.925-12.819s1.744-11.35,3.445-10.684-.042,9.342-.042,9.342S17.07,6.836,19.3,7.449s-.486,11.3-.486,11.3,2.4-7.863,4.026-7.567-.888,11-.888,11,1.057-6.626,3.107-6.478-.687,8.38-.687,8.38S29.55,28.722,26.5,34.366Z" transform="translate(-1.972 -6.865)" fill="#f4a492"/><path d="M25.357,10.53S9.3,41.621,10.456,47.93c.645,3.5,4.65,5.326,7.968,5.474s7.926-1.289,9.976-9.765c2.515-10.409,6.542-29.2,6.542-29.2Z" transform="translate(-10.397 13.029)" fill="#f4a492"/></g><g transform="translate(15.662 102.124)"><path d="M62.409,37.568,17.231,40.147,53.817,19.6Z" transform="translate(12.085 -1.094)" fill="#d9c6c0"/><g transform="translate(108.068 53.236)"><path d="M39.933,25.005c.116.919,9.691,12.354,9.691,12.354L39.172,44.788,29.482,34.22Z" transform="translate(-29.482 -25.005)" fill="#f28f7c"/><g transform="translate(9.078 7.054)"><path d="M36.241,48.491a3.472,3.472,0,0,1-1.458-.972c-2.547-2.663-3.889-9.353-3.889-9.353l10.135-7.894S54.122,25.8,59.66,26.119a3.962,3.962,0,0,1,1.818.433C64.891,28.644,39.739,49.558,36.241,48.491Z" transform="translate(-30.894 -26.102)" fill="#60515f"/><path d="M32.957,48.477a3.472,3.472,0,0,1-1.458-.972c4.375-2.695,17.606-11.35,24.866-21.4a3.962,3.962,0,0,1,1.818.433C61.607,28.631,36.455,49.545,32.957,48.477Z" transform="translate(-27.61 -26.089)" fill="#837a85"/><g transform="translate(10.357 1.257)"><g transform="translate(0 1.682)"><path d="M33.773,32.481c-.011,0-.011,0-.021.011a.832.832,0,0,1-.972-.5l-.1-.285a.68.68,0,0,1-.032-.285,9.752,9.752,0,0,1,.211-4.312.8.8,0,0,1,.972-.528.724.724,0,0,1,.592.877,8.675,8.675,0,0,0-.085,4.2A.705.705,0,0,1,33.773,32.481Z" transform="translate(-32.505 -26.56)" fill="#837a85"/></g><g transform="translate(3.218 0.74)"><path d="M34.342,32.125a.841.841,0,0,1-.993-.486v-.011a7.418,7.418,0,0,1,.085-4.713.824.824,0,0,1,1.015-.465.71.71,0,0,1,.518.909,6.132,6.132,0,0,0-.074,3.868.7.7,0,0,1-.55.9Z" transform="translate(-33.006 -26.413)" fill="#837a85"/></g><g transform="translate(6.386)"><path d="M34.594,31.545a.624.624,0,0,1-.148.021.782.782,0,0,1-.877-.655,11.806,11.806,0,0,1,.254-4.037.807.807,0,0,1,.951-.56.728.728,0,0,1,.623.856,10.881,10.881,0,0,0-.222,3.6A.719.719,0,0,1,34.594,31.545Z" transform="translate(-33.498 -26.298)" fill="#837a85"/></g></g></g></g><path d="M12.67,32.158s5.125,29.4,27.836,23.979S94.73,37.22,94.73,37.22l29.3,52.861L139.5,76.892s-26.874-57.1-36.4-59.508C89.4,13.9,62.879,25.362,62.879,25.362Z" transform="translate(-12.67 -16.724)" fill="#ccb3ac"/><g transform="translate(59.117 18.516)"><g transform="translate(36.174 57.092)"><path d="M40.324,28.485c-.169.909,5.633,14.246,5.633,14.246L33.666,47.36,27.494,34.837Z" transform="translate(-27.494 -28.485)" fill="#f28f7c"/><g transform="translate(5.641 11.914)"><path d="M30.583,47.223a3.089,3.089,0,0,1-1.11-1.3c-1.659-3.181-.951-9.944-.951-9.944l12.111-5.157s13.939-1.152,19.181.507a3.787,3.787,0,0,1,1.617.856C64.1,35.038,33.626,49.1,30.583,47.223Z" transform="translate(-28.372 -29.832)" fill="#60515f"/><path d="M29.653,46.466a3.089,3.089,0,0,1-1.11-1.3c5.03-1.532,20.364-6.668,30.351-14.594a3.787,3.787,0,0,1,1.617.856C63.174,34.281,32.7,48.347,29.653,46.466Z" transform="translate(-27.442 -29.075)" fill="#837a85"/><g transform="translate(11.49)"><g transform="translate(0 0.101)"><path d="M30.973,36.136h-.021a.772.772,0,0,1-.793-.719v-.3a.629.629,0,0,1,.063-.285,10.536,10.536,0,0,1,1.48-4.111.856.856,0,0,1,1.1-.275.681.681,0,0,1,.306.983,8.809,8.809,0,0,0-1.342,4.026A.76.76,0,0,1,30.973,36.136Z" transform="translate(-30.159 -30.355)" fill="#837a85"/></g><g transform="translate(3.498)"><path d="M31.517,35.915A.785.785,0,0,1,30.7,35.2v-.011a7.653,7.653,0,0,1,1.49-4.523.889.889,0,0,1,1.12-.211.686.686,0,0,1,.233,1,6.22,6.22,0,0,0-1.226,3.709.76.76,0,0,1-.8.75Z" transform="translate(-30.703 -30.339)" fill="#837a85"/></g><g transform="translate(6.686 0.061)"><path d="M32.016,35.409a.7.7,0,0,1-.148-.011.735.735,0,0,1-.655-.835,12.621,12.621,0,0,1,1.437-3.826.857.857,0,0,1,1.089-.306.685.685,0,0,1,.338.972,11.254,11.254,0,0,0-1.289,3.413A.75.75,0,0,1,32.016,35.409Z" transform="translate(-31.199 -30.348)" fill="#837a85"/></g></g></g></g><path d="M21.867,30.63l7.82,6.985L59.415,93.827l17.078-7.239s-20.5-69.241-33.014-66.927S21.867,30.63,21.867,30.63Z" transform="translate(-21.867 -19.604)" fill="#d9c6c0"/></g></g></g><g transform="translate(10.822 66.187)"><g transform="translate(41.152)"><g transform="translate(0 36.671)"><rect width="85.495" height="2.336" fill="#bcaf8f"/><rect width="32.919" height="2.336" fill="#d3cca5"/><g transform="translate(2.198 0.592)"><path d="M19.893,17.532a.638.638,0,0,1-.666.6.655.655,0,0,1-.676-.6.642.642,0,0,1,.676-.6A.632.632,0,0,1,19.893,17.532Z" transform="translate(8.598 -16.93)" fill="#bcaf8f"/><rect width="4.925" height="0.761" transform="translate(20.787 0.275)" fill="#bcaf8f"/><rect width="4.935" height="0.761" transform="translate(12.259 0.201)" fill="#bcaf8f"/><rect width="4.935" height="0.761" transform="translate(0 0.201)" fill="#bcaf8f"/></g></g><g transform="translate(32.359)"><path d="M76.868,48.184l-57.849-.063L31.69,11.154l57.955-.021Z" transform="translate(-19.019 -11.133)" fill="#e4e6bd"/><path d="M75.556,47.167l-56.3-.053L31.52,11.352l56.4-.032Z" transform="translate(-17.708 -10.116)" fill="#d3cca5"/></g></g><g transform="translate(0 38.996)"><path d="M20.777,120.729h0a1.983,1.983,0,0,1-2.082-1.881V19.572a1.99,1.99,0,0,1,2.082-1.881h0a1.983,1.983,0,0,1,2.082,1.881v99.275A1.983,1.983,0,0,1,20.777,120.729Z" transform="translate(52.733 -14.531)" fill="#4d404c"/><path d="M11.089,120.729h0a1.983,1.983,0,0,1-2.082-1.881V19.572a1.99,1.99,0,0,1,2.082-1.881h0a1.983,1.983,0,0,1,2.082,1.881v99.275A1.983,1.983,0,0,1,11.089,120.729Z" transform="translate(0.144 -14.531)" fill="#4d404c"/><path d="M33.354,120.729h0a1.983,1.983,0,0,1-2.082-1.881V19.572a1.99,1.99,0,0,1,2.082-1.881h0a1.983,1.983,0,0,1,2.082,1.881v99.275A1.99,1.99,0,0,1,33.354,120.729Z" transform="translate(121.002 -14.531)" fill="#4d404c"/><rect width="161.193" height="6.351" fill="#d38348"/></g></g></g></g></g></g></g></g></g></svg>