<svg xmlns="http://www.w3.org/2000/svg" xmlns:xlink="http://www.w3.org/1999/xlink" width="85" height="85" viewBox="0 0 85 85"><defs><clipPath id="a"><circle cx="42.5" cy="42.5" r="42.5" transform="translate(1373 41)" fill="#8dc04e"/></clipPath><clipPath id="b"><rect width="93.947" height="87.349"/></clipPath><clipPath id="c"><rect width="177.855" height="83.77"/></clipPath><linearGradient id="d" x1="0.648" y1="-0.588" x2="0.481" y2="0.135" gradientUnits="objectBoundingBox"><stop offset="0" stop-color="#9b99c3" stop-opacity="0"/><stop offset="1" stop-color="#9b99c3"/></linearGradient><linearGradient id="e" x1="0.618" y1="-1.193" x2="0.45" y2="-0.197" xlink:href="#d"/><linearGradient id="f" x1="0.622" y1="-1.152" x2="0.455" y2="-0.183" xlink:href="#d"/><linearGradient id="g" x1="0.641" y1="-0.79" x2="0.474" y2="0.014" xlink:href="#d"/><linearGradient id="h" x1="0.618" y1="-1.347" x2="0.451" y2="-0.298" xlink:href="#d"/><linearGradient id="i" x1="0.655" y1="-0.628" x2="0.488" y2="0.097" xlink:href="#d"/><clipPath id="j"><path d="M61.027,15.329l-.621-.449a1.161,1.161,0,0,1-.31-1.547l.4-.654a1.16,1.16,0,0,0-.721-1.736l-.742-.176a1.164,1.164,0,0,1-.88-1.312l.122-.755a1.139,1.139,0,0,0-.327-1h0a1.151,1.151,0,0,0-1-.327l-.755.122a1.157,1.157,0,0,1-1.312-.88L54.7,5.87a1.161,1.161,0,0,0-1.736-.721l-.654.4a1.157,1.157,0,0,1-1.547-.31l-.449-.621a1.161,1.161,0,0,0-1.883,0l-.449.621a1.161,1.161,0,0,1-1.547.31l-.654-.4a1.161,1.161,0,0,0-1.736.717l-.176.742a1.164,1.164,0,0,1-1.312.88L41.8,7.367a1.162,1.162,0,0,0-1.342,1.044v.025a1.351,1.351,0,0,0,.013.26l.122.755a1.157,1.157,0,0,1-.88,1.312l-.742.176a1.157,1.157,0,0,0-.717,1.736l.4.654a1.157,1.157,0,0,1-.31,1.547l-.621.444a1.161,1.161,0,0,0,0,1.883l.621.449a1.161,1.161,0,0,1,.31,1.547l-.4.654a1.161,1.161,0,0,0,.717,1.736l.742.176a1.164,1.164,0,0,1,.88,1.312l-.122.755a1.139,1.139,0,0,0,.327,1h0a1.151,1.151,0,0,0,1,.327l.755-.122a1.157,1.157,0,0,1,1.312.88l.176.742a1.157,1.157,0,0,0,1.736.717l.654-.4a1.161,1.161,0,0,1,1.547.31l.449.621a1.161,1.161,0,0,0,1.883,0l.449-.621a1.161,1.161,0,0,1,1.547-.31l.654.4a1.161,1.161,0,0,0,1.736-.717l.176-.742a1.164,1.164,0,0,1,1.312-.88l.755.122a1.127,1.127,0,0,0,.264.013h.025a1.16,1.16,0,0,0,1.044-1.342l-.122-.755a1.161,1.161,0,0,1,.88-1.312l.742-.176a1.16,1.16,0,0,0,.721-1.736l-.4-.654a1.157,1.157,0,0,1,.31-1.547l.621-.449A1.16,1.16,0,0,0,61.027,15.329Z" transform="translate(-37.243 -4.135)"/></clipPath><linearGradient id="l" x1="0.5" y1="1.998" x2="0.5" y2="2.92" gradientUnits="objectBoundingBox"><stop offset="0" stop-color="#bd3118"/><stop offset="1" stop-color="#e20e18" stop-opacity="0"/></linearGradient></defs><g transform="translate(-1373 -41)" clip-path="url(#a)"><g transform="translate(1291.777 38.763)"><g transform="translate(76.75)"><g clip-path="url(#b)"><path d="M1.194-1.383h99.194c1.273,0,2.306,1.81,2.306,4.044V88.917c0,2.234-1.033,4.044-2.306,4.044H1.194c-1.273,0-2.306-1.81-2.306-4.044V2.661C-1.113.427-.082-1.383,1.194-1.383Z" transform="translate(-0.346 -1.992)" fill="#5a4495"/><path d="M1.158-1.274h99.194c1.191,0,2.154,1.692,2.154,3.773V88.755c0,2.081-.963,3.773-2.154,3.773H1.158C-.033,92.528-1,90.836-1,88.755V2.5C-1,.418-.033-1.274,1.158-1.274Z" transform="translate(-0.31 -1.835)" fill="#5a4495"/></g></g><g transform="translate(0 3.579)"><g clip-path="url(#c)"><g transform="translate(83.645 21.526)"><g transform="translate(0 0.247)"><g transform="translate(28.691 53.134)"><path d="M71.2,41.275H44.419V32.009H67.978c-.256,4.2.864,7.979,3.224,8.3C71.2,40.319,71.2,40.793,71.2,41.275Z" transform="translate(-44.419 -32.009)" fill="#555287"/><rect width="20.792" height="5.115" transform="translate(0 4.151)" fill="#7d789e"/></g><path d="M110.878,64.564H35.824A3.668,3.668,0,0,1,32.159,60.9V12.968A3.668,3.668,0,0,1,35.824,9.3h75.054a3.668,3.668,0,0,1,3.664,3.664V60.9A3.662,3.662,0,0,1,110.878,64.564Z" transform="translate(-32.159 -9.304)" fill="#555287"/><path d="M109.179,64.564H35.438a3.278,3.278,0,0,1-3.279-3.279v-48.7A3.278,3.278,0,0,1,35.438,9.3h73.741a3.278,3.278,0,0,1,3.279,3.279v48.7A3.278,3.278,0,0,1,109.179,64.564Z" transform="translate(-32.159 -9.304)" fill="#7d789e"/><g transform="translate(3.379 4.109)"><path d="M103.743,58.1H36.882A3.278,3.278,0,0,1,33.6,54.823V14.338a3.278,3.278,0,0,1,3.279-3.279h66.861a3.278,3.278,0,0,1,3.279,3.279V54.823A3.275,3.275,0,0,1,103.743,58.1Z" transform="translate(-33.603 -11.06)" fill="#d3e0e9"/><g transform="translate(8.276 4.843)"><rect width="4.721" height="42.204" transform="translate(55.83)" fill="url(#d)"/><rect width="4.721" height="30.624" transform="translate(47.797 11.505)" fill="url(#e)"/><rect width="4.721" height="31.454" transform="translate(29.357 10.746)" fill="url(#f)"/><rect width="4.721" height="37.902" transform="translate(20.314 4.226)" fill="url(#g)"/><rect width="4.721" height="29.051" transform="translate(10.431 13.148)" fill="url(#h)"/><rect width="4.721" height="42.04" transform="translate(0 0.159)" fill="url(#i)"/></g></g></g><g transform="translate(8.644)"><g transform="translate(37.204 16.921)"><path d="M63.087,24.722c-1.623,1.9-8.767,10.176-9.673,10.331s-1.9-8.088-1.614-11.45c1.363-.256,2.377-.423,2.583-.91a1.024,1.024,0,0,0,.042-.1c.008-.021.017-.042.025-.067a18.359,18.359,0,0,0,.734-4.256c.008-.117.013-.18.013-.18l6.771-1.66s-.017.067-.05.189c-.126.465-.444,1.732-.683,3.094-.088.478-.159.964-.214,1.438-.151,1.358-.117,2.562.39,2.889A7.615,7.615,0,0,0,63.087,24.722Z" transform="translate(-51.751 -16.429)" fill="#da8561"/><path d="M60.386,16.511c-.126.465-.444,1.732-.683,3.094-.088.478-.159.964-.214,1.438-1.7,1.434-4.054,3.056-6.6,1.438.008-.021.017-.042.025-.067a18.358,18.358,0,0,0,.734-4.256Z" transform="translate(-50.219 -16.319)" fill="#a75743"/></g><g transform="translate(34.73 27.394)"><path d="M53.012,20.9l2.872,2.436,5.937-1.061-4.407,6.733-3.991,1.337-2.729-7.744Z" transform="translate(-50.694 -20.904)" fill="#eb9344"/><path d="M53.851,22.538c.059,0,1.53.591,1.53.591l.432,3-2.486,1.434-1.572-1.744Z" transform="translate(-49.272 -18.715)" fill="#eb6d28"/><path d="M52.521,21.483l1.107,1.082,2.113-.411s-.725,2.2-1.195,2.394a2.481,2.481,0,0,1-1.765-.2A4.606,4.606,0,0,1,52.521,21.483Z" transform="translate(-48.433 -20.129)" fill="#ef7b31"/></g><g transform="translate(0 16.38)"><path d="M67.043,19.69a14.3,14.3,0,0,0-6.029,2.826c-3,2.356-7.769,5.669-8.411,5.354-.52-.26-4.268-5.174-6.159-7.069-.717-.717-1.874-.419-1.958-.5L38.9,24.151a3.94,3.94,0,0,0,.415,2.675c1.95,2.763,9.241,11.823,11.706,11.828,3.74.008,12.788-3.9,12.788-3.9Z" transform="translate(-31.865 -11.518)" fill="#191a33"/><path d="M47.607,20.307c-.088.91-.432,4.059-.432,4.059l-3.824,3.308s-6.956-4.851-7.22-5.463a.639.639,0,0,1,.117-.809.279.279,0,0,1,.067-.046.77.77,0,0,1-.13-.1,1.109,1.109,0,0,1-.331-.734.573.573,0,0,1,.444-.608,1.155,1.155,0,0,1,.218-.046,1.2,1.2,0,0,1-.1-.1.675.675,0,0,1-.025-.927c.386-.478,5.48,1.132,5.48,1.132s-3.245-2.927-2.658-3.7,6.49,4.251,6.49,4.251c.495-1.92,1.312-3.3,1.9-3.073S47.7,19.4,47.607,20.307Z" transform="translate(-35.853 -16.198)" fill="#da8561"/><path d="M40.566,18.125c-.855.507-1.078,1.983-.914,2.872.017.1.18.075.168-.021a3.415,3.415,0,0,1,.088-1.484,8.754,8.754,0,0,1,.721-1.3A.047.047,0,0,0,40.566,18.125Z" transform="translate(-30.829 -13.622)" fill="#240d0e"/><path d="M41.213,20.51c-.746-.235-1.069.281-1.769-.231-1.136-.83-2-1.623-3.384-1.774a.28.28,0,0,1,.067-.046.77.77,0,0,1-.13-.1,3.768,3.768,0,0,1,2.361.763,7.076,7.076,0,0,0,1.6,1.065c.5.176.834-.038,1.312.113C41.393,20.347,41.338,20.548,41.213,20.51Z" transform="translate(-35.66 -13.303)" fill="#240d0e"/><path d="M41.268,19.589a4.753,4.753,0,0,1-1.92-.788,8.86,8.86,0,0,0-3.3-.931,1.155,1.155,0,0,1,.218-.046,1.2,1.2,0,0,1-.1-.1,6.613,6.613,0,0,1,2.327.415c.927.344,1.782,1.119,2.78,1.2C41.431,19.354,41.431,19.605,41.268,19.589Z" transform="translate(-35.597 -14.155)" fill="#240d0e"/><path d="M39.6,24.994a4.79,4.79,0,0,0,3.874-1.052c1.966-1.413,1.585-2.818,1.585-2.818.017-.268-1.107-1.685-1.48-1.685,0,0-2.776,3.09-4.973,3.132C38.607,22.567,38.351,23.439,39.6,24.994Z" transform="translate(-32.191 -11.854)" fill="#373662"/></g><g transform="translate(28.047 24.095)"><path d="M72.847,27.232C72.826,33.848,71.338,46.8,71.338,46.8h-23.5s.1-.96.289-2.511c.767-6.427,3.01-23.031,5.7-23.982a15.7,15.7,0,0,1,1.849-.524c.482-.113.939-.2,1.371-.281-.285,3.363.713,11.61,1.614,11.45s8.05-8.44,9.673-10.331c.394.13.805.273,1.216.44a5.02,5.02,0,0,1,2.994,2.7A12.028,12.028,0,0,1,72.847,27.232Z" transform="translate(-47.838 -19.492)" fill="#1d203d"/><path d="M70.1,22.581C70.076,29.2,71.338,42.66,71.338,42.66h-23.5s.1-.96.289-2.511C66.022,42.551,68.068,31.948,70.1,22.581Z" transform="translate(-47.838 -15.357)" fill="#191a33"/><path d="M65.055,21.058c-3.069,3.933-9.329,11.643-11.077,11.4-1.9-.268-2.6-9.253-2.788-12.679.482-.113.939-.2,1.371-.281-.285,3.363.713,11.61,1.614,11.45s8.05-8.44,9.673-10.331C64.225,20.744,64.64,20.886,65.055,21.058Z" transform="translate(-43.345 -19.494)" fill="#373662"/></g><g transform="translate(33.816 23.185)"><path d="M56.408,25.793a8.956,8.956,0,0,1-.084-6.683s-2.495-.138-3.694,1.132S50.3,26.024,50.3,26.024,53.376,23.957,56.408,25.793Z" transform="translate(-50.303 -19.106)" fill="#f6a24f"/><path d="M59.406,19.206a19,19,0,0,1-6.494,6.453c.633,0,4.4-.7,7.061,2.239C60.232,27.952,64.056,19.391,59.406,19.206Z" transform="translate(-46.807 -18.971)" fill="#f6a24f"/></g><path d="M57.057,25.835l2.62-5.253s3.107,1.715,4.914,7.392c1.258,3.954,4.5,17.37,4.5,17.37H58.512S55.175,33.546,57.057,25.835Z" transform="translate(-8.206 6.058)" fill="#1d203d"/><g transform="translate(33.319)"><path d="M55.2,16.905c-.327.868-1.627,1.178-2.906.7s-2.054-1.572-1.732-2.44,1.627-1.178,2.906-.7S55.525,16.041,55.2,16.905Z" transform="translate(-49.553 -2.441)" fill="#a75743"/><path d="M52.5,11.982s-4.365,1,0,3.442a6.512,6.512,0,0,0,.583,3.472l2.981-6.914Z" transform="translate(-49.462 -5.468)" fill="#240d0e"/><g transform="translate(3.47 2.833)"><path d="M65.266,20.388c-.746,4.868-5.17,8.406-8.947,7.828-3.727-.574-4.939-4.91-4.721-9.765,0-.055,0-.113.008-.168A9.945,9.945,0,0,1,53.149,13a6.477,6.477,0,0,1,6.641-2.486,5.77,5.77,0,0,1,3.3,1.769,6.769,6.769,0,0,1,.675.822A10.045,10.045,0,0,1,65.266,20.388Z" transform="translate(-51.574 -10.409)" fill="#da8561"/><path d="M64.313,20.3a8.16,8.16,0,0,1-1.149-4.386s-5.9.4-3.8-1.266a11.334,11.334,0,0,1-6.863.113,12.572,12.572,0,0,0-.914,2.994c0-.055,0-.113.008-.168a9.944,9.944,0,0,1,1.543-5.279c2.21-1.27,8-1.983,9.941-.713a1.487,1.487,0,0,1,.411.377,2.693,2.693,0,0,1,.264.449C64.829,14.726,64.313,20.3,64.313,20.3Z" transform="translate(-51.559 -9.711)" fill="#a75743"/></g><path d="M68.054,22.792l-2,.377a11.406,11.406,0,0,1-.4-5.53s-5.966.029-2.981-1.476c-.205.063-5.593,1.66-10.1-.319a5.278,5.278,0,0,1-.872-.486c-2.289-1.593-3.354-4.952,5.509-4.251,0,0-2.994-1.744-.507-1.9,2.373-.138,9.945.922,11.631,3.845a2.377,2.377,0,0,1,.3,1.635C68.616,14.688,71.945,16.063,68.054,22.792Z" transform="translate(-50.091 -9.196)" fill="#240d0e"/><path d="M68.318,13.059a13.3,13.3,0,0,0-5.157-2.113c-3.006-.449-5.5-.83-4.474.574,0,0-10.243-.6-6.993,3.836-2.289-1.593-3.354-4.952,5.509-4.251,0,0-2.994-1.744-.507-1.9C59.061,9.072,66.637,10.137,68.318,13.059Z" transform="translate(-50.091 -9.198)" fill="#402014"/><path d="M61.162,15.691c.205.9-.7,1.883-2.038,2.189S56.541,17.7,56.336,16.8s.7-1.883,2.038-2.189S60.952,14.789,61.162,15.691Z" transform="translate(-41.76 -2.065)" fill="#da8561"/><g transform="translate(3.1 11.458)"><path d="M65.6,14.095l-1.79.348a7.984,7.984,0,0,1-1.4,4.788c-.914,1.1-1.505.977-1.505.977s-.373-2.226-1.086-2.579-5.3-.3-5.677.507a5.438,5.438,0,0,0-.319,2.13s-2.151-.9-2.017-5.723l-.369-.13s-.4,7.92,1.971,9.2c0,0-1.023.658-.214,1.128s2.235-.344,2.235-.344-1.094,2.394,2.671-.063c0,0-.641,1.434,1.2.8s4.386-3.505,5.1-5.392A33.814,33.814,0,0,0,65.6,14.095Z" transform="translate(-51.415 -14.095)" fill="#240d0e"/><path d="M53.08,16.53l3.773-.692s.394,2.088-1.337,2.486C53.747,18.722,53.08,16.53,53.08,16.53Z" transform="translate(-49.184 -11.758)" fill="#fff"/></g></g></g></g><g transform="translate(91.179 6.251)"><path d="M58.057,33.337H43.32A7.941,7.941,0,0,1,35.379,25.4V10.612A7.941,7.941,0,0,1,43.32,2.671H58.057A7.941,7.941,0,0,1,66,10.612V25.4A7.944,7.944,0,0,1,58.057,33.337Z" transform="translate(-35.379 -2.671)" fill="#f6f6f6" opacity="0.78"/><g transform="translate(4.361 3.426)"><g clip-path="url(#j)"><path d="M61.027,15.329l-.621-.449a1.161,1.161,0,0,1-.31-1.547l.4-.654a1.16,1.16,0,0,0-.721-1.736l-.742-.176a1.164,1.164,0,0,1-.88-1.312l.122-.755a1.139,1.139,0,0,0-.327-1h0a1.151,1.151,0,0,0-1-.327l-.755.122a1.157,1.157,0,0,1-1.312-.88L54.7,5.87a1.161,1.161,0,0,0-1.736-.721l-.654.4a1.157,1.157,0,0,1-1.547-.31l-.449-.621a1.161,1.161,0,0,0-1.883,0l-.449.621a1.161,1.161,0,0,1-1.547.31l-.654-.4a1.161,1.161,0,0,0-1.736.717l-.176.742a1.164,1.164,0,0,1-1.312.88L41.8,7.367a1.162,1.162,0,0,0-1.342,1.044v.025a1.351,1.351,0,0,0,.013.26l.122.755a1.157,1.157,0,0,1-.88,1.312l-.742.176a1.157,1.157,0,0,0-.717,1.736l.4.654a1.157,1.157,0,0,1-.31,1.547l-.621.444a1.161,1.161,0,0,0,0,1.883l.621.449a1.161,1.161,0,0,1,.31,1.547l-.4.654a1.161,1.161,0,0,0,.717,1.736l.742.176a1.164,1.164,0,0,1,.88,1.312l-.122.755a1.139,1.139,0,0,0,.327,1h0a1.151,1.151,0,0,0,1,.327l.755-.122a1.157,1.157,0,0,1,1.312.88l.176.742a1.157,1.157,0,0,0,1.736.717l.654-.4a1.161,1.161,0,0,1,1.547.31l.449.621a1.161,1.161,0,0,0,1.883,0l.449-.621a1.161,1.161,0,0,1,1.547-.31l.654.4a1.161,1.161,0,0,0,1.736-.717l.176-.742a1.164,1.164,0,0,1,1.312-.88l.755.122a1.127,1.127,0,0,0,.264.013h.025a1.16,1.16,0,0,0,1.044-1.342l-.122-.755a1.161,1.161,0,0,1,.88-1.312l.742-.176a1.16,1.16,0,0,0,.721-1.736l-.4-.654a1.157,1.157,0,0,1,.31-1.547l.621-.449A1.16,1.16,0,0,0,61.027,15.329Z" transform="translate(-37.243 -4.135)" fill="#fab334"/></g><g clip-path="url(#j)"><path d="M48.536,7.568c0,.222-5.761,10.373-6.406,10.574l3.4,5.853c.231-.075.461-.155.683-.239s.449-.172.671-.268.436-.184.654-.289c.394-.184.78-.386,1.161-.6a17.187,17.187,0,0,0,2.331-1.572c.176-.138.348-.285.52-.432s.327-.285.486-.432.34-.323.5-.491.306-.319.461-.474.306-.34.449-.516c.113-.13.222-.268.34-.407a17.838,17.838,0,0,0,2.05-3.233c.071-.143.138-.289.21-.436a.185.185,0,0,0,.025-.067c.088-.193.168-.386.252-.579.18-.436.344-.885.482-1.337.067-.184.126-.382.176-.574,0-.021.013-.038.017-.055.055-.2.109-.394.155-.6a.221.221,0,0,0,.013-.05c.05-.21.1-.419.138-.637.038-.176.071-.348.1-.524a2.293,2.293,0,0,0,.042-.289c.034-.176.055-.361.075-.537.025-.2.042-.394.059-.6.013-.088.017-.172.021-.264.013-.172.021-.344.025-.52.013-.13.017-.273.017-.407l-9.107,0Z" transform="translate(-30.693 0.464)" opacity="0.4" fill="url(#l)"/></g><path d="M55.25,14.457c0,.071-.013.143-.017.21s-.013.113-.017.164c-.025.18-.055.373-.092.553,0,.029-.013.063-.017.1-.042.189-.088.382-.138.566-.029.1-.063.21-.1.319s-.075.231-.122.348l-.109.293a.6.6,0,0,1-.055.13c-.071.164-.134.327-.21.486s-.143.319-.231.47c-.092.172-.18.34-.281.5a7.8,7.8,0,0,1-.495.755c-.084.122-.172.231-.264.344s-.2.243-.31.361c-.059.071-.126.134-.184.2a3.241,3.241,0,0,1-.268.268c-.075.075-.151.143-.235.218a.367.367,0,0,1-.042.034c-.071.059-.134.117-.205.168-.1.088-.205.164-.31.239s-.184.134-.285.2-.21.138-.319.205-.18.109-.277.155-.21.113-.319.164a8.389,8.389,0,0,1-1.233.491,10.768,10.768,0,0,1-4.755.268.289.289,0,0,1-.2-.44l.4-.646A8.163,8.163,0,1,1,55.25,14.457Z" transform="translate(-34.975 -2.102)" fill="#fff"/></g></g></g></g></g></g></svg>