<svg xmlns="http://www.w3.org/2000/svg" xmlns:xlink="http://www.w3.org/1999/xlink" width="223" height="223" viewBox="0 0 223 223"><defs><clipPath id="a"><circle cx="111.5" cy="111.5" r="111.5" transform="translate(1373 41)" fill="#8dc04e"/></clipPath><clipPath id="b"><rect width="246.474" height="229.163"/></clipPath><clipPath id="c"><rect width="466.607" height="219.774"/></clipPath><linearGradient id="d" x1="0.648" y1="-0.588" x2="0.481" y2="0.135" gradientUnits="objectBoundingBox"><stop offset="0" stop-color="#9b99c3" stop-opacity="0"/><stop offset="1" stop-color="#9b99c3"/></linearGradient><linearGradient id="e" x1="0.618" y1="-1.193" x2="0.45" y2="-0.197" xlink:href="#d"/><linearGradient id="f" x1="0.622" y1="-1.152" x2="0.455" y2="-0.183" xlink:href="#d"/><linearGradient id="g" x1="0.641" y1="-0.79" x2="0.474" y2="0.014" xlink:href="#d"/><linearGradient id="h" x1="0.618" y1="-1.347" x2="0.451" y2="-0.298" xlink:href="#d"/><linearGradient id="i" x1="0.655" y1="-0.628" x2="0.488" y2="0.097" xlink:href="#d"/><clipPath id="j"><path d="M99.641,33.5l-1.628-1.177a3.046,3.046,0,0,1-.814-4.059l1.045-1.716A3.043,3.043,0,0,0,96.352,22l-1.947-.462a3.055,3.055,0,0,1-2.31-3.443l.319-1.98a2.988,2.988,0,0,0-.858-2.629h0a3.019,3.019,0,0,0-2.629-.858l-1.98.319a3.036,3.036,0,0,1-3.443-2.31l-.462-1.947a3.046,3.046,0,0,0-4.554-1.892L76.773,7.84a3.035,3.035,0,0,1-4.059-.814L71.537,5.4a3.047,3.047,0,0,0-4.939,0L65.421,7.026a3.046,3.046,0,0,1-4.059.814L59.646,6.795a3.045,3.045,0,0,0-4.554,1.881l-.462,1.947a3.055,3.055,0,0,1-3.443,2.31l-1.98-.319a3.048,3.048,0,0,0-3.52,2.739v.066a3.544,3.544,0,0,0,.033.682l.319,1.98a3.036,3.036,0,0,1-2.31,3.443l-1.947.462A3.036,3.036,0,0,0,39.9,26.539l1.045,1.716a3.035,3.035,0,0,1-.814,4.059L38.5,33.48a3.047,3.047,0,0,0,0,4.939L40.133,39.6a3.046,3.046,0,0,1,.814,4.059L39.9,45.371a3.045,3.045,0,0,0,1.881,4.554l1.947.462a3.055,3.055,0,0,1,2.31,3.443l-.319,1.98a2.988,2.988,0,0,0,.858,2.629h0a3.019,3.019,0,0,0,2.629.858l1.98-.319a3.036,3.036,0,0,1,3.443,2.31l.462,1.947a3.036,3.036,0,0,0,4.554,1.881l1.716-1.045a3.046,3.046,0,0,1,4.059.814L66.6,66.512a3.047,3.047,0,0,0,4.939,0l1.177-1.628a3.046,3.046,0,0,1,4.059-.814l1.716,1.045a3.045,3.045,0,0,0,4.554-1.881l.462-1.947a3.055,3.055,0,0,1,3.443-2.31l1.98.319a2.958,2.958,0,0,0,.693.033h.066a3.043,3.043,0,0,0,2.739-3.52l-.319-1.98a3.045,3.045,0,0,1,2.31-3.443l1.947-.462a3.043,3.043,0,0,0,1.892-4.554L97.21,43.655a3.035,3.035,0,0,1,.814-4.059l1.628-1.177A3.043,3.043,0,0,0,99.641,33.5Z" transform="translate(-37.243 -4.135)"/></clipPath><linearGradient id="l" x1="0.5" y1="1.998" x2="0.5" y2="2.92" gradientUnits="objectBoundingBox"><stop offset="0" stop-color="#bd3118"/><stop offset="1" stop-color="#e20e18" stop-opacity="0"/></linearGradient></defs><g transform="translate(-1373 -41)" clip-path="url(#a)"><g transform="translate(1159.908 35.132)"><g transform="translate(201.355)"><g clip-path="url(#b)"><path d="M4.938-1.383H265.178c3.34,0,6.051,4.748,6.051,10.609v226.3c0,5.861-2.711,10.609-6.051,10.609H4.938c-3.34,0-6.051-4.748-6.051-10.609V9.226C-1.113,3.365,1.592-1.383,4.938-1.383Z" transform="translate(-2.714 -7.471)" fill="#5a4495"/><path d="M4.654-1.274H264.894c3.124,0,5.65,4.439,5.65,9.9v226.3c0,5.46-2.526,9.9-5.65,9.9H4.654c-3.124,0-5.65-4.439-5.65-9.9V8.636C-1,3.165,1.53-1.274,4.654-1.274Z" transform="translate(-2.43 -6.881)" fill="#5a4495"/></g></g><g transform="translate(0 9.389)"><g clip-path="url(#c)"><g transform="translate(219.444 56.474)"><g transform="translate(0 0.647)"><g transform="translate(75.271 139.399)"><path d="M114.674,56.318H44.419V32.009h61.807c-.671,11.011,2.266,20.932,8.459,21.779C114.674,53.81,114.674,55.053,114.674,56.318Z" transform="translate(-44.419 -32.009)" fill="#555287"/><rect width="54.548" height="13.42" transform="translate(0 10.89)" fill="#7d789e"/></g><path d="M238.679,154.28H41.773a9.624,9.624,0,0,1-9.614-9.614V18.918A9.624,9.624,0,0,1,41.773,9.3H238.679a9.624,9.624,0,0,1,9.614,9.614v125.76A9.607,9.607,0,0,1,238.679,154.28Z" transform="translate(-32.159 -9.304)" fill="#555287"/><path d="M234.224,154.28H40.761a8.6,8.6,0,0,1-8.6-8.6V17.906a8.6,8.6,0,0,1,8.6-8.6H234.224a8.6,8.6,0,0,1,8.6,8.6V145.678A8.6,8.6,0,0,1,234.224,154.28Z" transform="translate(-32.159 -9.304)" fill="#7d789e"/><g transform="translate(8.866 10.78)"><path d="M217.618,134.476H42.205a8.6,8.6,0,0,1-8.6-8.6V19.661a8.6,8.6,0,0,1,8.6-8.6H217.618a8.6,8.6,0,0,1,8.6,8.6V125.875A8.593,8.593,0,0,1,217.618,134.476Z" transform="translate(-33.603 -11.06)" fill="#d3e0e9"/><g transform="translate(21.713 12.705)"><rect width="12.386" height="110.723" transform="translate(146.472)" fill="url(#d)"/><rect width="12.386" height="80.342" transform="translate(125.397 30.183)" fill="url(#e)"/><rect width="12.386" height="82.52" transform="translate(77.02 28.192)" fill="url(#f)"/><rect width="12.386" height="99.437" transform="translate(53.294 11.088)" fill="url(#g)"/><rect width="12.386" height="76.217" transform="translate(27.367 34.495)" fill="url(#h)"/><rect width="12.386" height="110.294" transform="translate(0 0.418)" fill="url(#i)"/></g></g></g><g transform="translate(22.677)"><g transform="translate(97.607 44.393)"><path d="M81.492,38.186c-4.257,4.972-23,26.7-25.376,27.1s-4.983-21.218-4.235-30.04c3.575-.671,6.237-1.111,6.776-2.387a2.687,2.687,0,0,0,.11-.264c.022-.055.044-.11.066-.176,1.309-3.432,1.8-9.46,1.925-11.165.022-.308.033-.473.033-.473l17.765-4.356s-.044.176-.132.495c-.33,1.221-1.166,4.543-1.793,8.118-.231,1.254-.418,2.53-.561,3.773-.4,3.564-.308,6.721,1.023,7.579A19.978,19.978,0,0,0,81.492,38.186Z" transform="translate(-51.751 -16.429)" fill="#da8561"/><path d="M72.55,16.511c-.33,1.221-1.166,4.543-1.793,8.118-.231,1.254-.418,2.53-.561,3.773-4.455,3.762-10.637,8.019-17.3,3.773.022-.055.044-.11.066-.176,1.309-3.432,1.8-9.46,1.925-11.165Z" transform="translate(-45.878 -16.005)" fill="#a75743"/></g><g transform="translate(91.115 71.87)"><path d="M56.776,20.9,64.311,27.3l15.576-2.783L68.326,42.178,57.854,45.687,50.694,25.37Z" transform="translate(-50.694 -20.904)" fill="#eb9344"/><path d="M57.254,22.538c.154,0,4.015,1.551,4.015,1.551L62.4,31.965l-6.523,3.762-4.125-4.576Z" transform="translate(-45.242 -12.507)" fill="#eb6d28"/><path d="M52.75,21.483l2.9,2.838L61.2,23.243s-1.9,5.764-3.135,6.281a6.509,6.509,0,0,1-4.631-.517C52.75,28.435,51.87,22.671,52.75,21.483Z" transform="translate(-42.025 -17.93)" fill="#ef7b31"/></g><g transform="translate(0 42.973)"><path d="M112.851,19.69A37.51,37.51,0,0,0,97.033,27.1C89.168,33.285,76.651,41.975,74.968,41.15,73.6,40.468,63.77,27.577,58.809,22.6c-1.881-1.881-4.917-1.1-5.137-1.32L39.021,31.393s-.869,4.235,1.089,7.018c5.115,7.249,24.243,31.019,30.711,31.03C80.633,69.463,104.37,59.2,104.37,59.2Z" transform="translate(-20.559 1.749)" fill="#191a33"/><path d="M66.689,26.978c-.231,2.387-1.133,10.648-1.133,10.648L55.525,46.3S37.276,33.578,36.583,31.972a1.676,1.676,0,0,1,.308-2.123.733.733,0,0,1,.176-.121,2.019,2.019,0,0,1-.341-.253,2.909,2.909,0,0,1-.869-1.925,1.5,1.5,0,0,1,1.166-1.595,3.031,3.031,0,0,1,.572-.121,3.148,3.148,0,0,1-.275-.264,1.771,1.771,0,0,1-.066-2.431c1.012-1.254,14.377,2.97,14.377,2.97s-8.514-7.678-6.974-9.7S61.685,27.561,61.685,27.561c1.3-5.038,3.443-8.657,4.994-8.063C68.251,20.07,66.931,24.6,66.689,26.978Z" transform="translate(-35.853 -16.198)" fill="#da8561"/><path d="M42.131,18.134c-2.244,1.331-2.827,5.2-2.4,7.535.044.253.473.2.44-.055A8.96,8.96,0,0,1,40.4,21.72c.407-1.331,1.3-2.211,1.892-3.421A.124.124,0,0,0,42.131,18.134Z" transform="translate(-16.585 -6.32)" fill="#240d0e"/><path d="M49.681,24.005c-1.958-.616-2.8.737-4.642-.6-2.981-2.178-5.236-4.257-8.877-4.653a.733.733,0,0,1,.176-.121A2.019,2.019,0,0,1,36,18.373a9.887,9.887,0,0,1,6.193,2c1.43.979,2.53,2.211,4.191,2.794,1.32.462,2.189-.1,3.443.3C50.154,23.576,50.011,24.1,49.681,24.005Z" transform="translate(-35.113 -5.096)" fill="#240d0e"/><path d="M49.749,22.618c-1.958-.154-3.344-1.155-5.038-2.068a23.244,23.244,0,0,0-8.668-2.442,3.031,3.031,0,0,1,.572-.121,3.148,3.148,0,0,1-.275-.264,17.349,17.349,0,0,1,6.1,1.089c2.431.9,4.675,2.937,7.293,3.146C50.178,22,50.178,22.662,49.749,22.618Z" transform="translate(-34.873 -8.362)" fill="#240d0e"/><path d="M41.249,34.014s4.477,1.309,10.164-2.761c5.159-3.707,4.158-7.392,4.158-7.392.044-.7-2.9-4.422-3.883-4.422,0,0-7.282,8.107-13.046,8.217C38.642,27.645,37.971,29.933,41.249,34.014Z" transform="translate(-21.808 0.46)" fill="#373662"/></g><g transform="translate(73.581 63.213)"><path d="M113.451,39.791c-.055,17.358-3.96,51.325-3.96,51.325H47.838s.264-2.519.759-6.589c2.013-16.863,7.9-60.421,14.96-62.918a41.186,41.186,0,0,1,4.851-1.375c1.265-.3,2.464-.528,3.6-.737-.748,8.822,1.87,30.458,4.235,30.04s21.119-22.142,25.376-27.1c1.034.341,2.112.715,3.19,1.155,3.157,1.309,6.325,3.267,7.854,7.084C113.242,32.135,113.462,35.435,113.451,39.791Z" transform="translate(-47.838 -19.485)" fill="#1d203d"/><path d="M106.235,22.581c-.055,17.358,3.256,52.678,3.256,52.678H47.838s.264-2.519.759-6.589C95.543,74.973,100.911,47.155,106.235,22.581Z" transform="translate(-47.838 -3.629)" fill="#191a33"/><path d="M87.566,23.6C79.514,33.915,63.092,54.144,58.5,53.495c-4.983-.7-6.809-24.276-7.315-33.263,1.265-.3,2.464-.528,3.6-.737-.748,8.822,1.87,30.458,4.235,30.04S80.141,27.392,84.4,22.431C85.388,22.772,86.477,23.146,87.566,23.6Z" transform="translate(-30.609 -19.494)" fill="#373662"/></g><g transform="translate(88.717 60.826)"><path d="M66.319,36.651C63.8,31.294,64.1,24.8,66.1,19.117c0,0-6.545-.363-9.691,2.97-3.124,3.333-6.1,15.169-6.1,15.169S58.366,31.833,66.319,36.651Z" transform="translate(-50.303 -19.106)" fill="#f6a24f"/><path d="M69.95,19.206A49.856,49.856,0,0,1,52.912,36.135c1.661,0,11.539-1.826,18.523,5.874C72.117,42.151,82.149,19.69,69.95,19.206Z" transform="translate(-36.896 -18.589)" fill="#f6a24f"/></g><path d="M57.992,34.365l6.875-13.783s8.151,4.5,12.892,19.392c3.3,10.373,11.8,45.572,11.8,45.572H61.809C61.809,85.535,53.053,54.593,57.992,34.365Z" transform="translate(70.17 49.308)" fill="#1d203d"/><g transform="translate(87.414)"><path d="M62.85,21.231c-.858,2.277-4.268,3.091-7.623,1.837s-5.39-4.125-4.543-6.4,4.268-3.091,7.623-1.837C61.662,16.1,63.7,18.965,62.85,21.231Z" transform="translate(-48.028 16.716)" fill="#a75743"/><path d="M55.649,11.982s-11.451,2.629,0,9.031c0,0-.748,3.322,1.529,9.108L65,11.982Z" transform="translate(-47.68 5.109)" fill="#240d0e"/><g transform="translate(9.103 7.433)"><path d="M87.5,36.59C85.539,49.36,73.934,58.644,64.023,57.126c-9.779-1.507-12.958-12.881-12.386-25.618.011-.143.011-.3.022-.44.308-6.127,1.8-10.637,4.048-13.849C59.887,11.18,66.674,9.7,73.131,10.7a15.138,15.138,0,0,1,8.657,4.642,17.757,17.757,0,0,1,1.771,2.156C87.013,22.378,88.619,29.286,87.5,36.59Z" transform="translate(-51.574 -10.409)" fill="#da8561"/><path d="M84.979,35.518S82.207,31.8,81.965,24.012c0,0-15.488,1.056-9.977-3.322-.4.132-9.779,3.377-18.007.3a32.983,32.983,0,0,0-2.4,7.854c.011-.143.011-.3.022-.44.308-6.127,1.8-10.637,4.048-13.849,5.8-3.333,21-5.2,26.08-1.87a3.9,3.9,0,0,1,1.078.99,7.064,7.064,0,0,1,.693,1.177C86.332,20.888,84.979,35.518,84.979,35.518Z" transform="translate(-51.52 -7.731)" fill="#a75743"/></g><path d="M97.218,44.859l-5.258.99s-2.222-5.1-1.045-14.509c0,0-15.653.077-7.821-3.872-.539.165-14.674,4.356-26.509-.836A13.846,13.846,0,0,1,54.3,25.357c-6.006-4.18-8.8-12.991,14.454-11.154,0,0-7.854-4.576-1.331-4.972,6.226-.363,26.091,2.42,30.513,10.087a6.237,6.237,0,0,1,.781,4.29C98.692,23.6,107.426,27.2,97.218,44.859Z" transform="translate(-50.091 -9.189)" fill="#240d0e"/><path d="M97.911,19.327a34.884,34.884,0,0,0-13.53-5.544c-7.887-1.177-14.432-2.178-11.737,1.507,0,0-26.872-1.584-18.347,10.065-6.006-4.18-8.8-12.991,14.454-11.154,0,0-7.854-4.576-1.331-4.972C73.624,8.866,93.5,11.66,97.911,19.327Z" transform="translate(-50.091 -9.198)" fill="#402014"/><path d="M69.043,17.589c.539,2.365-1.848,4.939-5.346,5.742s-6.776-.462-7.315-2.827,1.848-4.939,5.346-5.742S68.493,15.225,69.043,17.589Z" transform="translate(-18.143 18.158)" fill="#da8561"/><g transform="translate(8.132 30.06)"><path d="M88.64,14.095l-4.7.913s.341,7.733-3.674,12.562c-2.4,2.882-3.949,2.563-3.949,2.563s-.979-5.841-2.849-6.765-13.9-.792-14.894,1.331a14.268,14.268,0,0,0-.836,5.588S52.1,27.932,52.451,15.272l-.968-.341s-1.056,20.778,5.17,24.144c0,0-2.684,1.727-.561,2.959s5.863-.9,5.863-.9-2.871,6.281,7.007-.165c0,0-1.683,3.762,3.157,2.09s11.506-9.2,13.376-14.146C87.375,23.928,88.64,14.095,88.64,14.095Z" transform="translate(-51.415 -14.095)" fill="#240d0e"/><path d="M53.08,17.653l9.9-1.815s1.034,5.478-3.509,6.523C54.829,23.406,53.08,17.653,53.08,17.653Z" transform="translate(-42.86 -5.135)" fill="#fff"/></g></g></g></g><g transform="translate(239.211 16.401)"><path d="M94.876,83.123H56.212A20.834,20.834,0,0,1,35.379,62.29V23.5A20.834,20.834,0,0,1,56.212,2.671H94.876A20.834,20.834,0,0,1,115.71,23.5V62.29A20.841,20.841,0,0,1,94.876,83.123Z" transform="translate(-35.379 -2.671)" fill="#f6f6f6" opacity="0.78"/><g transform="translate(11.442 8.99)"><g clip-path="url(#j)"><path d="M99.641,33.5l-1.628-1.177a3.046,3.046,0,0,1-.814-4.059l1.045-1.716A3.043,3.043,0,0,0,96.352,22l-1.947-.462a3.055,3.055,0,0,1-2.31-3.443l.319-1.98a2.988,2.988,0,0,0-.858-2.629h0a3.019,3.019,0,0,0-2.629-.858l-1.98.319a3.036,3.036,0,0,1-3.443-2.31l-.462-1.947a3.046,3.046,0,0,0-4.554-1.892L76.773,7.84a3.035,3.035,0,0,1-4.059-.814L71.537,5.4a3.047,3.047,0,0,0-4.939,0L65.421,7.026a3.046,3.046,0,0,1-4.059.814L59.646,6.795a3.045,3.045,0,0,0-4.554,1.881l-.462,1.947a3.055,3.055,0,0,1-3.443,2.31l-1.98-.319a3.048,3.048,0,0,0-3.52,2.739v.066a3.544,3.544,0,0,0,.033.682l.319,1.98a3.036,3.036,0,0,1-2.31,3.443l-1.947.462A3.036,3.036,0,0,0,39.9,26.539l1.045,1.716a3.035,3.035,0,0,1-.814,4.059L38.5,33.48a3.047,3.047,0,0,0,0,4.939L40.133,39.6a3.046,3.046,0,0,1,.814,4.059L39.9,45.371a3.045,3.045,0,0,0,1.881,4.554l1.947.462a3.055,3.055,0,0,1,2.31,3.443l-.319,1.98a2.988,2.988,0,0,0,.858,2.629h0a3.019,3.019,0,0,0,2.629.858l1.98-.319a3.036,3.036,0,0,1,3.443,2.31l.462,1.947a3.036,3.036,0,0,0,4.554,1.881l1.716-1.045a3.046,3.046,0,0,1,4.059.814L66.6,66.512a3.047,3.047,0,0,0,4.939,0l1.177-1.628a3.046,3.046,0,0,1,4.059-.814l1.716,1.045a3.045,3.045,0,0,0,4.554-1.881l.462-1.947a3.055,3.055,0,0,1,3.443-2.31l1.98.319a2.958,2.958,0,0,0,.693.033h.066a3.043,3.043,0,0,0,2.739-3.52l-.319-1.98a3.045,3.045,0,0,1,2.31-3.443l1.947-.462a3.043,3.043,0,0,0,1.892-4.554L97.21,43.655a3.035,3.035,0,0,1,.814-4.059l1.628-1.177A3.043,3.043,0,0,0,99.641,33.5Z" transform="translate(-37.243 -4.135)" fill="#fab334"/></g><g clip-path="url(#j)"><path d="M58.937,7.568c-.011.583-15.114,27.213-16.808,27.741L51.05,50.665c.6-.2,1.21-.407,1.793-.627.6-.231,1.177-.451,1.76-.7s1.144-.484,1.716-.759c1.034-.484,2.046-1.012,3.047-1.573a45.091,45.091,0,0,0,6.116-4.125c.462-.363.913-.748,1.364-1.133.429-.363.858-.748,1.276-1.133q.676-.627,1.32-1.287c.407-.407.8-.836,1.21-1.243.385-.429.8-.891,1.177-1.353.3-.341.583-.7.891-1.067A46.8,46.8,0,0,0,78.1,27.18c.187-.374.363-.759.55-1.144a.486.486,0,0,0,.066-.176c.231-.506.44-1.012.66-1.518.473-1.144.9-2.321,1.265-3.509.176-.484.33-1,.462-1.507.011-.055.033-.1.044-.143.143-.517.286-1.034.407-1.573a.581.581,0,0,0,.033-.132c.132-.55.253-1.1.363-1.672.1-.462.187-.913.253-1.375a6.014,6.014,0,0,0,.11-.759c.088-.462.143-.946.2-1.408.066-.517.11-1.034.154-1.562.033-.231.044-.451.055-.693.033-.451.055-.9.066-1.364.033-.341.044-.715.044-1.067L58.937,7.568Z" transform="translate(-12.125 13.505)" opacity="0.4" fill="url(#l)"/></g><path d="M81.738,28.751c-.011.187-.033.374-.044.55-.011.154-.033.3-.044.429-.066.473-.143.979-.242,1.452-.011.077-.033.165-.044.253-.11.495-.231,1-.363,1.485-.077.275-.165.55-.264.836-.11.308-.2.6-.319.913-.1.264-.187.506-.286.77a1.585,1.585,0,0,1-.143.341c-.187.429-.352.858-.55,1.276s-.374.836-.6,1.232c-.242.451-.473.891-.737,1.32a20.457,20.457,0,0,1-1.3,1.98c-.22.319-.451.6-.693.9-.264.33-.517.638-.814.946-.154.187-.33.352-.484.528a8.5,8.5,0,0,1-.7.7c-.2.2-.4.374-.616.572a.962.962,0,0,1-.11.088c-.187.154-.352.308-.539.44-.264.231-.539.429-.814.627-.253.187-.484.352-.748.517-.275.187-.55.363-.836.539-.253.143-.473.286-.726.407-.275.154-.55.3-.836.429a22.008,22.008,0,0,1-3.234,1.287,28.25,28.25,0,0,1-12.474.7.759.759,0,0,1-.528-1.155L53.7,47.429A21.417,21.417,0,1,1,81.738,28.751Z" transform="translate(-28.546 3.662)" fill="#fff"/></g></g></g></g></g></g></svg>