<svg xmlns="http://www.w3.org/2000/svg" width="42.176" height="36.159" viewBox="0 0 42.176 36.159"><g transform="translate(0 0)"><path d="M12.348,61.835H18.59a14.519,14.519,0,0,0,28.2-.781.864.864,0,0,0-.171-.719.854.854,0,0,0-.665-.319H41.645a.859.859,0,0,0-.817.6,8.639,8.639,0,0,1-15.973,1.226h6.211a.859.859,0,0,0,.606-1.464l-9.359-9.359a.888.888,0,0,0-1.212,0l-9.359,9.359a.855.855,0,0,0,.606,1.459ZM29,60.124H23.584a.853.853,0,0,0-.808,1.123,10.347,10.347,0,0,0,19.476.481h2.6A12.808,12.808,0,0,1,20.1,60.793a.855.855,0,0,0-.835-.669h-4.85l7.293-7.293Z" transform="translate(-11.491 -36.359)" fill="#fcb040"/><path d="M27.627,31.172h4.307a.859.859,0,0,0,.817-.6,8.64,8.64,0,0,1,15.973-1.221H42.509a.85.85,0,0,0-.79.53.859.859,0,0,0,.184.934l9.359,9.359a.856.856,0,0,0,1.212,0l9.359-9.359a.849.849,0,0,0,.184-.934.861.861,0,0,0-.79-.53H54.984a14.519,14.519,0,0,0-28.2.781.857.857,0,0,0,.84,1.037ZM40.982,20.381A12.882,12.882,0,0,1,53.48,30.4a.855.855,0,0,0,.835.669H59.16l-7.293,7.3-7.293-7.293H49.99a.853.853,0,0,0,.808-1.123,10.347,10.347,0,0,0-19.476-.481h-2.6A12.893,12.893,0,0,1,40.982,20.381Z" transform="translate(-19.907 -18.67)" fill="#fcb040"/></g></svg>