<svg xmlns="http://www.w3.org/2000/svg" width="33.002" height="35.035" viewBox="0 0 33.002 35.035"><g transform="translate(0 0)"><path d="M51.672,34.775c0-9.922-7.326-18.065-16.435-18.065S18.67,24.853,18.67,34.775a19.244,19.244,0,0,0,2.2,8.956h.286v4.136a3.835,3.835,0,0,0,3.721,3.874,3.833,3.833,0,0,0,3.609-3.874V40.01a3.812,3.812,0,0,0-3.609-3.849,3.422,3.422,0,0,0-3.3,2.2,15.474,15.474,0,0,1-.419-3.584c0-8.4,6.359-15.315,14.083-15.315,7.591,0,13.95,6.907,13.95,15.315a13.644,13.644,0,0,1-.419,3.455A3.452,3.452,0,0,0,45.6,36.165a3.8,3.8,0,0,0-3.588,3.849v7.857a3.659,3.659,0,1,0,7.3,0V43.735h.133a18.99,18.99,0,0,0,2.223-8.96Z" transform="translate(-18.67 -16.71)" fill="#fcb040" fill-rule="evenodd"/></g></svg>