<svg xmlns="http://www.w3.org/2000/svg" width="15.687" height="24.344" viewBox="0 0 15.687 24.344"><path d="M43.093,27.66a8.2,8.2,0,0,0-1.873,4.5,1.24,1.24,0,0,1-.239.609H33.888a.934.934,0,0,1-.239-.609,8.317,8.317,0,0,0-1.873-4.5,9.65,9.65,0,0,1-2.2-6.069,7.66,7.66,0,0,1,7.855-7.441,7.655,7.655,0,0,1,7.833,7.441,9.746,9.746,0,0,1-2.174,6.069Zm-2.348,5.569a.947.947,0,0,1,.391.761,1.036,1.036,0,0,1-.261.674H34a.94.94,0,0,1,.109-1.435Zm.174,1.894a1.039,1.039,0,0,1,.217.609,1.006,1.006,0,0,1-.348.761H34.064a1.087,1.087,0,0,1-.348-.761.934.934,0,0,1,.239-.609ZM39.527,36.95a2.2,2.2,0,0,1-2.09,1.544A2.159,2.159,0,0,1,35.35,36.95Z" transform="translate(-29.58 -14.15)" fill="#8bc34a" fill-rule="evenodd"/></svg>