<svg xmlns="http://www.w3.org/2000/svg" width="125.471" height="125.389" viewBox="0 0 125.471 125.389"><g transform="translate(0 0)"><g transform="translate(0 18.786)"><path d="M72.224,137.4a53.3,53.3,0,1,1,35.4-93.145,1.033,1.033,0,0,1-1.379,1.538,51.243,51.243,0,1,0,4.708,4.771,1.054,1.054,0,0,1-.507-.333,1.033,1.033,0,0,1,.127-1.458l.127-.111a1.028,1.028,0,0,1,1.443.111A53.321,53.321,0,0,1,72.224,137.4Z" transform="translate(-18.93 -30.8)" fill="#5a4495"/></g><g transform="translate(95.036)"><path d="M93.541,49.386h0a7.379,7.379,0,0,1-2.029-.285l-9.337-2.267a1.032,1.032,0,0,1-.761-.761L79.164,36.7a7.176,7.176,0,0,1,1.886-7.1L91.4,19.252a1.065,1.065,0,0,1,1-.269,1.022,1.022,0,0,1,.729.745L96.2,32.06l12.333,3.075a1.022,1.022,0,0,1,.745.729,1.008,1.008,0,0,1-.269,1L98.661,47.214A7.233,7.233,0,0,1,93.541,49.386ZM83.269,44.979,92.035,47.1a5.66,5.66,0,0,0,1.49.222h0a5.166,5.166,0,0,0,3.662-1.553l9.067-9.067-11.16-2.79a1.017,1.017,0,0,1-.745-.745L91.56,22.01l-9.067,9.067a5.047,5.047,0,0,0-1.347,5.1Z" transform="translate(-78.883 -18.949)" fill="#5a4495"/></g><g transform="translate(9.654 28.472)"><path d="M68.66,124.158A43.624,43.624,0,1,1,97.066,47.436,1.034,1.034,0,0,1,95.719,49a41.281,41.281,0,1,0,4.613,4.613A1.034,1.034,0,1,1,101.9,52.27,43.647,43.647,0,0,1,68.66,124.158Z" transform="translate(-25.02 -36.91)" fill="#5a4495"/></g><g transform="translate(20.259 39.061)"><path d="M64.745,109.66a33.035,33.035,0,1,1,21.13-58.414,1.035,1.035,0,1,1-1.332,1.585,30.881,30.881,0,1,0,3.963,3.947,1.035,1.035,0,1,1,1.585-1.332A33.043,33.043,0,0,1,64.745,109.66Z" transform="translate(-31.71 -43.59)" fill="#5a4495"/></g><g transform="translate(31.101 49.903)"><path d="M60.742,94.8A22.185,22.185,0,1,1,74.454,55.186,1.027,1.027,0,1,1,73.186,56.8a20,20,0,1,0,3.265,3.218,1.026,1.026,0,1,1,1.6-1.284,21.926,21.926,0,0,1,4.882,13.9A22.21,22.21,0,0,1,60.742,94.8Z" transform="translate(-38.55 -50.43)" fill="#5a4495"/></g><g transform="translate(52.256 3.295)"><path d="M52.933,90.858a1.084,1.084,0,0,1-.761-.333,1.029,1.029,0,0,1-.238-.983c.935-3.17,13.157-17.8,44.654-49.283a1.038,1.038,0,0,1,1.744.476l.729,3.028,3.044.745a1.022,1.022,0,0,1,.745.729,1.008,1.008,0,0,1-.269,1C76.267,72.55,56.848,90.066,53.139,90.843A.838.838,0,0,1,52.933,90.858ZM96.763,43c-24.745,24.792-36.3,37.9-40.676,43.7,6.1-4.6,20.052-16.993,43.751-40.644l-1.87-.46a1.032,1.032,0,0,1-.761-.761Zm17.992-9.368a1.581,1.581,0,0,1-.254-.032l-3.614-.9a1.017,1.017,0,0,1-.745-.745l-.9-3.614a1.065,1.065,0,0,1,.269-.983l5.1-5.1a4.258,4.258,0,0,1,5.976,0,4.145,4.145,0,0,1,0,5.976l-5.1,5.1A1.045,1.045,0,0,1,114.755,33.634ZM112,30.844l2.441.6,4.692-4.692a2.09,2.09,0,0,0,0-3.059,2.143,2.143,0,0,0-3.059,0l-4.692,4.692Z" transform="translate(-51.895 -21.027)" fill="#5a4495"/></g><g transform="translate(43.053 61.856)"><path d="M56.33,78.435a10.232,10.232,0,1,1,0-20.465,10.132,10.132,0,0,1,5.944,1.9,1.046,1.046,0,0,1,.206,1.506c-1.236,1.506-2.188,2.695-2.9,3.646.951-.713,2.14-1.649,3.646-2.9a1.025,1.025,0,0,1,1.49.206,10.11,10.11,0,0,1,1.87,5.9A10.263,10.263,0,0,1,56.33,78.435Zm0-18.4a8.153,8.153,0,1,0,7.276,4.423c-5.437,4.423-6.61,4.676-7.054,4.771a1.1,1.1,0,0,1-.967-.3,1.02,1.02,0,0,1-.238-.983c.206-.745.951-2.267,4.787-6.959A7.92,7.92,0,0,0,56.33,60.031Z" transform="translate(-46.09 -57.97)" fill="#5a4495"/></g></g></svg>