<svg xmlns="http://www.w3.org/2000/svg" width="22.744" height="24.557" viewBox="0 0 22.744 24.557"><path d="M59.995,43.31a2.746,2.746,0,0,0-.768-1.439l-5.264-5.258a2.894,2.894,0,0,0-1.536-.795l-.021.021-.027-.048H44.429A2.811,2.811,0,0,0,41.62,38.6V57.656a2.858,2.858,0,0,0,2.809,2.691H57.207a2.811,2.811,0,0,0,2.809-2.809V52.494l-1.875,2.234v2.809h0a.981.981,0,0,1-.935.961H44.429a.962.962,0,0,1-.935-.961V38.6a.953.953,0,0,1,.935-.935h6.918v3.916a2.859,2.859,0,0,0,2.836,2.857h3.964v2.428l.843-1.01h0l.961-1.128h0l.07-.1V43.39Zm2.379.725h0l1.7,1.418a.853.853,0,0,1,.1,1.176l-.935,1.106-2.981-2.476.935-1.128a.864.864,0,0,1,.575-.29.778.778,0,0,1,.607.193ZM52.523,58.085a.4.4,0,0,1-.43-.048.518.518,0,0,1-.145-.43l.886-3.486,2.981,2.5Zm3.6-1.875h0l-2.954-2.5,5.887-7.036,2.976,2.5ZM63,48.041h0l-2.981-2.5-.7.816,2.976,2.5Zm-18.208,7.38H51.9l-.263,1.08H44.789a.134.134,0,0,1-.118-.145v-.795a.132.132,0,0,1,.118-.14Zm0-2.165h7.665l-.29,1.08H44.789c-.07,0-.118-.048-.118-.145V53.4a.132.132,0,0,1,.118-.14Zm0-2.165h9.824L53.7,52.177H44.789c-.07,0-.118-.048-.118-.145v-.79c0-.075.048-.15.118-.15Zm0-2.159H56.417l-.913,1.08H44.789a.113.113,0,0,1-.118-.118v-.816a.137.137,0,0,1,.118-.145Zm0-2.159H56.847a.134.134,0,0,1,.118.145v.816a.113.113,0,0,1-.118.118H44.789a.113.113,0,0,1-.118-.118v-.822a.132.132,0,0,1,.118-.14Zm-.215-3.679h5.667a.156.156,0,0,1,.145.145v.816a.134.134,0,0,1-.145.124H44.574a.137.137,0,0,1-.145-.124V43.24a.16.16,0,0,1,.145-.145Zm0-2.138h5.667a.156.156,0,0,1,.145.145v.816a.134.134,0,0,1-.145.124H44.574a.137.137,0,0,1-.145-.124V41.1a.16.16,0,0,1,.145-.145Zm0-2.138h5.667a.156.156,0,0,1,.145.145v.795a.138.138,0,0,1-.145.145H44.574a.141.141,0,0,1-.145-.145v-.795a.16.16,0,0,1,.145-.145Zm8.626-.333h0l4.082,4.082h-3.1a1,1,0,0,1-.983-.983Z" transform="translate(-41.62 -35.79)" fill="#e61f5b" fill-rule="evenodd"/></svg>